<svg xmlns="http://www.w3.org/2000/svg" xmlns:xlink="http://www.w3.org/1999/xlink" width="90" height="90" viewBox="0 0 90 90">
  <defs>
    <clipPath id="clip-path">
      <rect id="Rectángulo_411864" data-name="Rectángulo 411864" width="90" height="90" fill="#e8bad8" opacity="0.41"/>
    </clipPath>
    <clipPath id="clip-path-2">
      <rect id="Rectángulo_411865" data-name="Rectángulo 411865" width="62" height="68" fill="#fff" stroke="#707070" stroke-width="1" opacity="0"/>
    </clipPath>
  </defs>
  <g id="Grupo_1204101" data-name="Grupo 1204101" transform="translate(6810.27 9048.472)">
    <g id="Grupo_1204092" data-name="Grupo 1204092" transform="translate(-6810.27 -9048.472)">
      <g id="Enmascarar_grupo_1099458" data-name="Enmascarar grupo 1099458" transform="translate(0 0)" clip-path="url(#clip-path)">
        <g id="Grupo_1204091" data-name="Grupo 1204091" transform="translate(0 4.909)">
          <g id="Grupo_1204089" data-name="Grupo 1204089" transform="translate(0)">
            <ellipse id="Elipse_12742" data-name="Elipse 12742" cx="22.428" cy="22.428" rx="22.428" ry="22.428" transform="translate(44.238 34.661)" fill="#ffc94a"/>
            <ellipse id="Elipse_12743" data-name="Elipse 12743" cx="16.311" cy="16.311" rx="16.311" ry="16.311" fill="#ffc94a"/>
          </g>
        </g>
      </g>
      <g id="Enmascarar_grupo_1099460" data-name="Enmascarar grupo 1099460" transform="translate(13.547 11.964)" clip-path="url(#clip-path-2)">
        <g id="decision" transform="translate(0.265 3.129)">
          <circle id="Elipse_12746" data-name="Elipse 12746" cx="5.005" cy="5.005" r="5.005" transform="translate(1.001 51.046)" fill="#72a6e4"/>
          <rect id="Rectángulo_411868" data-name="Rectángulo 411868" width="10.009" height="10.009" transform="translate(26.024 51.046)" fill="#72a6e4"/>
          <path id="Trazado_1269525" data-name="Trazado 1269525" d="M68.909,65.419,62.9,75.428H74.914Z" transform="translate(-13.859 -14.373)" fill="#72a6e4"/>
          <circle id="Elipse_12747" data-name="Elipse 12747" cx="14.013" cy="14.013" r="14.013" transform="translate(17.015 1.001)" fill="#dae6f2"/>
          <path id="Trazado_1269526" data-name="Trazado 1269526" d="M45.265,19.129a6.73,6.73,0,0,0,0-2.629l1.687-.942a8.925,8.925,0,0,0-2.478-4.164l-.978.546a1.241,1.241,0,0,1-1.289-.03,7.505,7.505,0,0,0-1.108-.617,1.163,1.163,0,0,1-.672-1.065V9.137a9.423,9.423,0,0,0-4.967,0v1.086a1.163,1.163,0,0,1-.672,1.065,7.5,7.5,0,0,0-1.108.617,1.241,1.241,0,0,1-1.289.03l-.973-.543a8.926,8.926,0,0,0-2.483,4.161l1.687.942a6.73,6.73,0,0,0,0,2.629l-1.687.942a8.925,8.925,0,0,0,2.478,4.164l.978-.546a1.242,1.242,0,0,1,1.289.03,7.5,7.5,0,0,0,1.108.617A1.163,1.163,0,0,1,35.46,25.4v1.09a9.421,9.421,0,0,0,4.967,0V25.4a1.163,1.163,0,0,1,.672-1.065,7.5,7.5,0,0,0,1.108-.617,1.242,1.242,0,0,1,1.289-.03l.973.543a8.926,8.926,0,0,0,2.483-4.161Zm-7.321,2.063a3.378,3.378,0,1,1,3.378-3.378A3.378,3.378,0,0,1,37.944,21.193Z" transform="translate(-6.916 -2.801)" fill="#637399"/>
          <path id="Trazado_1269527" data-name="Trazado 1269527" d="M74.914,7.521l-6.005,5v-3H62.9v-4h6.005v-3Z" transform="translate(-13.859 -1.515)" fill="#d96d6d"/>
          <path id="Trazado_1269528" data-name="Trazado 1269528" d="M2.516,7.521l6.005-5v3h6.005v4H8.522v3Z" transform="translate(-1.515 -1.515)" fill="#d96d6d"/>
          <path id="Trazado_1269529" data-name="Trazado 1269529" d="M31.644,24.852l.979-.546a.252.252,0,0,1,.24-.014,8.487,8.487,0,0,0,1.255.7.17.17,0,0,1,.083.153v1.09a1,1,0,0,0,.743.967,10.677,10.677,0,0,0,2.751.365h.123a10.636,10.636,0,0,0,2.611-.369,1,1,0,0,0,.742-.967V25.144a.17.17,0,0,1,.082-.153,8.417,8.417,0,0,0,1.255-.7.256.256,0,0,1,.242.014l.974.543A1,1,0,0,0,44.9,24.7a9.932,9.932,0,0,0,2.759-4.629,1,1,0,0,0-.479-1.132L46.1,18.334a7.554,7.554,0,0,0,0-1.554l1.084-.606a1,1,0,0,0,.479-1.132,9.93,9.93,0,0,0-2.754-4.63,1,1,0,0,0-1.178-.149l-.979.546a.252.252,0,0,1-.24.014,8.455,8.455,0,0,0-1.255-.7.17.17,0,0,1-.083-.153V8.88a1,1,0,0,0-.743-.967,10.415,10.415,0,0,0-5.484,0,1,1,0,0,0-.742.967V9.97a.17.17,0,0,1-.082.153,8.487,8.487,0,0,0-1.255.7.252.252,0,0,1-.242-.014l-.974-.543a1.006,1.006,0,0,0-1.178.149,9.925,9.925,0,0,0-2.759,4.628,1,1,0,0,0,.479,1.132l1.085.606a7.374,7.374,0,0,0,0,1.554l-1.085.606a1,1,0,0,0-.479,1.132,9.93,9.93,0,0,0,2.755,4.63,1,1,0,0,0,1.178.149Zm-.3-6.169a5.691,5.691,0,0,1,0-2.251,1,1,0,0,0-.5-1.063l-.973-.543a7.94,7.94,0,0,1,1.466-2.436l.3.167a2.25,2.25,0,0,0,2.338-.074,6.462,6.462,0,0,1,.96-.535A2.167,2.167,0,0,0,36.2,9.97V9.685a8.333,8.333,0,0,1,1.375-.134,8.094,8.094,0,0,1,1.59.131V9.97a2.167,2.167,0,0,0,1.261,1.978,6.431,6.431,0,0,1,.96.535,2.25,2.25,0,0,0,2.336.073l.3-.17a7.938,7.938,0,0,1,1.462,2.439l-.973.543a1,1,0,0,0-.5,1.061,5.715,5.715,0,0,1,0,2.256,1,1,0,0,0,.5,1.061l.973.543a7.953,7.953,0,0,1-1.466,2.437l-.3-.167a2.251,2.251,0,0,0-2.339.074,6.428,6.428,0,0,1-.959.534,2.167,2.167,0,0,0-1.26,1.977v.285a8.287,8.287,0,0,1-2.966,0v-.288a2.167,2.167,0,0,0-1.261-1.978,6.444,6.444,0,0,1-.959-.534,2.252,2.252,0,0,0-2.337-.074l-.3.17a7.938,7.938,0,0,1-1.462-2.439l.973-.543a1,1,0,0,0,.5-1.063Z" transform="translate(-6.658 -2.544)"/>
          <path id="Trazado_1269530" data-name="Trazado 1269530" d="M39.133,23.383A4.379,4.379,0,1,0,34.754,19,4.379,4.379,0,0,0,39.133,23.383Zm0-6.756A2.377,2.377,0,1,1,36.756,19,2.377,2.377,0,0,1,39.133,16.627Z" transform="translate(-8.105 -3.99)"/>
          <path id="Trazado_1269531" data-name="Trazado 1269531" d="M36.4,31.285A15.014,15.014,0,1,0,21.387,16.272,15.014,15.014,0,0,0,36.4,31.285Zm0-28.025A13.012,13.012,0,1,1,23.389,16.272,13.012,13.012,0,0,1,36.4,3.26Z" transform="translate(-5.373 -1.258)"/>
          <path id="Trazado_1269532" data-name="Trazado 1269532" d="M69.293,1.49a1,1,0,0,0-1.642.769v2h-5a1,1,0,0,0-1,1v4a1,1,0,0,0,1,1h5v2a1,1,0,0,0,1.642.769l6.005-5a1,1,0,0,0,0-1.538Zm.36,8.641V9.265a1,1,0,0,0-1-1h-5v-2h5a1,1,0,0,0,1-1V4.4l3.441,2.867Z" transform="translate(-13.602 -1.258)"/>
          <path id="Trazado_1269533" data-name="Trazado 1269533" d="M7.623,13.037a1,1,0,0,0,1.642-.769v-2h5a1,1,0,0,0,1-1v-4a1,1,0,0,0-1-1h-5v-2A1,1,0,0,0,7.623,1.49l-6.005,5a1,1,0,0,0,0,1.538ZM7.264,4.4v.866a1,1,0,0,0,1,1h5v2h-5a1,1,0,0,0-1,1v.866L3.823,7.263Z" transform="translate(-1.258 -1.258)"/>
          <path id="Trazado_1269534" data-name="Trazado 1269534" d="M7.264,76.172a6.005,6.005,0,1,0-6.005-6.005,6.005,6.005,0,0,0,6.005,6.005Zm0-10.009a4,4,0,1,1-4,4,4,4,0,0,1,4-4Z" transform="translate(-1.258 -14.116)"/>
          <path id="Trazado_1269535" data-name="Trazado 1269535" d="M44.721,75.171V65.162a1,1,0,0,0-1-1H33.711a1,1,0,0,0-1,1V75.171a1,1,0,0,0,1,1H43.72a1,1,0,0,0,1-1Zm-2-1H34.711V66.163h8.007Z" transform="translate(-7.687 -14.116)"/>
          <path id="Trazado_1269536" data-name="Trazado 1269536" d="M69.51,64.656a1.04,1.04,0,0,0-1.716,0L61.788,74.665a1,1,0,0,0,.858,1.516H74.657a1,1,0,0,0,.858-1.516Zm-5.1,9.523,4.237-7.062,4.237,7.063Z" transform="translate(-13.602 -14.124)"/>
          <path id="Trazado_1269537" data-name="Trazado 1269537" d="M58.595,57.531V49.523a1,1,0,0,0-1-1H34.573V41.516h-2v7.006H8.549a1,1,0,0,0-1,1v8.007h2V50.524H32.571v7.006h2V50.524h22.02v7.006Z" transform="translate(-2.544 -9.487)"/>
        </g>
      </g>
    </g>
  </g>
</svg>
