<svg xmlns="http://www.w3.org/2000/svg" xmlns:xlink="http://www.w3.org/1999/xlink" width="90" height="90" viewBox="0 0 90 90">
  <defs>
    <clipPath id="clip-path">
      <rect id="Rectángulo_411866" data-name="Rectángulo 411866" width="90" height="90" fill="#e8bad8" opacity="0.41"/>
    </clipPath>
    <clipPath id="clip-path-2">
      <rect id="Rectángulo_411867" data-name="Rectángulo 411867" width="61.846" height="68.189" fill="#fff" stroke="#707070" stroke-width="1" opacity="0"/>
    </clipPath>
    <clipPath id="clip-path-3">
      <path id="path2229" d="M0-78H61.846v61.846H0Z" transform="translate(0 78)"/>
    </clipPath>
  </defs>
  <g id="Grupo_1204102" data-name="Grupo 1204102" transform="translate(6801.27 9060.472)">
    <g id="Grupo_1204096" data-name="Grupo 1204096" transform="translate(-6801.27 -9060.472)">
      <g id="Enmascarar_grupo_1099459" data-name="Enmascarar grupo 1099459" transform="translate(0 0)" clip-path="url(#clip-path)">
        <g id="Grupo_1204095" data-name="Grupo 1204095" transform="translate(0 4.909)">
          <g id="Grupo_1204093" data-name="Grupo 1204093" transform="translate(0)">
            <ellipse id="Elipse_12744" data-name="Elipse 12744" cx="22.428" cy="22.428" rx="22.428" ry="22.428" transform="translate(44.238 34.661)" fill="#ffc94a"/>
            <ellipse id="Elipse_12745" data-name="Elipse 12745" cx="16.311" cy="16.311" rx="16.311" ry="16.311" fill="#ffc94a"/>
          </g>
        </g>
      </g>
      <g id="Enmascarar_grupo_1099461" data-name="Enmascarar grupo 1099461" transform="translate(13.902 11.474)" clip-path="url(#clip-path-2)">
        <g id="g2223" transform="translate(0 3.172)">
          <g id="g2225">
            <g id="g2227" clip-path="url(#clip-path-3)">
              <g id="g2233" transform="translate(1.208 1.208)">
                <path id="path2235" d="M-.757,0H39.829a2.9,2.9,0,0,1,2.9,2.9V56.531a2.9,2.9,0,0,1-2.9,2.9H-.757a2.9,2.9,0,0,1-2.9-2.9V2.9A2.9,2.9,0,0,1-.757,0" transform="translate(3.656)" fill="#79b2ff"/>
              </g>
              <g id="g2237" transform="translate(6.04 6.04)">
                <path id="path2239" d="M-7.267,0h8.9V49.766H-35.09V0h8.9" transform="translate(35.09)" fill="#fff"/>
              </g>
              <g id="g2241" transform="translate(15.32 1.208)">
                <path id="path2243" d="M-.67-2.272H12.355a2.567,2.567,0,0,0,2.567-2.567v-6.13H-3.237v6.13A2.567,2.567,0,0,0-.67-2.272" transform="translate(3.237 10.969)" fill="#ff6977"/>
              </g>
              <g id="g2245" transform="translate(1.208 1.208)">
                <path id="path2247" d="M-12.116-8.677V14.636a2.9,2.9,0,0,1-2.9,2.9H-55.6a2.9,2.9,0,0,1-2.9-2.9V-39a2.9,2.9,0,0,1,2.9-2.9h40.586a2.9,2.9,0,0,1,2.9,2.9V-18.19" transform="translate(58.5 41.895)" fill="none" stroke="#000" stroke-linecap="round" stroke-linejoin="round" stroke-miterlimit="10" stroke-width="3.047"/>
              </g>
              <g id="g2249" transform="translate(15.32 1.208)">
                <path id="path2251" d="M-.67-2.272H12.355a2.567,2.567,0,0,0,2.567-2.567v-6.13H-3.237v6.13A2.567,2.567,0,0,0-.67-2.272" transform="translate(3.237 10.969)" fill="#bdd9ff"/>
              </g>
              <g id="g2253" transform="translate(15.32 1.208)">
                <path id="path2255" d="M-.67-2.272H12.355a2.567,2.567,0,0,0,2.567-2.567v-6.13H-3.237v6.13A2.567,2.567,0,0,0-.67-2.272Z" transform="translate(3.237 10.969)" fill="none" stroke="#000" stroke-linecap="round" stroke-linejoin="round" stroke-miterlimit="10" stroke-width="3.047"/>
              </g>
              <g id="g2257" transform="translate(6.04 6.04)">
                <path id="path2259" d="M-3.534-13H-17.062V-62.766h8.9" transform="translate(17.063 62.766)" fill="none" stroke="#000" stroke-linecap="round" stroke-linejoin="round" stroke-miterlimit="10" stroke-width="3.047"/>
              </g>
              <g id="g2261" transform="translate(29.232 37.566)">
                <path id="path2263" d="M-3.534,0V18.24H-17.062" transform="translate(17.063)" fill="none" stroke="#000" stroke-linecap="round" stroke-linejoin="round" stroke-miterlimit="10" stroke-width="3.047"/>
              </g>
              <g id="g2265" transform="translate(33.862 6.04)">
                <path id="path2267" d="M0,0H8.9V23.528" fill="none" stroke="#000" stroke-linecap="round" stroke-linejoin="round" stroke-miterlimit="10" stroke-width="3.047"/>
              </g>
              <g id="g2269" transform="translate(24.4 55.806)">
                <path id="path2271" d="M0,0H0" fill="none" stroke="#000" stroke-linecap="round" stroke-linejoin="round" stroke-miterlimit="10" stroke-width="3.047"/>
              </g>
              <g id="g2273" transform="translate(37.405 16.385)">
                <path id="path2275" d="M-.947-3.941,13.206-18.094a3.2,3.2,0,0,1,4.518,0h0a3.2,3.2,0,0,1,0,4.518L3.571.577-4.573,4.2Z" transform="translate(4.573 19.03)" fill="#ffc15a"/>
              </g>
              <g id="g2277" transform="translate(37.405 31.473)">
                <path id="path2279" d="M-2.127-1.18-6.645-5.7l-3.626,8.144Z" transform="translate(10.271 5.698)" fill="#98a1b3"/>
              </g>
              <g id="g2281" transform="translate(53.631 16.385)">
                <path id="path2283" d="M-1.18-1.83.373-3.383a3.2,3.2,0,0,0,0-4.518,3.2,3.2,0,0,0-4.518,0L-5.7-6.348Z" transform="translate(5.698 8.837)" fill="#ff6977"/>
              </g>
              <g id="g2285" transform="translate(37.405 16.385)">
                <path id="path2287" d="M-4.648-2.6-14.3,7.051l-8.144,3.626,3.626-8.144L-4.664-11.62a3.2,3.2,0,0,1,4.518,0h0a3.2,3.2,0,0,1,0,4.518l-4.5,4.5" transform="translate(22.443 12.556)" fill="none" stroke="#000" stroke-linecap="round" stroke-linejoin="round" stroke-miterlimit="10" stroke-width="3.047"/>
              </g>
              <g id="g2289" transform="translate(41.139 31.581)">
                <path id="path2291" d="M-1.083-1.083-5.228-5.228" transform="translate(5.228 5.228)" fill="none" stroke="#000" stroke-linecap="round" stroke-linejoin="round" stroke-miterlimit="10" stroke-width="3.047"/>
              </g>
              <g id="g2293" transform="translate(53.631 18.874)">
                <path id="path2295" d="M-1.18-1.18-5.7-5.7" transform="translate(5.698 5.698)" fill="none" stroke="#000" stroke-linecap="round" stroke-linejoin="round" stroke-miterlimit="10" stroke-width="3.047"/>
              </g>
              <path id="path2297" d="M22.66-50.465H14.93V-58.2H22.66Z" transform="translate(-3.092 73.898)" fill="#cbe558"/>
              <path id="path2299" d="M22.66-33.707H14.93v-7.731H22.66Z" transform="translate(-3.092 70.428)" fill="#cbe558"/>
              <path id="path2301" d="M22.66-16.949H14.93V-24.68H22.66Z" transform="translate(-3.092 66.957)" fill="#ff6977"/>
              <path id="path2303" d="M22.66-50.465H14.93V-58.2H22.66Z" transform="translate(-3.092 73.898)" fill="none" stroke="#000" stroke-linecap="round" stroke-linejoin="round" stroke-miterlimit="10" stroke-width="3.047"/>
              <path id="path2305" d="M22.66-33.707H14.93v-7.731H22.66Z" transform="translate(-3.092 70.428)" fill="none" stroke="#000" stroke-linecap="round" stroke-linejoin="round" stroke-miterlimit="10" stroke-width="3.047"/>
              <path id="path2307" d="M22.66-16.949H14.93V-24.68H22.66Z" transform="translate(-3.092 66.957)" fill="none" stroke="#000" stroke-linecap="round" stroke-linejoin="round" stroke-miterlimit="10" stroke-width="3.047"/>
              <g id="g2309" transform="translate(26.381 16.842)">
                <path id="path2311" d="M0-.722,2.687,1.965,8.14-3.489" transform="translate(0 3.489)" fill="none" stroke="#000" stroke-linecap="round" stroke-linejoin="round" stroke-miterlimit="10" stroke-width="3.047"/>
              </g>
              <g id="g2313" transform="translate(26.381 30.129)">
                <path id="path2315" d="M0-.722,2.687,1.965,8.14-3.489" transform="translate(0 3.489)" fill="none" stroke="#000" stroke-linecap="round" stroke-linejoin="round" stroke-miterlimit="10" stroke-width="3.047"/>
              </g>
              <g id="g2317" transform="translate(27.725 43.416)">
                <path id="path2319" d="M0-1.424,5.453-6.878" transform="translate(0 6.878)" fill="none" stroke="#000" stroke-linecap="round" stroke-linejoin="round" stroke-miterlimit="10" stroke-width="3.047"/>
              </g>
              <g id="g2321" transform="translate(27.725 43.416)">
                <path id="path2323" d="M0,0,5.453,5.453" fill="none" stroke="#000" stroke-linecap="round" stroke-linejoin="round" stroke-miterlimit="10" stroke-width="3.047"/>
              </g>
            </g>
          </g>
        </g>
      </g>
    </g>
  </g>
</svg>
