<svg xmlns="http://www.w3.org/2000/svg" xmlns:xlink="http://www.w3.org/1999/xlink" width="90" height="90" viewBox="0 0 90 90">
  <defs>
    <clipPath id="clip-path">
      <rect id="Rectangle_411864" data-name="Rectangle 411864" width="90" height="90" fill="#e8bad8" opacity="0.41"/>
    </clipPath>
    <clipPath id="clip-path-2">
      <rect id="Rectangle_412288" data-name="Rectangle 412288" width="61" height="68" transform="translate(17048 -10197)" fill="#fff" stroke="#707070" stroke-width="1" opacity="0"/>
    </clipPath>
  </defs>
  <g id="Group_1204886" data-name="Group 1204886" transform="translate(-17195.187 10207.775)">
    <g id="Group_1204873" data-name="Group 1204873" transform="translate(162)">
      <g id="Group_1204868" data-name="Group 1204868" transform="translate(9909.746 -309.79)">
        <g id="Group_1204572" data-name="Group 1204572">
          <g id="Group_1204571" data-name="Group 1204571" transform="translate(13933.711 -849.514)">
            <g id="Group_1204092" data-name="Group 1204092" transform="translate(-6810.27 -9048.472)">
              <g id="Mask_Group_1099458" data-name="Mask Group 1099458" transform="translate(0 0)" clip-path="url(#clip-path)">
                <g id="Group_1204091" data-name="Group 1204091" transform="translate(0 4.909)">
                  <g id="Group_1204089" data-name="Group 1204089">
                    <ellipse id="Ellipse_12742" data-name="Ellipse 12742" cx="22.428" cy="22.428" rx="22.428" ry="22.428" transform="translate(44.238 34.661)" fill="#ffc94a"/>
                    <ellipse id="Ellipse_12743" data-name="Ellipse 12743" cx="16.311" cy="16.311" rx="16.311" ry="16.311" fill="#ffc94a"/>
                  </g>
                </g>
              </g>
            </g>
          </g>
        </g>
      </g>
      <g id="Mask_Group_1099603" data-name="Mask Group 1099603" clip-path="url(#clip-path-2)">
        <g id="_x31_7_Work_Flow_Planning" transform="translate(17047.818 -10193.682)">
          <g id="Group_1204886-2" data-name="Group 1204886">
            <path id="Path_1288819" data-name="Path 1288819" d="M44.6,13.921v1.633a.981.981,0,0,1-.988.988H41.774a11.688,11.688,0,0,1-.589,2.194l1.6.921A.988.988,0,0,1,43.151,21l-.817,1.415a1,1,0,0,1-1.349.361l-1.6-.931a11.653,11.653,0,0,1-1.6,1.6l.931,1.6a.988.988,0,0,1-.361,1.339l-1.425.817a.974.974,0,0,1-1.339-.361l-.921-1.605a11.313,11.313,0,0,1-2.194.589v1.852a.977.977,0,0,1-.978.978H29.865a.985.985,0,0,1-.988-.978V25.83a11.4,11.4,0,0,1-2.184-.589l-.931,1.605a.969.969,0,0,1-1.339.361l-1.415-.817a.988.988,0,0,1-.361-1.339l.931-1.6a11.646,11.646,0,0,1-1.6-1.6l-1.6.931a.99.99,0,0,1-1.339-.361L18.213,21a.988.988,0,0,1,.361-1.339l1.6-.921a11.689,11.689,0,0,1-.589-2.194H17.738a.979.979,0,0,1-.978-.988V13.921a.977.977,0,0,1,.978-.978H19.59a11.312,11.312,0,0,1,.589-2.194l-1.6-.921a.988.988,0,0,1-.361-1.339l.817-1.425A.99.99,0,0,1,20.369,6.7l1.6.931a11.08,11.08,0,0,1,1.6-1.6l-.931-1.605a1,1,0,0,1,.361-1.348l1.415-.817a.986.986,0,0,1,1.339.361l.931,1.614a10.774,10.774,0,0,1,2.184-.6V1.8a.987.987,0,0,1,.988-.988H31.5a.979.979,0,0,1,.978.988V3.646a10.7,10.7,0,0,1,2.194.6l.921-1.614a.99.99,0,0,1,1.339-.361l1.425.817a1,1,0,0,1,.361,1.348l-.931,1.605a11.578,11.578,0,0,1,1.6,1.6l1.6-.931a1,1,0,0,1,1.349.361l.817,1.425a.988.988,0,0,1-.361,1.339l-1.6.921a11.321,11.321,0,0,1,.589,2.194h1.842A.979.979,0,0,1,44.6,13.921Z" fill="#474747"/>
            <path id="Path_1288820" data-name="Path 1288820" d="M44.6,13.921v1.636a.98.98,0,0,1-.986.986H41.77a11.445,11.445,0,0,1-.587,2.2l1.608.916A.994.994,0,0,1,43.148,21l-.811,1.413a1,1,0,0,1-1.35.364l-1.594-.93a12,12,0,0,1-1.608,1.6l.93,1.608a.987.987,0,0,1-.357,1.336l-1.427.818a.981.981,0,0,1-1.343-.364l-.916-1.6a11.542,11.542,0,0,1-2.2.588v1.853a.982.982,0,0,1-.979.979H29.862a.988.988,0,0,1-.986-.979V25.83a11.544,11.544,0,0,1-2.182-.588l-.93,1.6a.976.976,0,0,1-1.343.364l-1.413-.818a.983.983,0,0,1-.364-1.336l.518-.9A15.1,15.1,0,0,0,40.036,9.173a13.5,13.5,0,0,0-.119-1.846l1.07-.623a1,1,0,0,1,1.35.364l.811,1.42a.994.994,0,0,1-.357,1.343l-1.608.923a10.983,10.983,0,0,1,.587,2.189h1.846a.979.979,0,0,1,.986.979Z" opacity="0.12"/>
            <path id="Path_1288821" data-name="Path 1288821" d="M35.624,14.739A4.942,4.942,0,1,1,30.683,9.8a4.941,4.941,0,0,1,4.941,4.941Z" fill="#e8f1f8"/>
            <path id="Path_1288822" data-name="Path 1288822" d="M13.529,38.708l-2.172,3.762a2.157,2.157,0,0,1-1.868,1.078H5.145a2.157,2.157,0,0,1-1.868-1.078L1.105,38.708a2.157,2.157,0,0,1,0-2.157l2.172-3.761a2.157,2.157,0,0,1,1.868-1.078H9.489a2.157,2.157,0,0,1,1.868,1.078l2.172,3.761A2.156,2.156,0,0,1,13.529,38.708Z" fill="#f14f4a"/>
            <path id="Path_1288823" data-name="Path 1288823" d="M13.528,38.708l-2.17,3.762a2.16,2.16,0,0,1-1.868,1.078H5.144a2.16,2.16,0,0,1-1.868-1.078l-.747-1.3c.21.02.423.027.637.027a7.849,7.849,0,0,0,7.85-7.848,8.093,8.093,0,0,0-.073-1.074,2.155,2.155,0,0,1,.414.512l2.17,3.76a2.152,2.152,0,0,1,0,2.157Z" opacity="0.12"/>
            <path id="Path_1288824" data-name="Path 1288824" d="M25.211,55.707l-2.172,3.762a2.157,2.157,0,0,1-1.868,1.078H16.827a2.157,2.157,0,0,1-1.868-1.078l-2.172-3.762a2.157,2.157,0,0,1,0-2.157l2.172-3.761a2.157,2.157,0,0,1,1.868-1.078h4.345a2.157,2.157,0,0,1,1.868,1.078l2.172,3.761A2.156,2.156,0,0,1,25.211,55.707Z" fill="#fdcf17"/>
            <path id="Path_1288825" data-name="Path 1288825" d="M25.21,55.707l-2.17,3.762a2.16,2.16,0,0,1-1.868,1.078H16.827a2.16,2.16,0,0,1-1.868-1.078l-.747-1.3c.21.02.423.027.637.027a7.849,7.849,0,0,0,7.85-7.848,8.094,8.094,0,0,0-.073-1.074,2.155,2.155,0,0,1,.414.512l2.17,3.76a2.152,2.152,0,0,1,0,2.157Z" opacity="0.12"/>
            <path id="Path_1288826" data-name="Path 1288826" d="M48.576,55.707,46.4,59.469a2.157,2.157,0,0,1-1.868,1.078H40.192a2.157,2.157,0,0,1-1.868-1.078l-2.172-3.762a2.157,2.157,0,0,1,0-2.157l2.172-3.761a2.157,2.157,0,0,1,1.868-1.078h4.345A2.157,2.157,0,0,1,46.4,49.79l2.172,3.761a2.156,2.156,0,0,1,0,2.157Z" fill="#e77c6a"/>
            <path id="Path_1288827" data-name="Path 1288827" d="M48.575,55.707,46.4,59.469a2.16,2.16,0,0,1-1.868,1.078H40.192a2.16,2.16,0,0,1-1.868-1.078l-.747-1.3c.21.02.423.027.637.027a7.849,7.849,0,0,0,7.85-7.848,8.094,8.094,0,0,0-.073-1.074,2.155,2.155,0,0,1,.414.512l2.17,3.76a2.152,2.152,0,0,1,0,2.157Z" opacity="0.12"/>
            <path id="Path_1288828" data-name="Path 1288828" d="M36.894,38.708l-2.172,3.762a2.157,2.157,0,0,1-1.868,1.078H28.51a2.157,2.157,0,0,1-1.868-1.078L24.47,38.708a2.157,2.157,0,0,1,0-2.157l2.172-3.761a2.157,2.157,0,0,1,1.868-1.078h4.345a2.157,2.157,0,0,1,1.868,1.078l2.172,3.761a2.156,2.156,0,0,1,0,2.157Z" fill="#475da9"/>
            <path id="Path_1288829" data-name="Path 1288829" d="M36.893,38.708l-2.17,3.762a2.16,2.16,0,0,1-1.868,1.078H28.509a2.16,2.16,0,0,1-1.868-1.078l-.747-1.3c.21.02.423.027.637.027a7.849,7.849,0,0,0,7.85-7.848,8.093,8.093,0,0,0-.073-1.074,2.155,2.155,0,0,1,.414.512l2.17,3.76a2.152,2.152,0,0,1,0,2.157Z" opacity="0.12"/>
            <path id="Path_1288830" data-name="Path 1288830" d="M60.258,38.708l-2.172,3.762a2.157,2.157,0,0,1-1.868,1.078H51.874a2.157,2.157,0,0,1-1.868-1.078l-2.172-3.762a2.157,2.157,0,0,1,0-2.157l2.172-3.761a2.157,2.157,0,0,1,1.868-1.078h4.345a2.157,2.157,0,0,1,1.868,1.078l2.172,3.761a2.156,2.156,0,0,1,0,2.157Z" fill="#0e9c4a"/>
            <path id="Path_1288831" data-name="Path 1288831" d="M60.258,38.708l-2.17,3.762a2.16,2.16,0,0,1-1.868,1.078H51.874a2.16,2.16,0,0,1-1.868-1.078l-.747-1.3c.21.02.423.027.637.027a7.849,7.849,0,0,0,7.85-7.848,8.093,8.093,0,0,0-.073-1.074,2.155,2.155,0,0,1,.414.512l2.17,3.76a2.152,2.152,0,0,1,0,2.157Z" opacity="0.12"/>
            <path id="Path_1288832" data-name="Path 1288832" d="M15.485,37.631a.635.635,0,0,0,.635.635h5.757a.635.635,0,1,0,0-1.271H16.12A.635.635,0,0,0,15.485,37.631Z"/>
            <path id="Path_1288833" data-name="Path 1288833" d="M39.485,37a.635.635,0,0,0,0,1.271h5.757a.635.635,0,1,0,0-1.271Z"/>
            <path id="Path_1288834" data-name="Path 1288834" d="M54.046,55.265a.635.635,0,0,0,.635-.635v-8.97a.635.635,0,0,0-1.271,0v8.335h-2.5a.635.635,0,1,0,0,1.271Z"/>
            <path id="Path_1288835" data-name="Path 1288835" d="M7.317,45.024a.635.635,0,0,0-.635.635v8.97a.635.635,0,0,0,.635.635h3.138a.635.635,0,0,0,0-1.271h-2.5V45.659a.635.635,0,0,0-.635-.635Z"/>
            <path id="Path_1288836" data-name="Path 1288836" d="M33.517,54.63a.635.635,0,0,0-.635-.635h-4.4a.635.635,0,1,0,0,1.271h4.4A.635.635,0,0,0,33.517,54.63Z"/>
            <path id="Path_1288837" data-name="Path 1288837" d="M13.111,14.1H10.455a.635.635,0,1,0,0,1.271h2.656a.635.635,0,0,0,0-1.271Z"/>
            <path id="Path_1288838" data-name="Path 1288838" d="M13.488,12.341a.635.635,0,0,0,0-.9l-.956-.956a.635.635,0,0,0-.9.9l.956.956A.635.635,0,0,0,13.488,12.341Z"/>
            <path id="Path_1288839" data-name="Path 1288839" d="M12.591,17.137l-.956.956a.635.635,0,0,0,.9.9l.956-.956a.635.635,0,0,0-.9-.9Z"/>
            <path id="Path_1288840" data-name="Path 1288840" d="M51.544,14.739a.635.635,0,0,0-.635-.635H48.253a.635.635,0,1,0,0,1.271h2.656A.635.635,0,0,0,51.544,14.739Z"/>
            <path id="Path_1288841" data-name="Path 1288841" d="M48.773,12.341l.956-.956a.635.635,0,0,0-.9-.9l-.956.956a.635.635,0,0,0,.9.9Z"/>
            <path id="Path_1288842" data-name="Path 1288842" d="M47.874,17.137a.635.635,0,0,0,0,.9l.956.956a.635.635,0,0,0,.9-.9l-.956-.956A.635.635,0,0,0,47.874,17.137Z"/>
            <path id="Path_1288843" data-name="Path 1288843" d="M17.738,12.308a1.616,1.616,0,0,0-1.614,1.614v1.633a1.621,1.621,0,0,0,1.614,1.623h1.325a12.231,12.231,0,0,0,.342,1.27l-1.147.658a1.622,1.622,0,0,0-.6,2.208l.82,1.421a1.632,1.632,0,0,0,2.2.587l1.148-.666a12,12,0,0,0,.928.928L22.1,24.736a1.618,1.618,0,0,0,.6,2.2l1.414.816a1.6,1.6,0,0,0,2.208-.591l.666-1.149a12.041,12.041,0,0,0,1.263.341v1.325A1.62,1.62,0,0,0,29.865,29.3H31.5a1.616,1.616,0,0,0,1.614-1.613V26.358a11.967,11.967,0,0,0,1.27-.341l.659,1.149a1.608,1.608,0,0,0,2.2.593l1.424-.816a1.622,1.622,0,0,0,.6-2.21L38.6,23.584a12.161,12.161,0,0,0,.928-.927l1.148.67a1.631,1.631,0,0,0,2.209-.6l.818-1.418a1.618,1.618,0,0,0-.6-2.205l-1.147-.659a12.245,12.245,0,0,0,.342-1.27h1.316a1.625,1.625,0,0,0,1.623-1.623V13.921a1.62,1.62,0,0,0-1.623-1.614H42.3a11.841,11.841,0,0,0-.341-1.271l1.145-.657a1.619,1.619,0,0,0,.6-2.207l-.816-1.424a1.636,1.636,0,0,0-2.22-.594l-1.141.666A12.285,12.285,0,0,0,38.6,5.9l.669-1.154a1.626,1.626,0,0,0-.6-2.211l-1.425-.817a1.632,1.632,0,0,0-2.206.6l-.656,1.149a11.423,11.423,0,0,0-1.271-.346V1.8A1.621,1.621,0,0,0,31.5.181H29.865A1.625,1.625,0,0,0,28.242,1.8V3.12a11.507,11.507,0,0,0-1.265.345l-.663-1.15a1.627,1.627,0,0,0-2.208-.6l-1.421.82A1.628,1.628,0,0,0,22.1,4.753L22.762,5.9a11.784,11.784,0,0,0-.926.922l-1.152-.668a1.633,1.633,0,0,0-2.205.6l-.817,1.425a1.622,1.622,0,0,0,.6,2.206l1.146.658a12.031,12.031,0,0,0-.341,1.271H17.738ZM20.5,10.2l-1.607-.922a.352.352,0,0,1-.125-.471l.812-1.417a.354.354,0,0,1,.474-.135l1.6.931a.637.637,0,0,0,.81-.147,10.411,10.411,0,0,1,1.512-1.5.636.636,0,0,0,.151-.813l-.926-1.6a.36.36,0,0,1,.124-.488l1.407-.813a.35.35,0,0,1,.478.124l.931,1.614a.637.637,0,0,0,.783.274,10.144,10.144,0,0,1,2.055-.563.635.635,0,0,0,.532-.627V1.8a.352.352,0,0,1,.352-.352H31.5a.344.344,0,0,1,.343.352V3.646a.635.635,0,0,0,.534.627,10.13,10.13,0,0,1,2.063.563.636.636,0,0,0,.784-.277l.916-1.606a.353.353,0,0,1,.477-.133l1.417.812a.36.36,0,0,1,.135.483l-.931,1.605a.636.636,0,0,0,.151.813A11.026,11.026,0,0,1,38.9,8.042a.635.635,0,0,0,.807.141L41.3,7.258a.362.362,0,0,1,.487.123L42.6,8.8a.355.355,0,0,1-.126.473l-1.6.921a.636.636,0,0,0-.278.776,10.68,10.68,0,0,1,.556,2.071.636.636,0,0,0,.627.533h1.842a.344.344,0,0,1,.352.343v1.633a.344.344,0,0,1-.352.352H41.774a.635.635,0,0,0-.627.532,11.106,11.106,0,0,1-.557,2.075.635.635,0,0,0,.279.774l1.606.922a.354.354,0,0,1,.126.469L41.782,22.1a.359.359,0,0,1-.477.128l-1.6-.931a.636.636,0,0,0-.811.145,10.964,10.964,0,0,1-1.518,1.518.636.636,0,0,0-.146.81l.929,1.6a.352.352,0,0,1-.125.472l-1.433.821a.339.339,0,0,1-.464-.13l-.921-1.6a.636.636,0,0,0-.776-.278,10.745,10.745,0,0,1-2.071.556.635.635,0,0,0-.534.627v1.852a.343.343,0,0,1-.343.343H29.865a.347.347,0,0,1-.352-.343V25.83a.635.635,0,0,0-.532-.627,10.794,10.794,0,0,1-2.062-.556.636.636,0,0,0-.775.275l-.936,1.614a.333.333,0,0,1-.467.12l-1.417-.818a.354.354,0,0,1-.127-.468l.931-1.6a.636.636,0,0,0-.146-.81,10.937,10.937,0,0,1-1.517-1.518.635.635,0,0,0-.81-.146l-1.6.929a.353.353,0,0,1-.474-.127l-.815-1.413a.351.351,0,0,1,.125-.472l1.605-.921a.635.635,0,0,0,.279-.774,11.11,11.11,0,0,1-.557-2.075.635.635,0,0,0-.627-.532H17.738a.344.344,0,0,1-.343-.352V13.922a.343.343,0,0,1,.343-.343H19.59a.636.636,0,0,0,.627-.533,10.688,10.688,0,0,1,.556-2.071A.636.636,0,0,0,20.5,10.2Z"/>
            <path id="Path_1288844" data-name="Path 1288844" d="M26.091,42.788a2.8,2.8,0,0,0,2.418,1.4h4.344a2.8,2.8,0,0,0,2.418-1.4l2.173-3.762h0a2.8,2.8,0,0,0,0-2.792l-2.172-3.76a2.8,2.8,0,0,0-2.418-1.4H28.51a2.8,2.8,0,0,0-2.418,1.4l-2.172,3.761a2.8,2.8,0,0,0,0,2.792ZM25.02,36.869l2.172-3.761a1.525,1.525,0,0,1,1.317-.76h4.344a1.524,1.524,0,0,1,1.317.76l2.172,3.761a1.526,1.526,0,0,1,0,1.522l-2.173,3.762a1.524,1.524,0,0,1-1.317.76H28.51a1.525,1.525,0,0,1-1.317-.76L25.02,38.391A1.524,1.524,0,0,1,25.02,36.869Z"/>
            <path id="Path_1288845" data-name="Path 1288845" d="M37.774,59.787a2.8,2.8,0,0,0,2.418,1.4h4.344a2.8,2.8,0,0,0,2.418-1.4l2.173-3.762a2.8,2.8,0,0,0,0-2.792l-2.171-3.761a2.8,2.8,0,0,0-2.418-1.4H40.192a2.8,2.8,0,0,0-2.418,1.4L35.6,53.232a2.8,2.8,0,0,0,0,2.792ZM36.7,53.868l2.172-3.761a1.525,1.525,0,0,1,1.317-.76h4.344a1.525,1.525,0,0,1,1.317.76l2.171,3.761a1.524,1.524,0,0,1,0,1.522l-2.173,3.762a1.524,1.524,0,0,1-1.317.76H40.192a1.525,1.525,0,0,1-1.317-.76L36.7,55.389a1.524,1.524,0,0,1,0-1.522Z"/>
            <path id="Path_1288846" data-name="Path 1288846" d="M2.726,32.473.555,36.234a2.8,2.8,0,0,0,0,2.792l2.172,3.762a2.8,2.8,0,0,0,2.418,1.4H9.489a2.8,2.8,0,0,0,2.418-1.4l2.172-3.762a2.8,2.8,0,0,0,0-2.792l-2.172-3.761a2.8,2.8,0,0,0-2.418-1.4H5.144A2.8,2.8,0,0,0,2.726,32.473Zm8.079.635,2.172,3.761a1.524,1.524,0,0,1,0,1.522l-2.172,3.762a1.525,1.525,0,0,1-1.317.76H5.145a1.525,1.525,0,0,1-1.317-.76L1.655,38.391a1.524,1.524,0,0,1,0-1.522l2.172-3.761a1.524,1.524,0,0,1,1.317-.76H9.489a1.524,1.524,0,0,1,1.317.76Z"/>
            <path id="Path_1288847" data-name="Path 1288847" d="M60.808,36.234l-2.171-3.761a2.8,2.8,0,0,0-2.418-1.4H51.874a2.8,2.8,0,0,0-2.418,1.4l-2.172,3.761a2.8,2.8,0,0,0,0,2.792l2.172,3.762a2.8,2.8,0,0,0,2.418,1.4h4.344a2.8,2.8,0,0,0,2.418-1.4l2.172-3.762A2.8,2.8,0,0,0,60.808,36.234Zm-1.1,2.157-2.172,3.762a1.525,1.525,0,0,1-1.317.76H51.874a1.525,1.525,0,0,1-1.317-.76l-2.172-3.762a1.524,1.524,0,0,1,0-1.522l2.172-3.761a1.525,1.525,0,0,1,1.317-.76h4.344a1.525,1.525,0,0,1,1.317.76l2.172,3.761a1.524,1.524,0,0,1,0,1.521Z"/>
            <path id="Path_1288848" data-name="Path 1288848" d="M30.683,20.317a5.577,5.577,0,1,0-5.578-5.578A5.583,5.583,0,0,0,30.683,20.317Zm0-9.884a4.306,4.306,0,1,1-4.307,4.306,4.31,4.31,0,0,1,4.307-4.306Z"/>
            <path id="Path_1288849" data-name="Path 1288849" d="M21.172,48.076H16.827a2.8,2.8,0,0,0-2.418,1.4l-2.172,3.761a2.8,2.8,0,0,0,0,2.792l2.172,3.762a2.8,2.8,0,0,0,2.418,1.4h4.344a2.8,2.8,0,0,0,2.418-1.4l2.172-3.762a2.8,2.8,0,0,0,0-2.792l-2.172-3.76a2.8,2.8,0,0,0-2.418-1.4Zm3.489,5.792a1.524,1.524,0,0,1,0,1.522l-2.172,3.762a1.525,1.525,0,0,1-1.317.76H16.827a1.525,1.525,0,0,1-1.317-.76l-2.172-3.762a1.524,1.524,0,0,1,0-1.522l2.172-3.761a1.525,1.525,0,0,1,1.317-.76h4.344a1.524,1.524,0,0,1,1.317.76Z"/>
          </g>
        </g>
      </g>
    </g>
  </g>
</svg>
