<svg xmlns="http://www.w3.org/2000/svg" xmlns:xlink="http://www.w3.org/1999/xlink" width="90" height="90" viewBox="0 0 90 90">
  <defs>
    <clipPath id="clip-path">
      <rect id="Rectangle_411864" data-name="Rectangle 411864" width="90" height="90" fill="#e8bad8" opacity="0.41"/>
    </clipPath>
    <clipPath id="clip-path-2">
      <rect id="Rectangle_412288" data-name="Rectangle 412288" width="61" height="68" transform="translate(17048 -10197)" fill="#fff" stroke="#707070" stroke-width="1" opacity="0"/>
    </clipPath>
  </defs>
  <g id="Group_1204892" data-name="Group 1204892" transform="translate(-17649.461 10095.775)">
    <g id="Group_1204876" data-name="Group 1204876" transform="translate(616.273 112)">
      <g id="Group_1204868" data-name="Group 1204868" transform="translate(9909.746 -309.79)">
        <g id="Group_1204572" data-name="Group 1204572">
          <g id="Group_1204571" data-name="Group 1204571" transform="translate(13933.711 -849.514)">
            <g id="Group_1204092" data-name="Group 1204092" transform="translate(-6810.27 -9048.472)">
              <g id="Mask_Group_1099458" data-name="Mask Group 1099458" transform="translate(0 0)" clip-path="url(#clip-path)">
                <g id="Group_1204091" data-name="Group 1204091" transform="translate(0 4.909)">
                  <g id="Group_1204089" data-name="Group 1204089">
                    <ellipse id="Ellipse_12742" data-name="Ellipse 12742" cx="22.428" cy="22.428" rx="22.428" ry="22.428" transform="translate(44.238 34.661)" fill="#ffc94a"/>
                    <ellipse id="Ellipse_12743" data-name="Ellipse 12743" cx="16.311" cy="16.311" rx="16.311" ry="16.311" fill="#ffc94a"/>
                  </g>
                </g>
              </g>
            </g>
          </g>
        </g>
      </g>
      <g id="Mask_Group_1099606" data-name="Mask Group 1099606" clip-path="url(#clip-path-2)">
        <g id="coherencia_2_" data-name="coherencia (2)" transform="translate(17047.012 -10194.488)">
          <g id="Group_1204894" data-name="Group 1204894">
            <g id="Group_1204892-2" data-name="Group 1204892">
              <circle id="Ellipse_12796" data-name="Ellipse 12796" cx="10.616" cy="10.616" r="10.616" transform="translate(5.246 29.288)" fill="#c6ea94"/>
            </g>
            <g id="Group_1204893" data-name="Group 1204893">
              <circle id="Ellipse_12797" data-name="Ellipse 12797" cx="6.155" cy="6.155" r="6.155" transform="translate(46.315 11.517)" fill="#f76c82"/>
            </g>
          </g>
          <path id="Path_1288878" data-name="Path 1288878" d="M37.923,25.254a79.6,79.6,0,0,1,5.1-10.758,14.647,14.647,0,0,1,4.035-4.789,9.834,9.834,0,0,1,13.574,2.957,9.834,9.834,0,0,1-3.571,13.426,14.645,14.645,0,0,1-6.1,1.4,79.6,79.6,0,0,1-11.9-.374,129.545,129.545,0,0,1-8.372,17.716C28.624,48.27,26.4,51.144,24.336,52.4,16.92,56.932,7.407,54.851,3.1,47.8s-1.814-16.468,5.6-21c2.063-1.26,5.636-1.926,9.637-2.191a129.56,129.56,0,0,1,19.584.647Zm-.643,1.671a125.825,125.825,0,0,0-18.826-.592c-3.669.244-6.959.787-8.851,1.942C3.02,32.293.751,40.632,4.575,46.894s12.278,8.053,18.861,4.034c1.892-1.155,3.878-3.834,5.771-6.986A125.826,125.826,0,0,0,37.28,26.925Zm-21.417,1.5A11.48,11.48,0,1,1,4.382,39.9,11.486,11.486,0,0,1,15.862,28.423Zm0,1.729A9.752,9.752,0,1,0,25.614,39.9,9.756,9.756,0,0,0,15.862,30.152Zm.864,5.957V46.553a.864.864,0,1,1-1.729,0V36.11l-.635.952a.864.864,0,1,1-1.438-.959l2.219-3.328a.864.864,0,0,1,1.438,0L18.8,36.1a.864.864,0,1,1-1.438.959ZM39.706,25.443a75.845,75.845,0,0,0,11.141.322,12.907,12.907,0,0,0,5.318-1.152,8.1,8.1,0,0,0,3-11.05,8.1,8.1,0,0,0-11.2-2.382,12.9,12.9,0,0,0-3.454,4.2A75.864,75.864,0,0,0,39.706,25.443ZM52.47,10.652a7.02,7.02,0,1,1-7.02,7.02,7.023,7.023,0,0,1,7.02-7.02Zm0,1.729a5.291,5.291,0,1,0,5.291,5.291,5.293,5.293,0,0,0-5.291-5.291Zm-.864,6.26v-4.16a.864.864,0,1,1,1.729,0v4.16l.28-.306A.864.864,0,0,1,54.889,19.5l-1.782,1.943a.864.864,0,0,1-1.274,0L50.051,19.5a.864.864,0,0,1,1.274-1.169Z" fill-rule="evenodd"/>
        </g>
      </g>
    </g>
  </g>
</svg>
