<svg xmlns="http://www.w3.org/2000/svg" xmlns:xlink="http://www.w3.org/1999/xlink" width="90" height="90" viewBox="0 0 90 90">
  <defs>
    <clipPath id="clip-path">
      <rect id="Rectangle_411866" data-name="Rectangle 411866" width="90" height="90" transform="translate(0 0)" fill="#e8bad8" opacity="0.41"/>
    </clipPath>
    <clipPath id="clip-path-2">
      <rect id="Rectangle_412121" data-name="Rectangle 412121" width="62" height="59" transform="translate(7328 -9783)" fill="#fff" stroke="#707070" stroke-width="1" opacity="0"/>
    </clipPath>
  </defs>
  <g id="Group_1204579" data-name="Group 1204579" transform="translate(-7314.077 9798.967)">
    <g id="Group_1204591" data-name="Group 1204591">
      <g id="Group_1204579-2" data-name="Group 1204579" transform="translate(13821.348 -764.495)">
        <g id="Mask_Group_1099459" data-name="Mask Group 1099459" transform="translate(-6507.27 -9034.472)" clip-path="url(#clip-path)">
          <g id="Group_1204095" data-name="Group 1204095" transform="translate(0 4.909)">
            <g id="Group_1204093" data-name="Group 1204093" transform="translate(0)">
              <ellipse id="Ellipse_12744" data-name="Ellipse 12744" cx="22.428" cy="22.428" rx="22.428" ry="22.428" transform="translate(44.238 34.661)" fill="#ffc94a"/>
              <ellipse id="Ellipse_12745" data-name="Ellipse 12745" cx="16.311" cy="16.311" rx="16.311" ry="16.311" fill="#ffc94a"/>
            </g>
          </g>
        </g>
      </g>
      <g id="Mask_Group_1099544" data-name="Mask Group 1099544" clip-path="url(#clip-path-2)">
        <g id="estudios-de-viabilidad" transform="translate(7326.292 -9786.073)">
          <g id="Group_1204590" data-name="Group 1204590">
            <path id="Path_1280891" data-name="Path 1280891" d="M28.327,59.5C26.186,54.52,14.68,55.677,9.216,57.169c-1.582.432-4.177,1.226-4.177-1.316V34.231a1.94,1.94,0,0,1,1.452-1.843c8.979-2.721,17.3-2.923,26.215-2.884,8.918-.039,17.24.163,26.219,2.884a1.94,1.94,0,0,1,1.452,1.843V55.854c0,2.541-2.6,1.748-4.177,1.316-5.464-1.493-16.973-2.649-19.111,2.336-.959,2.238-7.8,2.238-8.762,0Z" fill="#d77e26" fill-rule="evenodd"/>
            <path id="Path_1280892" data-name="Path 1280892" d="M10.25,25.779c7.54-3.277,17.427-3.173,22.618,3.334V56.186c-5.191-6.507-15.077-6.615-22.618-3.334Z" fill="#ba9570" fill-rule="evenodd"/>
            <path id="Path_1280893" data-name="Path 1280893" d="M10.25,25.779c6.063-2.635,13.65-3.082,19.085.23a14.638,14.638,0,0,1,.479,5.079c-.623,8.077-7.317,14.919-14.947,15.283a12.277,12.277,0,0,1-4.617-.638Z" fill="#fc9" fill-rule="evenodd"/>
            <path id="Path_1280894" data-name="Path 1280894" d="M55.49,25.779C47.95,22.5,38.06,22.606,32.869,29.113V56.186c5.191-6.507,15.081-6.615,22.621-3.334Z" fill="#ba9570" fill-rule="evenodd"/>
            <path id="Path_1280895" data-name="Path 1280895" d="M55.49,25.779c-6.067-2.635-13.65-3.082-19.089.23a14.548,14.548,0,0,0-.476,5.079c.623,8.077,7.314,14.919,14.944,15.283a12.29,12.29,0,0,0,4.621-.638Z" fill="#fc9" fill-rule="evenodd"/>
            <path id="Path_1280896" data-name="Path 1280896" d="M48.432,25.526h2.213a.9.9,0,0,1,.9.9v2.866a.9.9,0,0,1-.9.9H48.432a.9.9,0,0,1-.9-.9V26.427a.9.9,0,0,1,.9-.9Z" fill="#ffebd7" fill-rule="evenodd"/>
            <path id="Path_1280897" data-name="Path 1280897" d="M32.767,9.518a12.235,12.235,0,0,1,6.3,22.8,4.135,4.135,0,0,0-2.1,3.7l.033,2.7-7.782.094-.033-2.7A4.133,4.133,0,0,0,27,32.463,12.233,12.233,0,0,1,32.767,9.518Z" fill="#fb8500" fill-rule="evenodd"/>
            <path id="Path_1280898" data-name="Path 1280898" d="M39.966,31.748c-.292.2-.591.4-.9.577a4.135,4.135,0,0,0-2.1,3.7l.008.45a12.247,12.247,0,0,1-2.422,1.853,4.5,4.5,0,0,0-.623.436l-4.711.057-.033-2.7A4.133,4.133,0,0,0,27,32.465a12.239,12.239,0,0,1-5.66-14.7A12.242,12.242,0,0,1,39.966,31.748Z" fill="#ffc500" fill-rule="evenodd"/>
            <path id="Path_1280899" data-name="Path 1280899" d="M32.63,49.031l1.2-.014a3.2,3.2,0,1,0-.072-6.391l-1.2.014a3.2,3.2,0,1,0,.076,6.391Z" fill="gray" fill-rule="evenodd"/>
            <path id="Path_1280900" data-name="Path 1280900" d="M32.63,49.031l1.2-.014a3.205,3.205,0,0,0,2.591-1.381A3.186,3.186,0,0,0,33.8,46.317l-1.2.014a3.188,3.188,0,0,0-2.588,1.381A3.213,3.213,0,0,0,32.63,49.031Z" fill="#989898" fill-rule="evenodd"/>
            <path id="Path_1280901" data-name="Path 1280901" d="M30.659,38.8l4.9-.057a3.12,3.12,0,0,1,.075,6.24l-4.9.057a3.12,3.12,0,0,1-.075-6.24Z" fill="gray" fill-rule="evenodd"/>
            <path id="Path_1280902" data-name="Path 1280902" d="M38.113,43.711a3.135,3.135,0,0,1-2.476,1.275l-4.9.057a3.117,3.117,0,0,1-2.505-1.218A3.128,3.128,0,0,1,30.7,42.55l4.906-.057A3.123,3.123,0,0,1,38.113,43.711Z" fill="#989898" fill-rule="evenodd"/>
            <path id="Path_1280903" data-name="Path 1280903" d="M28.06,36.74l10.053-.12a2.1,2.1,0,0,1,.051,4.192l-10.053.12a2.1,2.1,0,1,1-.051-4.192Z" fill="gray" fill-rule="evenodd"/>
            <path id="Path_1280904" data-name="Path 1280904" d="M39.962,39.742a2.1,2.1,0,0,1-1.8,1.071l-10.053.12A2.108,2.108,0,0,1,26.284,39.9a2.109,2.109,0,0,1,1.8-1.071l10.053-.12A2.1,2.1,0,0,1,39.962,39.742Z" fill="#989898" fill-rule="evenodd"/>
            <path id="Path_1280905" data-name="Path 1280905" d="M14.586,32.919h8.6v8.69h-8.6Z" fill="#9ff" fill-rule="evenodd"/>
            <path id="Path_1280906" data-name="Path 1280906" d="M44.233,32.919h8.6v8.69h-8.6Z" fill="#9ff" fill-rule="evenodd"/>
          </g>
          <path id="Path_1280907" data-name="Path 1280907" d="M37.518,15.7a.889.889,0,0,1,.844-1.564l.029.018c.018.008.033.018.051.025a6.857,6.857,0,0,1,3.391,4.542.889.889,0,1,1-1.738.375,5.083,5.083,0,0,0-.894-1.957,5.154,5.154,0,0,0-1.611-1.4l-.039-.018Z" fill="#fff"/>
          <path id="Path_1280908" data-name="Path 1280908" d="M18.042,14.529a.887.887,0,1,1-.89,1.535l-2.375-1.369a.889.889,0,0,1,.89-1.539Zm6.758-6a.886.886,0,1,1-1.536.882L21.892,7.034a.886.886,0,1,1,1.536-.882Zm23.581,7.537a.887.887,0,1,1-.89-1.535l2.375-1.373a.889.889,0,0,1,.89,1.539ZM42.272,9.41a.887.887,0,1,1-1.539-.882l1.373-2.375a.885.885,0,1,1,1.535.882Zm-8.615-2.7a.89.89,0,0,1-1.78,0V3.964a.89.89,0,0,1,1.78,0ZM49.319,35.29a.891.891,0,0,1,1.258,1.261l-.847.847.847.847A.889.889,0,1,1,49.319,39.5l-.847-.847-.847.847a.889.889,0,0,1-1.258-1.258l.847-.847-.847-.847a.891.891,0,0,1,1.258-1.261l.847.851Zm-5.083-3.262h8.6a.89.89,0,0,1,.89.89v8.69a.892.892,0,0,1-.89.89h-8.6a.89.89,0,0,1-.89-.89v-8.69a.888.888,0,0,1,.89-.89Zm7.706,1.78H45.127v6.91h6.816ZM16.461,38.426a.886.886,0,1,1,1.194-1.308l.635.577,2.12-2.819a.887.887,0,1,1,1.417,1.067l-2.7,3.6h0a.884.884,0,0,1-1.3.122Zm-1.874-6.4h8.6a.888.888,0,0,1,.89.89v8.69a.889.889,0,0,1-.89.89h-8.6a.893.893,0,0,1-.89-.89v-8.69a.89.89,0,0,1,.89-.89Zm7.707,1.78H15.478v6.91h6.816Zm7.977,2.015v-9.66c0-1.637-3.122-1.637-3.122,0a1.367,1.367,0,0,0,1.214,1.214.887.887,0,1,1-.322,1.745c-3.187-.584-3.7-4.672-.627-5.745,1.994-.7,4.635.306,4.635,2.786v9.642l1.568-.018V26.164c0-4,6.686-4,6.686,0a3.132,3.132,0,0,1-2.653,2.955.888.888,0,0,1-.331-1.745c1.7-.328,1.611-2.436-.36-2.436-.753,0-1.56.364-1.56,1.226v9.6l.688-.011a5.012,5.012,0,0,1,2.534-4.2,11.346,11.346,0,1,0-11.189.128,5.005,5.005,0,0,1,2.631,4.142ZM34.6,37.547l-6.528.079a1.207,1.207,0,0,0-1.189,1.232h0A1.221,1.221,0,0,0,28.1,40.045l9.973-.12a.715.715,0,0,1,.09,0v0a1.209,1.209,0,0,0-.039-2.419Zm-6.546-1.7.234,0a3.23,3.23,0,0,0-1.709-2.605,13.135,13.135,0,0,1-6.488-8.694,24.584,24.584,0,0,0-8.949,1.817V51.533A25.125,25.125,0,0,1,23.37,50.07a16.2,16.2,0,0,1,8.611,3.875V49.871a4.086,4.086,0,0,1-3.435-4.566,4.016,4.016,0,0,1-1.831-3.821A2.986,2.986,0,0,1,25.1,38.859h0a3,3,0,0,1,2.951-3.007Zm9.812-.114.238,0a2.989,2.989,0,0,1,3.017,2.959h0a2.992,2.992,0,0,1-1.55,2.635,4.034,4.034,0,0,1-1.745,3.864A4.087,4.087,0,0,1,33.846,49.9h-.083v4.041a16.175,16.175,0,0,1,8.611-3.875A25.113,25.113,0,0,1,54.6,51.533V26.366a24.469,24.469,0,0,0-8.867-1.817,13.136,13.136,0,0,1-6.214,8.542A3.235,3.235,0,0,0,37.864,35.738ZM37.824,41.7l-9.358.112a2.245,2.245,0,0,0,2.256,2.344l4.9-.057A2.243,2.243,0,0,0,37.824,41.7ZM36.105,45.84c-.151.018-.3.029-.458.033l-4.9.057c-.155,0-.306-.008-.458-.022v.018a2.3,2.3,0,0,0,.7,1.554,2.341,2.341,0,0,0,1.8.66c.955-.055,1.8.173,2.66-.71a2.306,2.306,0,0,0,.664-1.591ZM19.83,22.775a13.121,13.121,0,1,1,26.161,0,25.451,25.451,0,0,1,4.47.5,27.017,27.017,0,0,1,5.316,1.658.889.889,0,0,1,.6.843v4.985l2.8.778a2.832,2.832,0,0,1,2.087,2.689V55.849c0,2.087-1.171,2.674-2.627,2.674a10.606,10.606,0,0,1-2.674-.5A35.856,35.856,0,0,0,43.6,56.938c-2.717.332-4.953,1.193-5.692,2.912s-3.377,2.224-5.2,2.224-4.458-.493-5.2-2.224-2.974-2.581-5.692-2.912A35.862,35.862,0,0,0,9.449,58.022a10.606,10.606,0,0,1-2.674.5v0c-1.452,0-2.627-.587-2.627-2.67V34.231a2.832,2.832,0,0,1,2.087-2.689l3.126-.861v-4.9a.888.888,0,0,1,.6-.843,26.871,26.871,0,0,1,5.364-1.668,25.117,25.117,0,0,1,4.505-.492Zm36.55,9.819V52.852h0a.89.89,0,0,1-1.24.811A23.588,23.588,0,0,0,42.63,51.828,13.89,13.89,0,0,0,33.6,56.7a.886.886,0,0,1-1.452,0,13.887,13.887,0,0,0-9.033-4.87A23.588,23.588,0,0,0,10.6,53.663a.89.89,0,0,1-1.24-.811h0V32.516l-2.609.721a1.055,1.055,0,0,0-.821.994V55.85c0,.7.379.9.847.9v0a9.247,9.247,0,0,0,2.21-.432,37.893,37.893,0,0,1,13.048-1.139c3.3.4,6.073,1.568,7.112,3.983a1.567,1.567,0,0,0,.861.67,8.042,8.042,0,0,0,5.4,0,1.593,1.593,0,0,0,.865-.67c1.035-2.415,3.8-3.579,7.108-3.983a37.887,37.887,0,0,1,13.051,1.139,9.181,9.181,0,0,0,2.206.432c.469,0,.847-.195.847-.894V34.231a1.051,1.051,0,0,0-.821-.994Z"/>
        </g>
      </g>
    </g>
  </g>
</svg>
