<svg xmlns="http://www.w3.org/2000/svg" xmlns:xlink="http://www.w3.org/1999/xlink" width="76.826" height="76.826" viewBox="0 0 76.826 76.826">
  <defs>
    <clipPath id="clip-path">
      <rect id="Rectángulo_411851" data-name="Rectángulo 411851" width="51" height="51" transform="translate(-6833 -11215)" fill="#fff" stroke="#707070" stroke-width="1" opacity="0"/>
    </clipPath>
  </defs>
  <g id="Grupo_1204063" data-name="Grupo 1204063" transform="translate(6845.798 11227.994)">
    <g id="Grupo_1204065" data-name="Grupo 1204065">
      <g id="Grupo_1204064" data-name="Grupo 1204064" transform="translate(-6845.798 -11227.994)">
        <g id="Grupo_1200255" data-name="Grupo 1200255" transform="translate(0)">
          <g id="Grupo_1187152" data-name="Grupo 1187152" transform="translate(0 0)">
            <g id="Grupo_1185946" data-name="Grupo 1185946">
              <g id="Grupo_1184280" data-name="Grupo 1184280">
                <g id="Grupo_1182168" data-name="Grupo 1182168">
                  <g id="Grupo_1178877" data-name="Grupo 1178877">
                    <g id="Grupo_1111311" data-name="Grupo 1111311">
                      <g id="Grupo_1098742" data-name="Grupo 1098742" transform="translate(0 0)">
                        <g id="Rectángulo_400898" data-name="Rectángulo 400898" transform="translate(0 0)" fill="#76cfe7" stroke="#76cfe7" stroke-width="1" opacity="0.859">
                          <rect width="76.826" height="76.826" rx="38.413" stroke="none"/>
                          <rect x="0.5" y="0.5" width="75.826" height="75.826" rx="37.913" fill="none"/>
                        </g>
                        <g id="Rectángulo_400907" data-name="Rectángulo 400907" transform="translate(0 0)" fill="none" stroke="#76cfe7" stroke-width="1">
                          <rect width="76.826" height="76.826" rx="38.413" stroke="none"/>
                          <rect x="0.5" y="0.5" width="75.826" height="75.826" rx="37.913" fill="none"/>
                        </g>
                      </g>
                    </g>
                  </g>
                </g>
              </g>
            </g>
          </g>
        </g>
      </g>
      <g id="Enmascarar_grupo_1099452" data-name="Enmascarar grupo 1099452" clip-path="url(#clip-path)">
        <g id="objetivo_1_" data-name="objetivo (1)" transform="translate(-6831.573 -11212.146)">
          <g id="Grupo_1204066" data-name="Grupo 1204066">
            <path id="Trazado_1269401" data-name="Trazado 1269401" d="M33.382,7.784l2.992,1L40.226,4.93l-2.992-1-1-2.992L32.384,4.792Z" fill="#ffc144" fill-rule="evenodd"/>
            <path id="Trazado_1269402" data-name="Trazado 1269402" d="M33.382,7.784a13.165,13.165,0,1,0,3.856,9.309,13.124,13.124,0,0,0-3.856-9.309Zm-9.309.376a8.933,8.933,0,1,1-8.933,8.933A8.9,8.9,0,0,1,24.073,8.16Z" fill="#ff5a58" fill-rule="evenodd"/>
            <path id="Trazado_1269403" data-name="Trazado 1269403" d="M30.39,10.776a8.933,8.933,0,1,0,2.617,6.317,8.906,8.906,0,0,0-2.617-6.317Zm-6.317,1.615a4.7,4.7,0,1,1-4.7,4.7A4.687,4.687,0,0,1,24.073,12.391Z" fill="#fff" fill-rule="evenodd"/>
            <path id="Trazado_1269404" data-name="Trazado 1269404" d="M27.4,13.769a4.7,4.7,0,1,0,1.377,3.325A4.687,4.687,0,0,0,27.4,13.769Z" fill="#ff5a58" fill-rule="evenodd"/>
            <path id="Trazado_1269405" data-name="Trazado 1269405" d="M9.608,38.044V37.1a2.893,2.893,0,1,0-5.786,0v.941a2.893,2.893,0,1,0,5.786,0Z" fill="#ffdcd5" fill-rule="evenodd"/>
            <path id="Trazado_1269406" data-name="Trazado 1269406" d="M15.394,38.044a2.893,2.893,0,1,0,5.786,0V37.1a2.893,2.893,0,1,0-5.786,0v.941Z" fill="#ffdcd5" fill-rule="evenodd"/>
            <path id="Trazado_1269407" data-name="Trazado 1269407" d="M26.966,38.044a2.893,2.893,0,1,0,5.786,0V37.1a2.893,2.893,0,1,0-5.786,0v.941Z" fill="#ffdcd5" fill-rule="evenodd"/>
            <path id="Trazado_1269408" data-name="Trazado 1269408" d="M38.539,38.044a2.893,2.893,0,1,0,5.786,0V37.1a2.893,2.893,0,1,0-5.786,0v.941Z" fill="#ffdcd5" fill-rule="evenodd"/>
            <path id="Trazado_1269409" data-name="Trazado 1269409" d="M12.513,47.205H24.06v-.392a5.787,5.787,0,0,0-11.548.018v.375Z" fill="#ffc144" fill-rule="evenodd"/>
            <path id="Trazado_1269410" data-name="Trazado 1269410" d="M.94,47.205H12.488v-.392a5.786,5.786,0,0,0-11.547.018v.375Z" fill="#8481e2" fill-rule="evenodd"/>
            <path id="Trazado_1269411" data-name="Trazado 1269411" d="M24.085,47.205H35.633v-.392a5.786,5.786,0,0,0-11.547.018v.375Z" fill="#00ccf2" fill-rule="evenodd"/>
            <path id="Trazado_1269412" data-name="Trazado 1269412" d="M35.658,47.205H47.205v-.392a5.786,5.786,0,0,0-11.547.018Z" fill="#88df8e" fill-rule="evenodd"/>
          </g>
          <g id="Grupo_1204067" data-name="Grupo 1204067">
            <path id="Trazado_1269413" data-name="Trazado 1269413" d="M12.519,46.831a5.783,5.783,0,0,1,11.541-.018m.031-.064a5.783,5.783,0,0,1,11.537.093m.026-.058a5.783,5.783,0,0,1,11.551.421H.94a5.783,5.783,0,0,1,11.554-.376" fill="none" stroke="#000" stroke-linecap="round" stroke-linejoin="round" stroke-miterlimit="22.926" stroke-width="1.881" fill-rule="evenodd"/>
            <path id="Trazado_1269414" data-name="Trazado 1269414" d="M6.723,34.217a2.9,2.9,0,0,1,2.892,2.892v.94a2.892,2.892,0,1,1-5.783,0v-.94A2.9,2.9,0,0,1,6.723,34.217Z" fill="none" stroke="#000" stroke-linecap="round" stroke-linejoin="round" stroke-miterlimit="22.926" stroke-width="1.881" fill-rule="evenodd"/>
            <path id="Trazado_1269415" data-name="Trazado 1269415" d="M18.29,34.217a2.9,2.9,0,0,1,2.892,2.892v.94a2.892,2.892,0,1,1-5.783,0v-.94A2.9,2.9,0,0,1,18.29,34.217Z" fill="none" stroke="#000" stroke-linecap="round" stroke-linejoin="round" stroke-miterlimit="22.926" stroke-width="1.881" fill-rule="evenodd"/>
            <path id="Trazado_1269416" data-name="Trazado 1269416" d="M29.856,34.217a2.9,2.9,0,0,1,2.892,2.892v.94a2.892,2.892,0,1,1-5.783,0v-.94A2.9,2.9,0,0,1,29.856,34.217Z" fill="none" stroke="#000" stroke-linecap="round" stroke-linejoin="round" stroke-miterlimit="22.926" stroke-width="1.881" fill-rule="evenodd"/>
            <path id="Trazado_1269417" data-name="Trazado 1269417" d="M41.422,34.217a2.9,2.9,0,0,1,2.892,2.892v.94a2.892,2.892,0,1,1-5.783,0v-.94A2.9,2.9,0,0,1,41.422,34.217Z" fill="none" stroke="#000" stroke-linecap="round" stroke-linejoin="round" stroke-miterlimit="22.926" stroke-width="1.881" fill-rule="evenodd"/>
            <circle id="Elipse_12730" data-name="Elipse 12730" cx="13.165" cy="13.165" r="13.165" transform="translate(5.455 17.093) rotate(-45)" fill="none" stroke="#000" stroke-linecap="round" stroke-linejoin="round" stroke-miterlimit="22.926" stroke-width="1.881"/>
            <path id="Trazado_1269418" data-name="Trazado 1269418" d="M21.371,8.576a8.926,8.926,0,1,1-5.815,5.816" fill="none" stroke="#000" stroke-linecap="round" stroke-linejoin="round" stroke-miterlimit="22.926" stroke-width="1.881" fill-rule="evenodd"/>
            <circle id="Elipse_12731" data-name="Elipse 12731" cx="4.702" cy="4.702" r="4.702" transform="matrix(0.973, -0.23, 0.23, 0.973, 18.416, 13.596)" fill="none" stroke="#000" stroke-linecap="round" stroke-linejoin="round" stroke-miterlimit="22.926" stroke-width="1.881"/>
            <path id="Trazado_1269419" data-name="Trazado 1269419" d="M36.236.94l1,2.992,2.992,1L36.374,8.782l-2.992-1-1-2.992Z" fill="none" stroke="#000" stroke-linecap="round" stroke-linejoin="round" stroke-miterlimit="22.926" stroke-width="1.881" fill-rule="evenodd"/>
            <line id="Línea_564" data-name="Línea 564" x1="9.309" y2="9.309" transform="translate(24.073 7.784)" fill="none" stroke="#000" stroke-linecap="round" stroke-linejoin="round" stroke-miterlimit="22.926" stroke-width="1.881"/>
            <line id="Línea_565" data-name="Línea 565" transform="translate(17.756 10.777)" fill="none" stroke="#000" stroke-linecap="round" stroke-linejoin="round" stroke-miterlimit="2.613" stroke-width="1.881"/>
          </g>
        </g>
      </g>
    </g>
  </g>
</svg>
