<svg xmlns="http://www.w3.org/2000/svg" xmlns:xlink="http://www.w3.org/1999/xlink" width="90" height="90" viewBox="0 0 90 90">
  <defs>
    <clipPath id="clip-path">
      <rect id="Rectangle_411866" data-name="Rectangle 411866" width="90" height="90" fill="#e8bad8" opacity="0.41"/>
    </clipPath>
    <clipPath id="clip-path-2">
      <rect id="Rectangle_412122" data-name="Rectangle 412122" width="61" height="63" transform="translate(7461 -9724)" fill="#fff" stroke="#707070" stroke-width="1" opacity="0"/>
    </clipPath>
  </defs>
  <g id="Group_1204592" data-name="Group 1204592" transform="translate(-7446.828 9737.961)">
    <g id="Group_1204596" data-name="Group 1204596">
      <g id="Group_1204592-2" data-name="Group 1204592" transform="translate(13954.098 -703.489)">
        <g id="Group_1204131" data-name="Group 1204131" transform="translate(-6507.27 -9034.472)">
          <g id="Mask_Group_1099459" data-name="Mask Group 1099459" transform="translate(0 0)" clip-path="url(#clip-path)">
            <g id="Group_1204095" data-name="Group 1204095" transform="translate(0 4.909)">
              <g id="Group_1204093" data-name="Group 1204093" transform="translate(0)">
                <ellipse id="Ellipse_12744" data-name="Ellipse 12744" cx="22.428" cy="22.428" rx="22.428" ry="22.428" transform="translate(44.238 34.661)" fill="#ffc94a"/>
                <ellipse id="Ellipse_12745" data-name="Ellipse 12745" cx="16.311" cy="16.311" rx="16.311" ry="16.311" fill="#ffc94a"/>
              </g>
            </g>
          </g>
        </g>
      </g>
      <g id="Mask_Group_1099545" data-name="Mask Group 1099545" clip-path="url(#clip-path-2)">
        <g id="coherencia_1_" data-name="coherencia (1)" transform="translate(7458.963 -9725.037)">
          <path id="Path_1280909" data-name="Path 1280909" d="M29.291,5.456a.808.808,0,0,1,1.4-.806L32.586,7.93a.808.808,0,0,1-.3,1.1h0l-3.279,1.893a.81.81,0,1,1-.812-1.4l1.69-.976A14.927,14.927,0,0,0,13.87,16.979a.812.812,0,0,1-1.471-.685A16.561,16.561,0,0,1,30.155,6.952l-.863-1.5Z" fill-rule="evenodd"/>
          <path id="Path_1280910" data-name="Path 1280910" d="M16.767,19.42a.81.81,0,0,1,1.129.2l3.015,4.292a4.368,4.368,0,0,1,4.955,7.055l3.014,4.291a.81.81,0,0,1-.2,1.129l-4.908,3.447a.81.81,0,0,1-1.129-.2,2.747,2.747,0,0,0-4.5,3.157.81.81,0,0,1-.2,1.129l-2.277,1.6c.547,1.781.532,2.865-.363,5.7l.207,1.431a1.7,1.7,0,0,1,1.466.165,1.275,1.275,0,0,1,.5.841l.6,4.127A1.275,1.275,0,0,1,17,59.229L6.025,60.817a1.275,1.275,0,0,1-1.443-1.082L3.993,55.66a1.277,1.277,0,0,1,1.12-1.5l.564-.082-.22-1.518L3.324,47.376c-.761-1.849-.979-6.125.39-7.845L5.22,37.638l-2.459-3.5a4,4,0,0,1,.972-5.563L16.767,19.42Z" fill-rule="evenodd"/>
          <path id="Path_1280911" data-name="Path 1280911" d="M46.288,33.917l-2.5-.091a4.37,4.37,0,0,1-4.388,3.4v0a4.365,4.365,0,0,1-4.189-3.712l-5.431-.2A.809.809,0,0,1,29,32.48l.215-5.928a.809.809,0,0,1,.861-.822,2.77,2.77,0,0,0,2.169-4.666,2.726,2.726,0,0,0-1.989-.849.809.809,0,0,1-.78-.837l.218-6a.809.809,0,0,1,.837-.78l15.165.55a4.926,4.926,0,0,1,4.735,5.09l-.079,2.191,2.295.767c2.085.7,4.23,4.392,4.6,6.367l1.035,5.511.641,1.39c.54-.249.945-.516,1.535-.3a1.273,1.273,0,0,1,.718.663l1.747,3.786a1.276,1.276,0,0,1-.624,1.692l-10.02,4.624a1.278,1.278,0,0,1-1.762-.649l-1.725-3.738a1.276,1.276,0,0,1,.624-1.692l.478-.22-.606-1.312a9.332,9.332,0,0,1-3-3.406Z" fill-rule="evenodd"/>
          <path id="Path_1280912" data-name="Path 1280912" d="M15.132,43.921l1.287-.9a4.369,4.369,0,0,1,7.026-4.934l3.643-2.559-2.982-4.246a.808.808,0,0,1,.243-1.159,2.747,2.747,0,1,0-3.182-4.477A.815.815,0,0,1,20,25.426l-2.96-4.214L4.665,29.9a2.384,2.384,0,0,0-.579,3.3L9.47,40.87l-.188-1.3a2.4,2.4,0,0,1,4.745-.725l.874,4.425.231.654Z" fill="#696" fill-rule="evenodd"/>
          <path id="Path_1280913" data-name="Path 1280913" d="M11.559,43.99a.811.811,0,0,1-1.476.572L6.191,39.021,4.982,40.539a4.955,4.955,0,0,0-.637,2.614,9.614,9.614,0,0,0,.475,3.607l2.173,5.28a.812.812,0,0,1,.053.194h0l.233,1.61,6.634-.96-.233-1.614h0a.808.808,0,0,1,.031-.361c1.032-3.223.8-3.879-.114-6.461-.036-.1-.076-.214-.232-.66-.088-.228-.819-4.06-.933-4.635a.818.818,0,0,0-1.269-.557.71.71,0,0,0-.279.742l.673,4.652Z" fill="#f6bfac" fill-rule="evenodd"/>
          <path id="Path_1280914" data-name="Path 1280914" d="M48.545,25.461l.264-7.275a3.312,3.312,0,0,0-3.175-3.416l-14.357-.521-.161,4.433a4.383,4.383,0,0,1-.314,8.639l-.16,4.408L36,31.924a.809.809,0,0,1,.781.809h0a.855.855,0,0,1,0,.087A2.75,2.75,0,0,0,39.4,35.607v0a.853.853,0,0,1,.087,0,2.75,2.75,0,0,0,2.787-2.619h0a.81.81,0,0,1,.907-.806l2.575.093c-.093-.358-.188-.752-.294-1.193-.033-.137-.067-.278-.161-.664l-1.676-4.183a2.431,2.431,0,0,1,2.265-3.38,2.261,2.261,0,0,1,2.109,1.408l.552,1.2Z" fill="#eb5757" fill-rule="evenodd"/>
          <path id="Path_1280915" data-name="Path 1280915" d="M50.286,22.12l-.245,6.745a.811.811,0,0,1-1.546.354l-1.973-4.276a.741.741,0,0,0-1.274-.185.8.8,0,0,0-.126.877c.206.515,1.694,4.175,1.739,4.375l.169.7c.639,2.66.8,3.335,3.424,5.477a.806.806,0,0,1,.224.289h0l.683,1.479,6.087-2.809c-.126-.272-.705-1.469-.743-1.67l-1.054-5.612a9.617,9.617,0,0,0-1.567-3.284,4.958,4.958,0,0,0-1.956-1.846l-1.842-.616Z" fill="#f6bfac" fill-rule="evenodd"/>
          <g id="Group_1204595" data-name="Group 1204595">
            <path id="Path_1280916" data-name="Path 1280916" d="M14.948,54.373,5.639,55.72l.5,3.443,10.291-1.489-.5-3.443Z" fill="#6babff" fill-rule="evenodd"/>
            <path id="Path_1280917" data-name="Path 1280917" d="M51.307,39.766l-.9.417,1.458,3.159L61.3,38.984l-1.458-3.159Z" fill="#6babff" fill-rule="evenodd"/>
          </g>
        </g>
      </g>
    </g>
  </g>
</svg>
