<svg xmlns="http://www.w3.org/2000/svg" xmlns:xlink="http://www.w3.org/1999/xlink" width="90" height="90" viewBox="0 0 90 90">
  <defs>
    <clipPath id="clip-path">
      <rect id="Rectangle_411866" data-name="Rectangle 411866" width="90" height="90" fill="#e8bad8" opacity="0.41"/>
    </clipPath>
    <clipPath id="clip-path-2">
      <rect id="Rectangle_412124" data-name="Rectangle 412124" width="62" height="67" transform="translate(7970 -9664)" fill="#fff" stroke="#707070" stroke-width="1" opacity="0"/>
    </clipPath>
  </defs>
  <g id="Group_1204597" data-name="Group 1204597" transform="translate(-7956.212 9675.471)">
    <g id="Group_1204600" data-name="Group 1204600">
      <g id="Group_1204597-2" data-name="Group 1204597" transform="translate(14463.482 -641)">
        <g id="Group_1204132" data-name="Group 1204132" transform="translate(-6507.27 -9034.472)">
          <g id="Mask_Group_1099459" data-name="Mask Group 1099459" transform="translate(0)" clip-path="url(#clip-path)">
            <g id="Group_1204095" data-name="Group 1204095" transform="translate(0 4.909)">
              <g id="Group_1204093" data-name="Group 1204093" transform="translate(0)">
                <ellipse id="Ellipse_12744" data-name="Ellipse 12744" cx="22.428" cy="22.428" rx="22.428" ry="22.428" transform="translate(44.238 34.661)" fill="#ffc94a"/>
                <ellipse id="Ellipse_12745" data-name="Ellipse 12745" cx="16.311" cy="16.311" rx="16.311" ry="16.311" fill="#ffc94a"/>
              </g>
            </g>
          </g>
        </g>
      </g>
      <g id="Mask_Group_1099546" data-name="Mask Group 1099546" clip-path="url(#clip-path-2)">
        <g id="Page-1" transform="translate(7969.898 -9662.619)">
          <g id="_048---Search-Check" data-name="048---Search-Check" transform="translate(0 -1.07)">
            <path id="Path" d="M50.252,29.576A24.483,24.483,0,0,1,44.508,44.69a23.8,23.8,0,0,1-3.027,3.027,24.6,24.6,0,1,1-4.846-40.86A13.9,13.9,0,0,0,47.064,29.95a13.613,13.613,0,0,0,3.188-.374Z" fill="#9e9e9e" fill-rule="evenodd"/>
            <path id="Path-2" data-name="Path" d="M33.426,6.856a13.9,13.9,0,0,0,12.057,23,13.894,13.894,0,0,1-8.848-23A24.478,24.478,0,0,0,25.671,4.279c-.535,0-1.07.024-1.591.057a24.44,24.44,0,0,1,9.345,2.521Z" fill="#707070" fill-rule="evenodd"/>
            <path id="Path-3" data-name="Path" d="M47.064,29.95h-.048A24.472,24.472,0,0,1,41.3,44.69a23.8,23.8,0,0,1-3.027,3.027,24.465,24.465,0,0,1-14.324,5.7c.57.039,1.143.066,1.723.066a24.469,24.469,0,0,0,15.809-5.765,23.8,23.8,0,0,0,3.027-3.027,24.483,24.483,0,0,0,5.744-15.114,13.613,13.613,0,0,1-3.188.374Z" fill="#707070" fill-rule="evenodd"/>
            <path id="Path-4" data-name="Path" d="M45.973,29.9a20.346,20.346,0,1,1-11.659-19.4A13.9,13.9,0,0,0,45.973,29.9Z" fill="#02a9f4" fill-rule="evenodd"/>
            <path id="Path-5" data-name="Path" d="M33.159,16.045a13.935,13.935,0,0,1,1.155-5.551,20.147,20.147,0,0,0-8.643-1.936c-.516,0-1.02.04-1.526.077a20.109,20.109,0,0,1,6.96,1.859A13.9,13.9,0,0,0,42.764,29.9,20.328,20.328,0,0,1,24.091,49.123c.523.041,1.046.08,1.58.08A20.336,20.336,0,0,0,45.973,29.9,13.888,13.888,0,0,1,33.159,16.045Z" fill="#0377bc" fill-rule="evenodd"/>
            <path id="Path-6" data-name="Path" d="M59.718,62.927a4.287,4.287,0,0,1-6.054,0l-9.21-9.21a1.07,1.07,0,0,1,0-1.508l.759-.759,3.027-3.027L49,47.663a1.07,1.07,0,0,1,1.508,0l9.21,9.21a4.287,4.287,0,0,1,0,6.054Z" fill="#f44335" fill-rule="evenodd"/>
            <path id="Path-7" data-name="Path" d="M59.718,56.873l-9.21-9.21a1.07,1.07,0,0,0-1.508,0l-.759.759-.091.091,8.359,8.359a4.279,4.279,0,0,1-1.423,6.994,4.279,4.279,0,0,0,4.632-6.994Z" fill="#c81e1e" fill-rule="evenodd"/>
            <path id="Path-8" data-name="Path" d="M48.241,48.423,45.214,51.45l-3.733-3.733a23.8,23.8,0,0,0,3.027-3.027Z" fill="#7f8e94" fill-rule="evenodd"/>
            <path id="Rectangle" d="M46.981,52.328h8.556v4.278H46.981Z" transform="translate(-23.504 52.207) rotate(-45)" fill="#c81e1e" fill-rule="evenodd"/>
            <path id="Path-9" data-name="Path" d="M60.969,16.045A13.905,13.905,0,0,1,50.252,29.576a13.613,13.613,0,0,1-3.188.374,9.315,9.315,0,0,1-1.091-.053,13.9,13.9,0,1,1,15-13.852Z" fill="#a4c400" fill-rule="evenodd"/>
            <path id="Path-10" data-name="Path" d="M47.064,2.139a13.98,13.98,0,0,0-1.62.1,13.9,13.9,0,0,1,1.6,27.339,13.677,13.677,0,0,1-1.5.267c.143.015.283.043.428.053a9.315,9.315,0,0,0,1.091.053,13.613,13.613,0,0,0,3.188-.374A13.905,13.905,0,0,0,47.064,2.139Z" fill="#90ac00" fill-rule="evenodd"/>
            <path id="Path-11" data-name="Path" d="M16.045,17.114a1.07,1.07,0,0,1-.642-1.925,16.974,16.974,0,0,1,10.269-3.423,1.07,1.07,0,1,1,0,2.139A14.841,14.841,0,0,0,16.686,16.9a1.07,1.07,0,0,1-.642.214Z" fill="#f5f5f5" fill-rule="evenodd"/>
            <g id="Group_1204599" data-name="Group 1204599">
              <path id="Shape" d="M51.281,30.4A14.969,14.969,0,1,0,36.387,5.562a25.649,25.649,0,1,0,5.056,43.628L43.7,51.45a2.139,2.139,0,0,0,0,3.024l2.269,2.269L49,59.768l3.908,3.908a5.348,5.348,0,1,0,7.562-7.562L56.56,52.206l-3.025-3.025-2.269-2.269a2.139,2.139,0,0,0-3.024,0l-2.258-2.258a25.593,25.593,0,0,0,5.3-14.25Zm-4.217-27.2A12.836,12.836,0,1,1,34.228,16.045,12.836,12.836,0,0,1,47.064,3.209ZM44.807,30.83a19.245,19.245,0,1,1-19.136-21.2,18.97,18.97,0,0,1,7.274,1.463A14.912,14.912,0,0,0,44.807,30.83ZM2.139,28.88A23.532,23.532,0,0,1,34.962,7.26,14.987,14.987,0,0,0,33.808,9.1a21.133,21.133,0,0,0-8.137-1.614A21.393,21.393,0,1,0,46.937,31.013c.043,0,.084.006.127.006a14.936,14.936,0,0,0,2.017-.152A23.513,23.513,0,0,1,2.139,28.88ZM54.292,52.963,49.754,57.5l-1.514-1.512,4.538-4.538ZM59.9,59.9a3.183,3.183,0,0,1-.94,2.269,3.286,3.286,0,0,1-4.537,0l-3.155-3.155L55.8,54.476l3.155,3.155A3.183,3.183,0,0,1,59.9,59.9Zm-8.633-9.962-4.537,4.537-1.514-1.512,4.538-4.538Zm-4.538-1.516-1.515,1.515-2.131-2.131c.525-.485,1.032-.987,1.516-1.514Z"/>
              <path id="Path-12" data-name="Path" d="M43.1,23.219a1.07,1.07,0,0,0,1.512,0l10.7-10.7A1.07,1.07,0,0,0,53.8,11.01l-9.94,9.94-3.522-3.522A1.07,1.07,0,0,0,38.82,18.94Z" fill-rule="evenodd"/>
            </g>
          </g>
        </g>
      </g>
    </g>
  </g>
</svg>
