<svg xmlns="http://www.w3.org/2000/svg" width="940" height="140" viewBox="0 0 940 140">
  <g id="Group_1204248" data-name="Group 1204248" transform="translate(-330.051 -4128)">
    <g id="Colores_1" data-name="Colores 1" transform="translate(280.051 4048)">
      <path id="Path_1269598" data-name="Path 1269598" d="M195,135h40l15,15-15,15H195Z" fill="#d35400"/>
      <path id="Path_1269599" data-name="Path 1269599" d="M395,135h40l15,15-15,15H395Z" fill="#2e7d32"/>
      <path id="Path_1269600" data-name="Path 1269600" d="M595,135h40l15,15-15,15H595Z" fill="#1f618d"/>
      <path id="Path_1269601" data-name="Path 1269601" d="M795,135h40l15,15-15,15H795Z" fill="#c0392b"/>
      <circle id="Ellipse_12751" data-name="Ellipse 12751" cx="70" cy="70" r="70" transform="translate(50 80)" fill="#f39c12"/>
      <circle id="Ellipse_12752" data-name="Ellipse 12752" cx="70" cy="70" r="70" transform="translate(250 80)" fill="#4caf50"/>
      <circle id="Ellipse_12753" data-name="Ellipse 12753" cx="70" cy="70" r="70" transform="translate(450 80)" fill="#2e86c1"/>
      <circle id="Ellipse_12754" data-name="Ellipse 12754" cx="70" cy="70" r="70" transform="translate(650 80)" fill="#e74c3c"/>
      <circle id="Ellipse_12755" data-name="Ellipse 12755" cx="70" cy="70" r="70" transform="translate(850 80)" fill="#8e44ad"/>
      <line id="Line_570" data-name="Line 570" x2="20" transform="translate(310 125)" stroke="#4caf50" stroke-width="4"/>
      <line id="Line_571" data-name="Line 571" x2="20" transform="translate(310 140)" stroke="#4caf50" stroke-width="4"/>
      <line id="Line_572" data-name="Line 572" x2="20" transform="translate(310 155)" stroke="#4caf50" stroke-width="4"/>
      <circle id="Ellipse_12758" data-name="Ellipse 12758" cx="8" cy="8" r="8" transform="translate(512 127)" fill="#2e86c1"/>
      <rect id="Rectangle_411910" data-name="Rectangle 411910" width="6" height="15" transform="translate(705 135)" fill="#e74c3c"/>
      <rect id="Rectangle_411911" data-name="Rectangle 411911" width="6" height="20" transform="translate(715 130)" fill="#e74c3c"/>
      <rect id="Rectangle_411912" data-name="Rectangle 411912" width="6" height="30" transform="translate(725 120)" fill="#e74c3c"/>
      <circle id="Ellipse_12759" data-name="Ellipse 12759" cx="12" cy="12" r="12" transform="translate(728 127)" fill="#fff"/>
      <line id="Line_573" data-name="Line 573" x2="12" y2="12" transform="translate(748 147)" stroke="#fff" stroke-width="4"/>
      <line id="Line_574" data-name="Line 574" x2="20" transform="translate(910 135)" stroke="#8e44ad" stroke-width="4"/>
      <line id="Line_575" data-name="Line 575" x2="20" transform="translate(910 150)" stroke="#8e44ad" stroke-width="4"/>
      <text id="Inicio" transform="translate(120 192)" fill="#fff" font-size="16" font-family="Arial-BoldMT, Arial" font-weight="700"><tspan x="-20.891" y="0">Inicio</tspan></text>
      <text id="Planificación" transform="translate(320 192)" fill="#fff" font-size="16" font-family="Arial-BoldMT, Arial" font-weight="700"><tspan x="-49.348" y="0">Planificación</tspan></text>
      <text id="Ejecución" transform="translate(520 192)" fill="#fff" font-size="16" font-family="Arial-BoldMT, Arial" font-weight="700"><tspan x="-37.789" y="0">Ejecución</tspan></text>
      <text id="Control" transform="translate(720 196)" fill="#fff" font-size="16" font-family="Arial-BoldMT, Arial" font-weight="700"><tspan x="-28.438" y="0">Control</tspan></text>
      <text id="Cierre" transform="translate(920 196)" fill="#fff" font-size="16" font-family="Arial-BoldMT, Arial" font-weight="700"><tspan x="-23.125" y="0">Cierre</tspan></text>
      <path id="evaluacion" d="M26.373,17.867v4.408a2.366,2.366,0,0,0,2.363,2.363h4.408a2.366,2.366,0,0,0,2.363-2.363V19.5l2.608-2.367A.909.909,0,0,0,36.9,15.783l-1.5,1.362A2.367,2.367,0,0,0,33.145,15.5H28.737a2.366,2.366,0,0,0-2.363,2.363Zm7.318,0v.823l-1.353,1.228L30.81,18.39a.909.909,0,0,0-1.285,1.285l2.14,2.14a.909.909,0,0,0,1.253.03l.773-.7v1.131a.553.553,0,0,1-.546.546H28.737a.553.553,0,0,1-.546-.546V17.867a.553.553,0,0,1,.546-.546h4.408a.553.553,0,0,1,.546.546Zm3.2,10.28-1.5,1.362a2.367,2.367,0,0,0-2.249-1.641H28.737a2.366,2.366,0,0,0-2.363,2.364V34.64A2.366,2.366,0,0,0,28.737,37h4.408a2.366,2.366,0,0,0,2.363-2.364V31.86l2.608-2.367A.909.909,0,0,0,36.9,28.147Zm-3.2,6.493a.553.553,0,0,1-.546.546H28.737a.553.553,0,0,1-.546-.546V30.232a.553.553,0,0,1,.546-.546h4.408a.553.553,0,0,1,.546.546v.823l-1.353,1.228L30.81,30.755a.909.909,0,1,0-1.285,1.285l2.14,2.14a.909.909,0,0,0,1.253.03l.773-.7V34.64Zm3.2,5.871-1.5,1.362a2.367,2.367,0,0,0-2.249-1.641H28.737A2.366,2.366,0,0,0,26.373,42.6V47a2.366,2.366,0,0,0,2.363,2.363h4.408A2.366,2.366,0,0,0,35.508,47v-2.78l2.608-2.367A.909.909,0,0,0,36.9,40.511ZM33.691,47a.553.553,0,0,1-.546.546H28.737A.553.553,0,0,1,28.191,47V42.6a.553.553,0,0,1,.546-.546h4.408a.553.553,0,0,1,.546.546v.823l-1.353,1.228L30.81,43.119A.909.909,0,1,0,29.524,44.4l2.14,2.14a.909.909,0,0,0,1.253.03l.773-.7V47ZM41.246,4.429A1.136,1.136,0,1,1,40.11,3.293,1.138,1.138,0,0,1,41.246,4.429Zm28.548,6.294-.849-.49a3.363,3.363,0,0,0-4.589,1.229L63,13.818V8.246a3.439,3.439,0,0,0-3.435-3.435H50.744V4.193a.909.909,0,0,0-.909-.909H44.949a5.206,5.206,0,0,0-9.677,0H30.385a.909.909,0,0,0-.909.909v.618H20.659a3.439,3.439,0,0,0-3.435,3.435V54.727a3.439,3.439,0,0,0,3.435,3.435h38.9A3.439,3.439,0,0,0,63,54.727V29.215l8.027-13.9a3.363,3.363,0,0,0-1.229-4.589Zm-3.863,1.648a1.543,1.543,0,0,1,1.713-.722L54.91,33.706l-.973-.561ZM53.6,35.051l2.367,1.366L53.6,37.784ZM59.561,6.629a1.619,1.619,0,0,1,1.617,1.617v8.721l-1.7,2.939V9.234a.909.909,0,0,0-.909-.909H50.744v-1.7ZM31.293,5.1h4.642a.909.909,0,0,0,.883-.7,3.386,3.386,0,0,1,6.582,0,.909.909,0,0,0,.883.7h4.642v4.75H31.293ZM49.836,11.67a.909.909,0,0,0,.909-.909v-.618h6.92V23.053l-5.756,9.969a.909.909,0,0,0-.122.454v5.881a.909.909,0,0,0,1.363.787l4.514-2.606V52.83H22.556V10.143h6.92v.618a.909.909,0,0,0,.909.909H49.836ZM61.179,54.727a1.619,1.619,0,0,1-1.617,1.617h-38.9a1.619,1.619,0,0,1-1.617-1.617V8.246a1.619,1.619,0,0,1,1.617-1.617h8.817v1.7H21.647a.909.909,0,0,0-.909.909v44.5a.909.909,0,0,0,.909.909H58.573a.909.909,0,0,0,.909-.909V35.3l1.7-2.939ZM69.45,14.4,57.456,35.176l-.973-.562L69.218,12.558A1.543,1.543,0,0,1,69.45,14.4Zm-29.693,7.65a.909.909,0,0,1,.909-.909h5.2a.909.909,0,1,1,0,1.818h-5.2A.909.909,0,0,1,39.757,22.052Zm0-3.962a.909.909,0,0,1,.909-.909H51.06a.909.909,0,0,1,0,1.818H40.666A.909.909,0,0,1,39.757,18.091Zm0,15.069a.909.909,0,0,1,.909-.909h5.2a.909.909,0,1,1,0,1.818h-5.2A.909.909,0,0,1,39.757,33.16Zm0-3.962a.909.909,0,0,1,.909-.909H51.06a.909.909,0,0,1,0,1.818H40.666A.909.909,0,0,1,39.757,29.2Zm0,17.583a.909.909,0,0,1,.909-.909h5.2a.909.909,0,1,1,0,1.818h-5.2A.909.909,0,0,1,39.757,46.781Zm0-3.962a.909.909,0,0,1,.909-.909H51.06a.909.909,0,0,1,0,1.818H40.666A.909.909,0,0,1,39.757,42.819Z" transform="translate(278.651 106.838)" fill="#fff"/>
    </g>
    <g id="bombilla" transform="translate(328.683 4136.59)">
      <g id="Group_1204243" data-name="Group 1204243" transform="translate(35.966)">
        <g id="Group_1204242" data-name="Group 1204242" transform="translate(0)">
          <path id="Path_1269602" data-name="Path 1269602" d="M126.574,93.2a21.277,21.277,0,0,0-14.061,37.217c3.362,3.362,3.057,10.546,2.98,10.622a1.265,1.265,0,0,0,.382.993,1.41,1.41,0,0,0,.917.382h19.487a1.266,1.266,0,0,0,.917-.382,1.453,1.453,0,0,0,.382-.993c0-.076-.382-7.26,2.98-10.622l.229-.229A21.213,21.213,0,0,0,126.574,93.2ZM138.8,128.43c-.076.076-.229.229-.229.306-2.98,3.21-3.515,8.483-3.592,11H118.091c-.076-2.522-.611-8.024-3.821-11.31a18.608,18.608,0,1,1,24.531,0Z" transform="translate(-92.077 -75.394)" fill="#fff"/>
          <path id="Path_1269603" data-name="Path 1269603" d="M210.628,121.6a1.3,1.3,0,0,0,0,2.6,13.91,13.91,0,0,1,13.909,13.909,1.3,1.3,0,0,0,2.6,0A16.438,16.438,0,0,0,210.628,121.6Z" transform="translate(-176.208 -98.368)" fill="#fff"/>
          <path id="Path_1269604" data-name="Path 1269604" d="M175.1,358.4H158.139a3.21,3.21,0,1,0,0,6.419h16.889a3.3,3.3,0,0,0,3.286-3.21A3.229,3.229,0,0,0,175.1,358.4Zm0,3.745H158.139a.6.6,0,0,1-.611-.611.562.562,0,0,1,.611-.611h16.889a.6.6,0,0,1,.611.611A.545.545,0,0,1,175.1,362.145Z" transform="translate(-132.201 -289.927)" fill="#fff"/>
          <path id="Path_1269605" data-name="Path 1269605" d="M183.26,398.8H171.339a3.21,3.21,0,0,0,0,6.419H183.26a3.229,3.229,0,0,0,3.21-3.21A3.18,3.18,0,0,0,183.26,398.8Zm0,3.745H171.339a.6.6,0,0,1-.611-.611.562.562,0,0,1,.611-.611H183.26a.611.611,0,1,1,0,1.223Z" transform="translate(-142.879 -322.609)" fill="#fff"/>
          <path id="Path_1269606" data-name="Path 1269606" d="M210.628,11.463a1.288,1.288,0,0,0,1.3-1.3V1.3a1.3,1.3,0,0,0-2.6,0v8.865A1.339,1.339,0,0,0,210.628,11.463Z" transform="translate(-176.208)" fill="#fff"/>
          <path id="Path_1269607" data-name="Path 1269607" d="M300.049,33.359a1.233,1.233,0,0,0-1.758.306L293.4,41a1.259,1.259,0,0,0,.306,1.834,1.232,1.232,0,0,0,.688.229,1.22,1.22,0,0,0,1.07-.611l4.891-7.336A1.185,1.185,0,0,0,300.049,33.359Z" transform="translate(-244.001 -26.787)" fill="#fff"/>
          <path id="Path_1269608" data-name="Path 1269608" d="M109.131,40.976a1.233,1.233,0,0,0,.688-.229,1.339,1.339,0,0,0,.382-1.834L105.463,31.5a1.325,1.325,0,0,0-2.216,1.452l4.738,7.413A1.268,1.268,0,0,0,109.131,40.976Z" transform="translate(-90.224 -25.004)" fill="#fff"/>
          <path id="Path_1269609" data-name="Path 1269609" d="M45.626,107.632l-7.718-4.2a1.346,1.346,0,0,0-1.758.535,1.22,1.22,0,0,0,.535,1.758l7.718,4.2a1.8,1.8,0,0,0,.611.153,1.261,1.261,0,0,0,1.146-.688A1.345,1.345,0,0,0,45.626,107.632Z" transform="translate(-35.966 -83.56)" fill="#fff"/>
          <path id="Path_1269610" data-name="Path 1269610" d="M352.446,103.964a1.345,1.345,0,0,0-1.758-.535l-7.795,4.2a1.345,1.345,0,0,0-.535,1.758,1.261,1.261,0,0,0,1.146.688,1.44,1.44,0,0,0,.611-.153l7.795-4.2A1.345,1.345,0,0,0,352.446,103.964Z" transform="translate(-283.713 -83.56)" fill="#fff"/>
        </g>
      </g>
    </g>
    <g id="comprobado" transform="translate(803.051 4152.499)">
      <g id="Group_1204244" data-name="Group 1204244" transform="translate(0 28.003)">
        <path id="Path_1269611" data-name="Path 1269611" d="M12.19,43.614a1.582,1.582,0,1,0-2.246,2.228l7.492,7.545a1.567,1.567,0,0,0,1.114.465h.009a1.6,1.6,0,0,0,1.114-.456L42.484,30.709a1.582,1.582,0,0,0-2.228-2.246l-8.063,8.01A18.13,18.13,0,1,0,16.8,66c.439.035.886.044,1.325.044A18.137,18.137,0,0,0,36.044,50.695a18.408,18.408,0,0,0,.211-2.79,1.579,1.579,0,0,0-3.158,0,15.626,15.626,0,0,1-.175,2.307A14.971,14.971,0,0,1,3.2,48.992,14.853,14.853,0,0,1,7.171,37.7a14.967,14.967,0,0,1,22.767,1.018L18.568,50.037Z" transform="translate(0 -28.003)" fill="#fff"/>
      </g>
    </g>
    <g id="engranaje" transform="translate(759.051 4157)">
      <path id="Path_1269612" data-name="Path 1269612" d="M44,19H40.23a16.421,16.421,0,0,0-1.22-2.94l2.66-2.66a.99.99,0,0,0,.29-.71,1.033,1.033,0,0,0-.29-.71L36.01,6.32a1,1,0,0,0-1.41,0L31.94,8.98A17.148,17.148,0,0,0,29,7.77V4a1,1,0,0,0-1-1H20a1,1,0,0,0-1,1V7.77a16.421,16.421,0,0,0-2.94,1.22L13.4,6.33a1,1,0,0,0-1.41,0L6.33,11.99a.99.99,0,0,0-.29.71,1.033,1.033,0,0,0,.29.71l2.66,2.66A16.029,16.029,0,0,0,7.77,19H4a1,1,0,0,0-1,1v8a1,1,0,0,0,1,1H7.77a16.421,16.421,0,0,0,1.22,2.94L6.33,34.6a.99.99,0,0,0-.29.71,1.033,1.033,0,0,0,.29.71l5.66,5.66a1,1,0,0,0,1.41,0l2.66-2.66A17.188,17.188,0,0,0,19,40.24V44a1,1,0,0,0,1,1h8a1,1,0,0,0,1-1V40.23a16.421,16.421,0,0,0,2.94-1.22l2.66,2.66a1,1,0,0,0,1.41,0l5.66-5.66a.99.99,0,0,0,.29-.71,1.033,1.033,0,0,0-.29-.71l-2.66-2.66a17.188,17.188,0,0,0,1.22-2.94H44a1,1,0,0,0,1-1v-8A1,1,0,0,0,44,19Zm-1,8H39.48a1,1,0,0,0-.97.75,14.851,14.851,0,0,1-1.6,3.86,1.014,1.014,0,0,0,.15,1.22l2.49,2.49-4.24,4.24-2.49-2.49a1.011,1.011,0,0,0-1.22-.15,14.851,14.851,0,0,1-3.86,1.6.979.979,0,0,0-.74.96V43H21V39.48a1,1,0,0,0-.75-.97,14.851,14.851,0,0,1-3.86-1.6,1.014,1.014,0,0,0-1.22.15l-2.49,2.49L8.44,35.31l2.49-2.49a1,1,0,0,0,.15-1.22,14.851,14.851,0,0,1-1.6-3.86A.979.979,0,0,0,8.52,27H5V21H8.52a1,1,0,0,0,.97-.75,14.851,14.851,0,0,1,1.6-3.86,1.014,1.014,0,0,0-.15-1.22L8.45,12.68l4.24-4.24,2.49,2.49a1,1,0,0,0,1.22.15,14.851,14.851,0,0,1,3.86-1.6A.979.979,0,0,0,21,8.52V5h6V8.52a1,1,0,0,0,.75.97,14.851,14.851,0,0,1,3.86,1.6,1.014,1.014,0,0,0,1.22-.15l2.49-2.49,4.24,4.24-2.49,2.49a1,1,0,0,0-.15,1.22,14.851,14.851,0,0,1,1.6,3.86,1,1,0,0,0,.97.75H43Z" fill="#fff"/>
      <path id="Path_1269613" data-name="Path 1269613" d="M24,15a9,9,0,1,0,9,9A9.014,9.014,0,0,0,24,15Zm0,16a7,7,0,1,1,7-7A7.008,7.008,0,0,1,24,31Z" fill="#fff"/>
    </g>
    <g id="grafico-de-barras" transform="translate(973.431 4163.997)">
      <g id="Group_1204246" data-name="Group 1204246">
        <g id="Group_1204245" data-name="Group 1204245">
          <rect id="Rectangle_411915" data-name="Rectangle 411915" width="47" height="2" transform="translate(-0.431 44.569)" fill="#fff"/>
          <path id="Path_1269614" data-name="Path 1269614" d="M24.776,303.523h7.762a.776.776,0,0,0,.776-.776V288.776a.776.776,0,0,0-.776-.776H24.776a.776.776,0,0,0-.776.776v13.971A.776.776,0,0,0,24.776,303.523Zm.776-13.971h6.209v12.419H25.552Z" transform="translate(-21.672 -260.058)" fill="#fff"/>
          <path id="Path_1269615" data-name="Path 1269615" d="M248.776,216.837h7.762a.776.776,0,0,0,.776-.776V192.776a.776.776,0,0,0-.776-.776h-7.762a.776.776,0,0,0-.776.776v23.285A.776.776,0,0,0,248.776,216.837Zm.776-23.285h6.209v21.732h-6.209Z" transform="translate(-223.939 -173.372)" fill="#fff"/>
          <path id="Path_1269616" data-name="Path 1269616" d="M136.776,130.151h7.762a.776.776,0,0,0,.776-.776v-32.6a.776.776,0,0,0-.776-.776h-7.762a.776.776,0,0,0-.776.776v32.6A.776.776,0,0,0,136.776,130.151Zm.776-32.6h6.209V128.6h-6.209Z" transform="translate(-122.805 -86.686)" fill="#fff"/>
          <path id="Path_1269617" data-name="Path 1269617" d="M360.776,43.465h7.762a.776.776,0,0,0,.776-.776V.776A.776.776,0,0,0,368.538,0h-7.762A.776.776,0,0,0,360,.776V42.689A.776.776,0,0,0,360.776,43.465Zm.776-41.912h6.209v40.36h-6.209Z" transform="translate(-325.073)" fill="#fff"/>
        </g>
      </g>
    </g>
    <g id="lista-de-verificacion_1_" data-name="lista-de-verificacion (1)" transform="translate(1268.851 4068.977)">
      <g id="Group_1204247" data-name="Group 1204247" transform="translate(-112 84)">
        <path id="Path_1269618" data-name="Path 1269618" d="M63.824,6.492H52.217V5.5a.94.94,0,0,0-.941-.941h-16.9a.941.941,0,0,0-.941.941v.994H21.83a3.635,3.635,0,0,0-3.63,3.63v54.73a3.635,3.635,0,0,0,3.631,3.631h42a3.635,3.635,0,0,0,3.631-3.631V10.122A3.635,3.635,0,0,0,63.824,6.492Zm-4.137,7.767V60.717H25.967V14.259ZM35.319,6.439H50.335v5.938H35.319ZM65.572,64.853A1.751,1.751,0,0,1,63.824,66.6h-42a1.751,1.751,0,0,1-1.749-1.749V10.122a1.75,1.75,0,0,1,1.749-1.748H33.437v4H25.026a.94.94,0,0,0-.941.941v48.34a.94.94,0,0,0,.941.941h35.6a.94.94,0,0,0,.941-.941V13.318a.94.94,0,0,0-.941-.941H52.217v-4H63.824a1.75,1.75,0,0,1,1.749,1.748Z" fill="#fff"/>
        <path id="Path_1269619" data-name="Path 1269619" d="M55,13.71h8.807a.941.941,0,0,0,0-1.882H55a.941.941,0,1,0,0,1.882Z" transform="translate(-16.578 -3.361)" fill="#fff"/>
        <path id="Path_1269620" data-name="Path 1269620" d="M63.9,99.727h5.713a.941.941,0,1,0,0-1.882H63.9a.941.941,0,1,0,0,1.882Z" transform="translate(-20.69 -43.126)" fill="#fff"/>
        <path id="Path_1269621" data-name="Path 1269621" d="M63.9,91.138H75.321a.941.941,0,1,0,0-1.882H63.9a.941.941,0,1,0,0,1.882Z" transform="translate(-20.69 -39.155)" fill="#fff"/>
        <path id="Path_1269622" data-name="Path 1269622" d="M43.051,95.481a.94.94,0,0,0,1.331,0L49,90.862a.941.941,0,0,0-1.33-1.33l-3.953,3.953L41.9,91.672A.941.941,0,0,0,40.573,93Z" transform="translate(-10.215 -39.156)" fill="#fff"/>
        <path id="Path_1269623" data-name="Path 1269623" d="M63.9,40.725h5.713a.941.941,0,1,0,0-1.882H63.9a.941.941,0,1,0,0,1.882Z" transform="translate(-20.69 -15.85)" fill="#fff"/>
        <path id="Path_1269624" data-name="Path 1269624" d="M63.9,32.136H75.321a.941.941,0,1,0,0-1.882H63.9a.941.941,0,1,0,0,1.882Z" transform="translate(-20.69 -11.879)" fill="#fff"/>
        <path id="Path_1269625" data-name="Path 1269625" d="M43.051,36.479a.94.94,0,0,0,1.331,0L49,31.86a.941.941,0,0,0-1.33-1.33l-3.953,3.953L41.9,32.67A.941.941,0,1,0,40.573,34Z" transform="translate(-10.215 -11.88)" fill="#fff"/>
        <path id="Path_1269626" data-name="Path 1269626" d="M63.9,60.392h5.713a.941.941,0,1,0,0-1.882H63.9a.941.941,0,1,0,0,1.882Z" transform="translate(-20.69 -24.942)" fill="#fff"/>
        <path id="Path_1269627" data-name="Path 1269627" d="M63.9,51.8H75.321a.941.941,0,1,0,0-1.882H63.9a.941.941,0,1,0,0,1.882Z" transform="translate(-20.69 -20.972)" fill="#fff"/>
        <path id="Path_1269628" data-name="Path 1269628" d="M43.051,56.149a.94.94,0,0,0,1.331,0L49,51.531a.941.941,0,0,0-1.33-1.33l-3.953,3.952L41.9,52.341a.941.941,0,0,0-1.331,1.331Z" transform="translate(-10.215 -20.974)" fill="#fff"/>
        <path id="Path_1269629" data-name="Path 1269629" d="M63.9,80.06h5.713a.941.941,0,1,0,0-1.882H63.9a.941.941,0,1,0,0,1.882Z" transform="translate(-20.69 -34.034)" fill="#fff"/>
        <path id="Path_1269630" data-name="Path 1269630" d="M63.9,71.471H75.321a.941.941,0,1,0,0-1.882H63.9a.941.941,0,1,0,0,1.882Z" transform="translate(-20.69 -30.063)" fill="#fff"/>
        <path id="Path_1269631" data-name="Path 1269631" d="M43.051,75.813a.94.94,0,0,0,1.331,0L49,71.195a.941.941,0,0,0-1.33-1.331l-3.953,3.953L41.9,72a.941.941,0,1,0-1.331,1.331Z" transform="translate(-10.215 -30.063)" fill="#fff"/>
      </g>
    </g>
    <path id="garrapata" d="M13.731,0A13.731,13.731,0,1,0,27.462,13.731,13.746,13.746,0,0,0,13.731,0Zm7.885,11.412-8.626,8.626a1.942,1.942,0,0,1-2.746,0l-4.4-4.4A1.942,1.942,0,1,1,8.592,12.9l3.023,3.023,7.253-7.253a1.942,1.942,0,0,1,2.746,2.746Z" transform="translate(1220.538 4189.497)" fill="#fff"/>
  </g>
</svg>
