<svg xmlns="http://www.w3.org/2000/svg" xmlns:xlink="http://www.w3.org/1999/xlink" width="90" height="90" viewBox="0 0 90 90">
  <defs>
    <clipPath id="clip-path">
      <rect id="Rectangle_411866" data-name="Rectangle 411866" width="90" height="90" fill="#e8bad8" opacity="0.41"/>
    </clipPath>
    <clipPath id="clip-path-2">
      <rect id="Rectangle_411867" data-name="Rectangle 411867" width="61.335" height="67.626" fill="#fff" stroke="#707070" stroke-width="1" opacity="0"/>
    </clipPath>
  </defs>
  <g id="Group_1204112" data-name="Group 1204112" transform="translate(6507.27 9034.471)">
    <g id="Group_1204131" data-name="Group 1204131" transform="translate(-6507.27 -9034.472)">
      <g id="Mask_Group_1099459" data-name="Mask Group 1099459" transform="translate(0 0)" clip-path="url(#clip-path)">
        <g id="Group_1204095" data-name="Group 1204095" transform="translate(0 4.909)">
          <g id="Group_1204093" data-name="Group 1204093" transform="translate(0)">
            <ellipse id="Ellipse_12744" data-name="Ellipse 12744" cx="22.428" cy="22.428" rx="22.428" ry="22.428" transform="translate(44.238 34.661)" fill="#ffc94a"/>
            <ellipse id="Ellipse_12745" data-name="Ellipse 12745" cx="16.311" cy="16.311" rx="16.311" ry="16.311" fill="#ffc94a"/>
          </g>
        </g>
      </g>
      <g id="Mask_Group_1099463" data-name="Mask Group 1099463" transform="translate(14.154 11.38)" clip-path="url(#clip-path-2)">
        <g id="_x31_4108_-_Production_Priorities" transform="translate(0 2.605)">
          <g id="Group_1204130" data-name="Group 1204130">
            <g id="XMLID_18_">
              <g id="Group_1204116" data-name="Group 1204116" transform="translate(0.975 0.975)">
                <g id="Group_1204112-2" data-name="Group 1204112" transform="translate(0 14.227)">
                  <path id="Path_1269564" data-name="Path 1269564" d="M46.756,48.567V50.9H43.312a12.8,12.8,0,0,1-2,4.821l2.436,2.436-3.413,3.413L37.9,59.131a12.8,12.8,0,0,1-4.82,2v3.443H28.255V61.129a12.8,12.8,0,0,1-4.821-2L21,61.567l-3.413-3.413,2.436-2.436a12.8,12.8,0,0,1-2-4.821H14.58V46.236h3.443a12.8,12.8,0,0,1,2-4.821L17.586,38.98,21,35.567,23.435,38a12.8,12.8,0,0,1,4.821-2V32.561h4.826V36a12.8,12.8,0,0,1,4.82,2l2.436-2.436L43.75,38.98l-2.436,2.436a12.8,12.8,0,0,1,2,4.821h3.443Zm-8.026-.118a8.062,8.062,0,1,0-8.062,8.062,8.062,8.062,0,0,0,8.062-8.062Z" transform="translate(-14.58 -32.561)" fill="#738b95"/>
                </g>
                <g id="Group_1204113" data-name="Group 1204113" transform="translate(47.292 49.38)">
                  <path id="Path_1269565" data-name="Path 1269565" d="M86.814,77.265V88.35H74.721V77.265Z" transform="translate(-74.721 -77.265)" fill="#b3e59f"/>
                </g>
                <g id="Group_1204114" data-name="Group 1204114" transform="translate(47.292 24.186)">
                  <path id="Path_1269566" data-name="Path 1269566" d="M86.814,45.226V56.312H74.721V45.226Z" transform="translate(-74.721 -45.226)" fill="#dd636e"/>
                </g>
                <g id="Group_1204115" data-name="Group 1204115" transform="translate(47.292)">
                  <path id="Path_1269567" data-name="Path 1269567" d="M86.814,14.469V25.554H74.721V14.469Z" transform="translate(-74.721 -14.469)" fill="#b3e59f"/>
                </g>
              </g>
              <g id="Group_1204129" data-name="Group 1204129">
                <g id="Group_1204117" data-name="Group 1204117" transform="translate(0 14.227)">
                  <path id="Path_1269568" data-name="Path 1269568" d="M32.816,65.283H27.99a.975.975,0,0,1-.975-.975v-2.66a13.671,13.671,0,0,1-3.71-1.538l-1.882,1.882a.975.975,0,0,1-1.379,0l-3.413-3.412a.975.975,0,0,1,0-1.379l1.882-1.882a13.67,13.67,0,0,1-1.538-3.71h-2.66a.975.975,0,0,1-.975-.975V45.971A.975.975,0,0,1,14.315,45h2.66a13.671,13.671,0,0,1,1.538-3.71L16.631,39.4a.975.975,0,0,1,0-1.379l3.413-3.413a.975.975,0,0,1,1.379,0l1.882,1.882a13.67,13.67,0,0,1,3.71-1.538V32.3a.975.975,0,0,1,.975-.975h4.826a.975.975,0,0,1,.975.975v2.66A13.668,13.668,0,0,1,37.5,36.494l1.882-1.882a.975.975,0,0,1,1.379,0l3.413,3.413a.975.975,0,0,1,0,1.379l-1.882,1.882A13.663,13.663,0,0,1,43.831,45h2.66a.975.975,0,0,1,.975.975v4.662a.975.975,0,0,1-.975.975h-2.66a13.662,13.662,0,0,1-1.538,3.71L44.175,57.2a.975.975,0,0,1,0,1.379l-3.413,3.412a.975.975,0,0,1-1.379,0L37.5,60.11a13.67,13.67,0,0,1-3.709,1.538v2.66A.975.975,0,0,1,32.816,65.283Zm-3.851-1.95h2.876V60.864a.975.975,0,0,1,.793-.958,11.772,11.772,0,0,0,4.453-1.846.975.975,0,0,1,1.238.117l1.746,1.746,2.033-2.033L40.36,56.143a.975.975,0,0,1-.117-1.238,11.764,11.764,0,0,0,1.846-4.453.975.975,0,0,1,.958-.794h2.468V46.946H43.047a.975.975,0,0,1-.958-.794A11.763,11.763,0,0,0,40.243,41.7a.975.975,0,0,1,.117-1.238l1.746-1.746-2.033-2.033-1.746,1.746a.975.975,0,0,1-1.238.117A11.77,11.77,0,0,0,32.635,36.7a.975.975,0,0,1-.793-.958V33.272H28.965V35.74a.975.975,0,0,1-.793.958,11.771,11.771,0,0,0-4.454,1.846.975.975,0,0,1-1.238-.117l-1.746-1.746L18.7,38.715l1.746,1.746a.975.975,0,0,1,.117,1.238,11.771,11.771,0,0,0-1.846,4.454.975.975,0,0,1-.958.793H15.29v2.711h2.468a.975.975,0,0,1,.958.793A11.771,11.771,0,0,0,20.563,54.9a.975.975,0,0,1-.117,1.238L18.7,57.889l2.033,2.033,1.746-1.746a.975.975,0,0,1,1.238-.117,11.772,11.772,0,0,0,4.454,1.846.975.975,0,0,1,.793.958v2.468Z" transform="translate(-13.34 -31.321)" fill="#212121"/>
                </g>
                <g id="Group_1204118" data-name="Group 1204118" transform="translate(8.026 22.052)">
                  <path id="Path_1269569" data-name="Path 1269569" d="M32.584,59.347a9.037,9.037,0,1,1,6.39-2.647,8.978,8.978,0,0,1-6.39,2.647Zm0-16.124A7.087,7.087,0,1,0,39.67,50.31a7.095,7.095,0,0,0-7.087-7.087Z" transform="translate(-23.546 -41.273)" fill="#212121"/>
                </g>
                <g id="Group_1204119" data-name="Group 1204119" transform="translate(39.23 6.046)">
                  <path id="Path_1269570" data-name="Path 1269570" d="M64.2,47.055a.975.975,0,0,1-.975-.975V21.893a.975.975,0,0,1,.975-.975h8.062a.975.975,0,0,1,0,1.95H65.179V46.079A.975.975,0,0,1,64.2,47.055Z" transform="translate(-63.229 -20.918)" fill="#212121"/>
                </g>
                <g id="Group_1204120" data-name="Group 1204120" transform="translate(32.176 30.232)">
                  <path id="Path_1269571" data-name="Path 1269571" d="M70.349,53.626H55.233a.975.975,0,0,1,0-1.95H70.349a.975.975,0,0,1,0,1.95Z" transform="translate(-54.258 -51.675)" fill="#212121"/>
                </g>
                <g id="Group_1204121" data-name="Group 1204121" transform="translate(39.23 30.232)">
                  <path id="Path_1269572" data-name="Path 1269572" d="M72.266,78.82H64.2a.975.975,0,0,1-.975-.975V52.651a.975.975,0,1,1,1.95,0V76.869h7.087a.975.975,0,0,1,0,1.95Z" transform="translate(-63.229 -51.675)" fill="#212121"/>
                </g>
                <g id="Group_1204122" data-name="Group 1204122" transform="translate(47.292)">
                  <path id="Path_1269573" data-name="Path 1269573" d="M86.549,26.265H74.456a.975.975,0,0,1-.975-.975V14.2a.975.975,0,0,1,.975-.975H86.549a.975.975,0,0,1,.975.975V25.289a.975.975,0,0,1-.975.975Zm-11.118-1.95H85.574V15.179H75.431Z" transform="translate(-73.481 -13.229)" fill="#212121"/>
                </g>
                <g id="Group_1204123" data-name="Group 1204123" transform="translate(51.323 4.031)">
                  <path id="Path_1269574" data-name="Path 1269574" d="M80.59,23.329a.975.975,0,0,1-.69-.286l-1.008-1.008a.975.975,0,0,1,1.379-1.379l.318.318,2.334-2.334A.975.975,0,0,1,84.3,20.02L81.28,23.043A.975.975,0,0,1,80.59,23.329Z" transform="translate(-78.607 -18.355)" fill="#212121"/>
                </g>
                <g id="Group_1204124" data-name="Group 1204124" transform="translate(47.292 24.186)">
                  <path id="Path_1269575" data-name="Path 1269575" d="M86.549,57.022H74.456a.975.975,0,0,1-.975-.975V44.961a.975.975,0,0,1,.975-.975H86.549a.975.975,0,0,1,.975.975V56.047a.975.975,0,0,1-.975.975Zm-11.118-1.95H85.574V45.937H75.431Z" transform="translate(-73.481 -43.986)" fill="#212121"/>
                </g>
                <g id="Group_1204125" data-name="Group 1204125" transform="translate(47.292 49.38)">
                  <path id="Path_1269576" data-name="Path 1269576" d="M86.549,89.061H74.456a.975.975,0,0,1-.975-.975V77a.975.975,0,0,1,.975-.975H86.549a.975.975,0,0,1,.975.975V88.085a.975.975,0,0,1-.975.975ZM75.431,87.11H85.574V77.975H75.431Z" transform="translate(-73.481 -76.025)" fill="#212121"/>
                </g>
                <g id="Group_1204126" data-name="Group 1204126" transform="translate(51.323 53.411)">
                  <path id="Path_1269577" data-name="Path 1269577" d="M80.59,86.125a.972.972,0,0,1-.69-.286l-1.008-1.008a.975.975,0,0,1,1.379-1.379l.318.318,2.334-2.334A.975.975,0,0,1,84.3,82.816L81.28,85.839A.972.972,0,0,1,80.59,86.125Z" transform="translate(-78.607 -81.151)" fill="#212121"/>
                </g>
                <g id="Group_1204127" data-name="Group 1204127" transform="translate(51.827 28.217)">
                  <path id="Path_1269578" data-name="Path 1269578" d="M80.223,54.086a.975.975,0,0,1-.69-1.665L82.557,49.4a.975.975,0,1,1,1.379,1.379L80.913,53.8a.972.972,0,0,1-.69.286Z" transform="translate(-79.248 -49.112)" fill="#212121"/>
                </g>
                <g id="Group_1204128" data-name="Group 1204128" transform="translate(51.827 28.217)">
                  <path id="Path_1269579" data-name="Path 1269579" d="M83.246,54.086a.972.972,0,0,1-.69-.286l-3.023-3.023A.975.975,0,1,1,80.913,49.4l3.023,3.023a.975.975,0,0,1-.69,1.665Z" transform="translate(-79.248 -49.112)" fill="#212121"/>
                </g>
              </g>
            </g>
          </g>
        </g>
      </g>
    </g>
  </g>
</svg>
