<svg xmlns="http://www.w3.org/2000/svg" xmlns:xlink="http://www.w3.org/1999/xlink" width="85.411" height="85.411" viewBox="0 0 85.411 85.411">
  <defs>
    <clipPath id="clip-path">
      <rect id="Rectangle_411866" data-name="Rectangle 411866" width="85.411" height="85.411" transform="translate(0 0)" fill="#e8bad8" opacity="0.41"/>
    </clipPath>
    <clipPath id="clip-path-2">
      <rect id="Rectangle_411867" data-name="Rectangle 411867" width="57.931" height="63.872" fill="#fff" stroke="#707070" stroke-width="1" opacity="0"/>
    </clipPath>
  </defs>
  <g id="Group_1204100" data-name="Group 1204100" transform="translate(6507.27 9034.472)">
    <g id="Group_1204134" data-name="Group 1204134" transform="translate(-6507.27 -9034.472)">
      <g id="Mask_Group_1099459" data-name="Mask Group 1099459" clip-path="url(#clip-path)">
        <g id="Group_1204095" data-name="Group 1204095" transform="translate(0 4.659)">
          <g id="Group_1204093" data-name="Group 1204093" transform="translate(0)">
            <ellipse id="Ellipse_12744" data-name="Ellipse 12744" cx="21.284" cy="21.284" rx="21.284" ry="21.284" transform="translate(41.983 32.894)" fill="#ffc94a"/>
            <ellipse id="Ellipse_12745" data-name="Ellipse 12745" cx="15.479" cy="15.479" rx="15.479" ry="15.479" fill="#ffc94a"/>
          </g>
        </g>
      </g>
      <g id="Mask_Group_1099465" data-name="Mask Group 1099465" transform="translate(13.569 10.748)" clip-path="url(#clip-path-2)">
        <g id="empresa-conjunta" transform="translate(0 2.971)">
          <path id="Path_1269580" data-name="Path 1269580" d="M54.794,56.09H48.149a1.948,1.948,0,0,0,0,3.9h9.693v10.85h11.4V56.09a3.717,3.717,0,0,0-3.706-3.706H61.548A3.712,3.712,0,0,0,58.423,54.1a4.2,4.2,0,0,1-3.629,1.987Z" transform="translate(-12.231 -13.821)" fill="#fcdb35" fill-rule="evenodd"/>
          <path id="Path_1269581" data-name="Path 1269581" d="M54.794,56.09H48.149a1.948,1.948,0,0,0,0,3.9h9.693v10.85h9.972V56.09a3.717,3.717,0,0,0-3.706-3.706h-2.56A3.712,3.712,0,0,0,58.423,54.1a4.2,4.2,0,0,1-3.629,1.987Z" transform="translate(-12.231 -13.821)" fill="#ffe259" fill-rule="evenodd"/>
          <circle id="Ellipse_12748" data-name="Ellipse 12748" cx="4.276" cy="4.276" r="4.276" transform="translate(45.257 31.706) rotate(-45)" fill="#e6d6d1"/>
          <g id="Group_1204133" data-name="Group 1204133" transform="translate(12.125 14.433)">
            <path id="Path_1269582" data-name="Path 1269582" d="M67.354,45.9a4.277,4.277,0,0,0,0-8.433,4.277,4.277,0,0,0,0,8.433Z" transform="translate(-28.882 -24.417)" fill="#f0e3df" fill-rule="evenodd"/>
            <path id="Path_1269583" data-name="Path 1269583" d="M48.364,33.265l5.7-2.241V27.375c-.042-3.561-.325-6.273-1.922-7.48l-4.019,2.294a7.576,7.576,0,0,1-5.618.444,6.433,6.433,0,0,0-5.28.748q-.225.126-.448.265l-5.418,3.378a1.258,1.258,0,0,0-.033,2.126c2.554,2.115,4.592-1.1,7.625-1.117a6.917,6.917,0,0,1,3.569,1.281l5.067,2.926a1.893,1.893,0,0,1,.783,1.025Z" transform="translate(-20.38 -19.895)" fill="#f0e3df" fill-rule="evenodd"/>
            <path id="Path_1269584" data-name="Path 1269584" d="M27.728,29.15a1.258,1.258,0,0,1,.033-2.126l5.418-3.378q.223-.139.448-.265a6.433,6.433,0,0,0-5.28-.748,7.576,7.576,0,0,1-5.618-.444l-4.02-2.294c-1.6,1.207-1.88,3.919-1.922,7.48v3.649c3.638,1.875,4.615,2.864,7.746,5.065A55.185,55.185,0,0,0,32.211,40.5l1.733.821c2.173,1.255,3.486-1.417,1.782-2.4l1.35.779a1.584,1.584,0,0,0,1.59-2.739h0l.949.548a1.686,1.686,0,0,0,1.695-2.916l.992.573a1.684,1.684,0,0,0,2.469-1.9,1.893,1.893,0,0,0-.783-1.025l-5.067-2.926a6.918,6.918,0,0,0-3.569-1.281c-3.033.018-5.07,3.232-7.625,1.117Z" transform="translate(-16.788 -19.895)" fill="#d9c5bf" fill-rule="evenodd"/>
            <path id="Path_1269585" data-name="Path 1269585" d="M51.9,38.481l-5.494-3.172a.843.843,0,1,0-.843,1.461L49.6,39.1a1.691,1.691,0,0,0,2.3-.618Z" transform="translate(-24.084 -23.832)" fill="#ccb6af" fill-rule="evenodd"/>
            <path id="Path_1269586" data-name="Path 1269586" d="M42.995,38.581a.843.843,0,0,0-.843,1.461l3.885,2.243a1.692,1.692,0,0,0,2.3-.619l-5.342-3.085Z" transform="translate(-23.206 -24.674)" fill="#ccb6af" fill-rule="evenodd"/>
            <path id="Path_1269587" data-name="Path 1269587" d="M44.819,44.781l-5.094-2.941a.766.766,0,1,0-.766,1.326l3.724,2.15a1.589,1.589,0,0,0,2.136-.535Z" transform="translate(-22.394 -25.515)" fill="#ccb6af" fill-rule="evenodd"/>
          </g>
          <circle id="Ellipse_12749" data-name="Ellipse 12749" cx="6.769" cy="6.769" r="6.769" transform="translate(22.196 0.916)" fill="#4eb1fc"/>
          <path id="Path_1269588" data-name="Path 1269588" d="M36.544,15.217a6.769,6.769,0,0,1,0-13.49,6.769,6.769,0,0,1,0,13.49Z" transform="translate(-8.152 -0.788)" fill="#6cbfff" fill-rule="evenodd"/>
          <path id="Path_1269589" data-name="Path 1269589" d="M16.146,56.09h6.645a1.948,1.948,0,1,1,0,3.9H13.1v10.85H1.7V56.09A3.717,3.717,0,0,1,5.4,52.384H9.392A3.712,3.712,0,0,1,12.517,54.1a4.2,4.2,0,0,0,3.629,1.987Z" transform="translate(-0.779 -13.821)" fill="#6cbfff" fill-rule="evenodd"/>
          <circle id="Ellipse_12750" data-name="Ellipse 12750" cx="4.276" cy="4.276" r="4.276" transform="translate(0.566 31.701) rotate(-45)" fill="#e6d6d1"/>
          <path id="Path_1269590" data-name="Path 1269590" d="M7.175,45.9a4.277,4.277,0,0,1,0-8.433,4.277,4.277,0,0,1,0,8.433Z" transform="translate(-1.273 -9.985)" fill="#f0e3df" fill-rule="evenodd"/>
          <path id="Path_1269591" data-name="Path 1269591" d="M48.415,32.158a3.36,3.36,0,1,0,3.359-3.36A3.363,3.363,0,0,0,48.415,32.158Zm-1.831,0a5.193,5.193,0,1,1,5.191,5.192A5.2,5.2,0,0,1,46.584,32.158ZM56.56,42.731a2.794,2.794,0,0,0-2.788-2.791H49.78a2.785,2.785,0,0,0-2.353,1.3,5.135,5.135,0,0,1-4.4,2.41H36.38a1.032,1.032,0,0,0,0,2.064h9.448l3.621-2.09a.916.916,0,0,1,.916,1.587L46.99,47.156v9.4h9.57V42.731Zm1.833,0V57.477a.915.915,0,0,1-.916.916h-11.4a.916.916,0,0,1-.916-.916V47.543H36.38a2.864,2.864,0,0,1,0-5.728h6.646a3.294,3.294,0,0,0,2.858-1.565,4.608,4.608,0,0,1,3.9-2.142h3.993a4.629,4.629,0,0,1,4.62,4.623ZM3.72,32.158A3.36,3.36,0,1,0,7.08,28.8a3.364,3.364,0,0,0-3.36,3.36Zm-1.831,0A5.192,5.192,0,1,1,7.08,37.35a5.2,5.2,0,0,1-5.191-5.192Zm21.618,12.52a1.032,1.032,0,0,0-1.031-1.031H15.829a5.132,5.132,0,0,1-4.4-2.41,2.787,2.787,0,0,0-2.354-1.3H5.084a2.794,2.794,0,0,0-2.79,2.791v13.83h9.572v-9.4L8.492,45.208a.916.916,0,1,1,.916-1.587l3.62,2.09h9.448a1.033,1.033,0,0,0,1.031-1.033Zm1.832,0a2.868,2.868,0,0,1-2.863,2.865H13.7v9.934a.916.916,0,0,1-.916.916H1.379a.916.916,0,0,1-.916-.916V42.731a4.628,4.628,0,0,1,4.622-4.623H9.076a4.613,4.613,0,0,1,3.9,2.142,3.289,3.289,0,0,0,2.856,1.565h6.646a2.867,2.867,0,0,1,2.863,2.863ZM23.575,8.147a5.853,5.853,0,1,0,5.853-5.853A5.859,5.859,0,0,0,23.575,8.147Zm-1.832,0a7.685,7.685,0,1,1,7.685,7.685A7.694,7.694,0,0,1,21.743,8.147Zm6.219,3.388a.918.918,0,0,1-.67-.379L25.123,8.129a.916.916,0,0,1,1.489-1.067l1.54,2.15,3.8-3.8a.916.916,0,0,1,1.3,1.3L28.685,11.27a.919.919,0,0,1-.649.268c-.024,0-.049,0-.074,0Zm5.707,24.307a2.553,2.553,0,0,0,.655-.086,2.495,2.495,0,0,0,1.835-2.1c.036,0,.071,0,.107,0a2.617,2.617,0,0,0,.681-.09,2.588,2.588,0,0,0,1.917-2.261c.032,0,.063,0,.1,0a2.62,2.62,0,0,0,.681-.091,2.588,2.588,0,0,0,1.583-1.212,2.623,2.623,0,0,0,.338-1.135l5.077-2a.916.916,0,1,0-.67-1.7l-4.956,1.95a3.173,3.173,0,0,0-.666-.623c-.025-.018-.05-.034-.077-.05l-5.2-3a7.479,7.479,0,0,0-3.881-1.334h-.033a8.3,8.3,0,0,0-3.643,1.1c-1.568.766-2.367,1.1-3.408.234A.608.608,0,0,1,23.859,23c0-.029.007-.107.174-.211l5.43-3.385a5.729,5.729,0,0,1,4.97-.923,8.46,8.46,0,0,0,6.371-.519l4.028-2.3a.915.915,0,0,0-.908-1.59l-4.029,2.3a6.69,6.69,0,0,1-4.888.37,7.139,7.139,0,0,0-5.578.584,7.137,7.137,0,0,0-5.579-.584,6.7,6.7,0,0,1-4.89-.37l-4.027-2.3a.916.916,0,1,0-.909,1.59l4.029,2.3a8.46,8.46,0,0,0,6.37.519,4.871,4.871,0,0,1,3.039.013l-4.4,2.741a2.083,2.083,0,0,0-1.033,1.642,2.388,2.388,0,0,0,.9,1.971c2,1.654,3.874.738,5.381,0a6.686,6.686,0,0,1,2.85-.91,5.864,5.864,0,0,1,2.986,1.087l5.163,2.981a.955.955,0,0,1,.408.533.778.778,0,0,1-.083.549.778.778,0,0,1-1.056.283l-4.437-2.562a.916.916,0,1,0-.916,1.586l3.435,1.983a.774.774,0,0,1-.774,1.341l-4.494-2.594a.916.916,0,1,0-.916,1.586l3.535,2.041h0a.671.671,0,0,1-.671,1.163l-4.479-2.585a.916.916,0,1,0-.916,1.586l3.123,1.8h0a.536.536,0,0,1,.248.765c-.191.329-.608.352-1.117.057-.022-.013-.044-.024-.067-.035L28.4,34.691a54.742,54.742,0,0,1-7.558-4.34c-.8-.56-1.463-1.049-2.052-1.48a37.037,37.037,0,0,0-5.818-3.661.916.916,0,0,0-.839,1.628,35.148,35.148,0,0,1,5.574,3.51c.6.437,1.27.932,2.08,1.5a56.606,56.606,0,0,0,7.83,4.5l1.7.808a3.085,3.085,0,0,0,1.518.429,2.362,2.362,0,0,0,2.067-1.177,2.406,2.406,0,0,0,.249-.619,2.443,2.443,0,0,0,.514.055Z" transform="translate(-0.462 -0.462)" fill-rule="evenodd"/>
        </g>
      </g>
    </g>
  </g>
</svg>
