<svg xmlns="http://www.w3.org/2000/svg" xmlns:xlink="http://www.w3.org/1999/xlink" width="85.411" height="85.411" viewBox="0 0 85.411 85.411">
  <defs>
    <clipPath id="clip-path">
      <rect id="Rectangle_411866" data-name="Rectangle 411866" width="85.411" height="85.411" transform="translate(0 0)" fill="#e8bad8" opacity="0.41"/>
    </clipPath>
    <clipPath id="clip-path-2">
      <rect id="Rectangle_412221" data-name="Rectangle 412221" width="58" height="63" transform="translate(12017 -10736)" fill="#fff" stroke="#707070" stroke-width="1" opacity="0"/>
    </clipPath>
    <clipPath id="clip-path-3">
      <path id="path9324" d="M0-58H58V0H0Z"/>
    </clipPath>
  </defs>
  <g id="Group_1204773" data-name="Group 1204773" transform="translate(-12003.539 10747.204)">
    <g id="Group_1204774" data-name="Group 1204774" transform="translate(11743.949 -16424.998)">
      <g id="Group_1204444" data-name="Group 1204444">
        <g id="Group_1204438" data-name="Group 1204438" transform="translate(6766.859 14712.266)">
          <g id="Group_1204134" data-name="Group 1204134" transform="translate(-6507.27 -9034.472)">
            <g id="Mask_Group_1099459" data-name="Mask Group 1099459" clip-path="url(#clip-path)">
              <g id="Group_1204095" data-name="Group 1204095" transform="translate(0 4.659)">
                <g id="Group_1204093" data-name="Group 1204093" transform="translate(0)">
                  <ellipse id="Ellipse_12744" data-name="Ellipse 12744" cx="21.284" cy="21.284" rx="21.284" ry="21.284" transform="translate(41.983 32.894)" fill="#ffc94a"/>
                  <ellipse id="Ellipse_12745" data-name="Ellipse 12745" cx="15.479" cy="15.479" rx="15.479" ry="15.479" fill="#ffc94a"/>
                </g>
              </g>
            </g>
          </g>
        </g>
      </g>
    </g>
    <g id="Mask_Group_1099580" data-name="Mask Group 1099580" clip-path="url(#clip-path-2)">
      <g id="g9318" transform="translate(12017 -10675.5)">
        <g id="g9320">
          <g id="g9322" clip-path="url(#clip-path-3)">
            <g id="g9328" transform="translate(56.187 -9.062)">
              <path id="path9330" d="M0,0H-14.5a.906.906,0,0,1-.906-.906V-9.969a.906.906,0,0,1,.906-.906h3.625l1.812,1.812H0a.906.906,0,0,1,.906.906v7.25A.906.906,0,0,1,0,0" fill="#ffe477"/>
            </g>
            <g id="g9332" transform="translate(55.281 -18.125)">
              <path id="path9334" d="M0,0V7.25H-14.5v.906a.906.906,0,0,0,.906.906H.906a.906.906,0,0,0,.906-.906V.906A.906.906,0,0,0,.906,0Z" fill="#ffb655"/>
            </g>
            <g id="g9336" transform="translate(56.187 -9.062)">
              <path id="path9338" d="M0,0H-14.5a.906.906,0,0,1-.906-.906V-9.969a.906.906,0,0,1,.906-.906h3.625l1.812,1.812H0a.906.906,0,0,1,.906.906v7.25A.906.906,0,0,1,0,0Z" fill="none" stroke="#000" stroke-miterlimit="10" stroke-width="1.699"/>
            </g>
            <g id="g9340" transform="translate(52.562 -12.688)">
              <path id="path9342" d="M0,0H1.813" fill="none" stroke="#fff" stroke-miterlimit="10" stroke-width="1.699"/>
            </g>
            <g id="g9344" transform="translate(56.187 -23.563)">
              <path id="path9346" d="M0,0H-14.5a.906.906,0,0,1-.906-.906V-9.969a.906.906,0,0,1,.906-.906h3.625l1.812,1.812H0a.906.906,0,0,1,.906.906v7.25A.906.906,0,0,1,0,0" fill="#ffe477"/>
            </g>
            <g id="g9348" transform="translate(55.281 -32.625)">
              <path id="path9350" d="M0,0V7.25H-14.5v.906a.906.906,0,0,0,.906.906H.906a.906.906,0,0,0,.906-.906V.906A.906.906,0,0,0,.906,0Z" fill="#ffb655"/>
            </g>
            <g id="g9352" transform="translate(56.187 -23.563)">
              <path id="path9354" d="M0,0H-14.5a.906.906,0,0,1-.906-.906V-9.969a.906.906,0,0,1,.906-.906h3.625l1.812,1.812H0a.906.906,0,0,1,.906.906v7.25A.906.906,0,0,1,0,0Z" fill="none" stroke="#000" stroke-miterlimit="10" stroke-width="1.699"/>
            </g>
            <g id="g9356" transform="translate(52.562 -27.188)">
              <path id="path9358" d="M0,0H1.813" fill="none" stroke="#fff" stroke-miterlimit="10" stroke-width="1.699"/>
            </g>
            <g id="g9360" transform="translate(56.187 -38.063)">
              <path id="path9362" d="M0,0H-14.5a.906.906,0,0,1-.906-.906V-9.969a.906.906,0,0,1,.906-.906h3.625l1.812,1.812H0a.906.906,0,0,1,.906.906v7.25A.906.906,0,0,1,0,0" fill="#ffe477"/>
            </g>
            <g id="g9364" transform="translate(55.281 -47.125)">
              <path id="path9366" d="M0,0V7.25H-14.5v.906a.906.906,0,0,0,.906.906H.906a.906.906,0,0,0,.906-.906V.906A.906.906,0,0,0,.906,0Z" fill="#ffb655"/>
            </g>
            <g id="g9368" transform="translate(56.187 -38.063)">
              <path id="path9370" d="M0,0H-14.5a.906.906,0,0,1-.906-.906V-9.969a.906.906,0,0,1,.906-.906h3.625l1.812,1.812H0a.906.906,0,0,1,.906.906v7.25A.906.906,0,0,1,0,0Z" fill="none" stroke="#000" stroke-miterlimit="10" stroke-width="1.699"/>
            </g>
            <g id="g9372" transform="translate(52.562 -41.688)">
              <path id="path9374" d="M0,0H1.813" fill="none" stroke="#fff" stroke-miterlimit="10" stroke-width="1.699"/>
            </g>
            <g id="g9376" transform="translate(40.781 -29)">
              <path id="path9378" d="M0,0H-15.406" fill="none" stroke="#000" stroke-miterlimit="10" stroke-width="1.699"/>
            </g>
            <g id="g9380" transform="translate(40.781 -14.5)">
              <path id="path9382" d="M0,0H-9.062a.906.906,0,0,1-.906-.906V-28.094A.906.906,0,0,1-9.062-29h6.344" fill="none" stroke="#000" stroke-miterlimit="10" stroke-width="1.699"/>
            </g>
            <g id="g9384" transform="translate(21.75 -15.406)">
              <path id="path9386" d="M0,0H-19.937a.906.906,0,0,1-.906-.906V-26.281a.906.906,0,0,1,.906-.906H0a.906.906,0,0,1,.906.906V-.906A.906.906,0,0,1,0,0" fill="#d7fc7e"/>
            </g>
            <g id="g9388" transform="translate(21.75 -42.594)">
              <path id="path9390" d="M0,0H-.906V27.188H0a.906.906,0,0,0,.906-.906V.906A.906.906,0,0,0,0,0" fill="#55e072"/>
            </g>
            <g id="g9392" transform="translate(21.75 -15.406)">
              <path id="path9394" d="M0,0H-19.937a.906.906,0,0,1-.906-.906V-5.437H.906V-.906A.906.906,0,0,1,0,0" fill="#57a4ff"/>
            </g>
            <g id="g9396" transform="translate(20.844 -20.844)">
              <path id="path9398" d="M0,0V5.437H.906a.906.906,0,0,0,.906-.906V0Z" fill="#006df0"/>
            </g>
            <g id="g9400" transform="translate(0.906 -31.719)">
              <path id="path9402" d="M0,0V-9.969a.906.906,0,0,1,.906-.906H20.844a.906.906,0,0,1,.906.906V15.406a.906.906,0,0,1-.906.906H.906A.906.906,0,0,1,0,15.406V1.813" fill="none" stroke="#000" stroke-miterlimit="10" stroke-width="1.699"/>
            </g>
            <g id="g9404" transform="translate(0.906 -20.844)">
              <path id="path9406" d="M0,0H21.75" fill="none" stroke="#000" stroke-miterlimit="10" stroke-width="1.699"/>
            </g>
            <g id="g9408" transform="translate(18.125 -31.719)">
              <path id="path9410" d="M0,0A6.344,6.344,0,0,1-6.344,6.344,6.344,6.344,0,0,1-12.687,0,6.344,6.344,0,0,1-6.344-6.344,6.344,6.344,0,0,1,0,0" fill="#bddbff"/>
            </g>
            <g id="g9412" transform="translate(11.781 -38.063)">
              <path id="path9414" d="M0,0A6.393,6.393,0,0,0-.906.065,6.344,6.344,0,0,1,4.531,6.344,6.344,6.344,0,0,1-.906,12.622,6.393,6.393,0,0,0,0,12.688,6.344,6.344,0,0,0,6.344,6.344,6.344,6.344,0,0,0,0,0" fill="#57a4ff"/>
            </g>
            <g id="g9416" transform="translate(15.406 -26.512)">
              <path id="path9418" d="M0,0A6.315,6.315,0,0,1-3.625,1.137,6.344,6.344,0,0,1-9.969-5.207,6.344,6.344,0,0,1-3.625-11.55,6.344,6.344,0,0,1,2.719-5.207,6.315,6.315,0,0,1,1.582-1.582" fill="none" stroke="#000" stroke-miterlimit="10" stroke-width="1.699"/>
            </g>
            <g id="g9420" transform="translate(13.594 -31.719)">
              <path id="path9422" d="M0,0A1.812,1.812,0,0,1-1.812,1.813,1.812,1.812,0,0,1-3.625,0,1.812,1.812,0,0,1-1.812-1.812,1.812,1.812,0,0,1,0,0" fill="#57a4ff"/>
            </g>
            <g id="g9424" transform="translate(11.781 -33.531)">
              <path id="path9426" d="M0,0A1.8,1.8,0,0,0-.906.244,1.81,1.81,0,0,1,0,1.813,1.81,1.81,0,0,1-.906,3.381,1.8,1.8,0,0,0,0,3.625,1.813,1.813,0,0,0,1.813,1.813,1.813,1.813,0,0,0,0,0" fill="#006df0"/>
            </g>
            <g id="g9428" transform="translate(13.594 -31.719)">
              <path id="path9430" d="M0,0A1.812,1.812,0,0,1-1.812,1.813,1.812,1.812,0,0,1-3.625,0,1.812,1.812,0,0,1-1.812-1.812,1.812,1.812,0,0,1,0,0Z" fill="none" stroke="#000" stroke-miterlimit="10" stroke-width="1.699"/>
            </g>
            <g id="g9432" transform="translate(19.487 -24.013)">
              <path id="path9434" d="M0,0A1.534,1.534,0,0,1-1.087.451a1.537,1.537,0,0,1-1.3-.715L-6.476-6.216l.261-.261L-.264-2.39A1.541,1.541,0,0,1,0,0" fill="#ffb655"/>
            </g>
            <g id="g9436" transform="translate(19.938 -25.101)">
              <path id="path9438" d="M0,0A1.534,1.534,0,0,1-.451,1.087,1.535,1.535,0,0,1-1,1.441,1.539,1.539,0,0,0-1.621-.4L-5.513-3.069-6.927-5.128l.261-.261L-.715-1.3A1.537,1.537,0,0,1,0,0" fill="#ff7956"/>
            </g>
            <g id="g9440" transform="translate(12.801 -30.813)">
              <path id="path9442" d="M0,0,6.422,4.409A1.54,1.54,0,0,1,6.685,6.8h0A1.54,1.54,0,0,1,4.3,6.535L-.113.113" fill="none" stroke="#000" stroke-miterlimit="10" stroke-width="1.699"/>
            </g>
            <g id="g9444" transform="translate(3.625 -38.969)">
              <path id="path9446" d="M0,0H1.813" fill="none" stroke="#fff" stroke-miterlimit="10" stroke-width="1.699"/>
            </g>
            <g id="g9448" transform="translate(18.125 -38.969)">
              <path id="path9450" d="M0,0H1.813" fill="none" stroke="#fff" stroke-miterlimit="10" stroke-width="1.699"/>
            </g>
            <g id="g9452" transform="translate(3.625 -24.469)">
              <path id="path9454" d="M0,0H1.813" fill="none" stroke="#fff" stroke-miterlimit="10" stroke-width="1.699"/>
            </g>
            <g id="g9456" transform="translate(3.625 -18.125)">
              <path id="path9458" d="M0,0H1.813" fill="none" stroke="#fff" stroke-miterlimit="10" stroke-width="1.699"/>
            </g>
            <g id="g9460" transform="translate(18.125 -18.125)">
              <path id="path9462" d="M0,0H1.813" fill="none" stroke="#fff" stroke-miterlimit="10" stroke-width="1.699"/>
            </g>
            <g id="g9464" transform="translate(7.25 -18.125)">
              <path id="path9466" d="M0,0H9.063" fill="none" stroke="#000" stroke-miterlimit="10" stroke-width="1.699"/>
            </g>
          </g>
        </g>
      </g>
    </g>
  </g>
</svg>
