<svg xmlns="http://www.w3.org/2000/svg" xmlns:xlink="http://www.w3.org/1999/xlink" width="85.411" height="85.411" viewBox="0 0 85.411 85.411">
  <defs>
    <clipPath id="clip-path">
      <rect id="Rectangle_411866" data-name="Rectangle 411866" width="85.411" height="85.411" transform="translate(0 0)" fill="#e8bad8" opacity="0.41"/>
    </clipPath>
    <clipPath id="clip-path-2">
      <rect id="Rectangle_412043" data-name="Rectangle 412043" width="58" height="63" transform="translate(273.051 5689)" fill="#fff" stroke="#707070" stroke-width="1" opacity="0"/>
    </clipPath>
  </defs>
  <g id="Group_1204438" data-name="Group 1204438" transform="translate(-259.589 -5677.794)">
    <g id="Group_1204444" data-name="Group 1204444">
      <g id="Group_1204438-2" data-name="Group 1204438" transform="translate(6766.859 14712.266)">
        <g id="Group_1204134" data-name="Group 1204134" transform="translate(-6507.27 -9034.472)">
          <g id="Mask_Group_1099459" data-name="Mask Group 1099459" clip-path="url(#clip-path)">
            <g id="Group_1204095" data-name="Group 1204095" transform="translate(0 4.659)">
              <g id="Group_1204093" data-name="Group 1204093" transform="translate(0)">
                <ellipse id="Ellipse_12744" data-name="Ellipse 12744" cx="21.284" cy="21.284" rx="21.284" ry="21.284" transform="translate(41.983 32.894)" fill="#ffc94a"/>
                <ellipse id="Ellipse_12745" data-name="Ellipse 12745" cx="15.479" cy="15.479" rx="15.479" ry="15.479" fill="#ffc94a"/>
              </g>
            </g>
          </g>
        </g>
      </g>
      <g id="Mask_Group_1099512" data-name="Mask Group 1099512" clip-path="url(#clip-path-2)">
        <g id="vision" transform="translate(272.232 5690.682)">
          <g id="Group_1204443" data-name="Group 1204443">
            <g id="Group_1204441" data-name="Group 1204441">
              <path id="Path_1276369" data-name="Path 1276369" d="M35.406,6.4A23.926,23.926,0,0,1,42.42,9.312L46.977,7.29l5.37,5.37-2.022,4.558a23.926,23.926,0,0,1,2.907,7.014l4.651,1.79v7.6l-4.651,1.79a23.944,23.944,0,0,1-2.907,7.011l2.022,4.558-5.37,5.373L42.42,50.325a23.931,23.931,0,0,1-7.014,2.91l-1.79,4.647h-7.6l-1.79-4.651a23.944,23.944,0,0,1-7.011-2.907L12.66,52.351,7.286,46.977l2.025-4.554A24.006,24.006,0,0,1,6.4,35.409l-4.647-1.79v-7.6L6.4,24.231a23.931,23.931,0,0,1,2.91-7.014L7.286,12.66,12.66,7.29l4.554,2.022A24,24,0,0,1,24.228,6.4l1.79-4.651h7.6Z" fill="#ffe177" fill-rule="evenodd"/>
              <path id="Path_1276370" data-name="Path 1276370" d="M45.446,7.969l1.531-.68,5.37,5.37-2.022,4.558a23.926,23.926,0,0,1,2.907,7.014l4.651,1.79v7.6l-4.651,1.79a23.944,23.944,0,0,1-2.907,7.011l2.022,4.558-5.37,5.373-1.531-.68,4.694-4.694L48.114,42.42a23.944,23.944,0,0,0,2.907-7.011l4.651-1.79v-7.6l-4.651-1.79a23.926,23.926,0,0,0-2.907-7.014L50.14,12.66Zm-33.466,0,.68-.68,4.554,2.022c-.321.179-.64.365-.951.56ZM35.406,6.4A23.926,23.926,0,0,1,42.42,9.312l-1.256.56A31.3,31.3,0,0,0,33.195,6.4L31.4,1.754h2.211ZM17.217,50.325,12.66,52.351l-.68-.68,4.283-1.9Q16.73,50.057,17.217,50.325Zm25.2,0a23.931,23.931,0,0,1-7.014,2.91l-1.79,4.647H31.4l1.79-4.647a31.371,31.371,0,0,0,7.972-3.467Z" fill="#ffd064" fill-rule="evenodd"/>
              <path id="Path_1276371" data-name="Path 1276371" d="M29.817,12.278A17.54,17.54,0,1,1,12.278,29.82,17.542,17.542,0,0,1,29.817,12.278Z" fill="#eceff1" fill-rule="evenodd"/>
              <path id="Path_1276372" data-name="Path 1276372" d="M29.817,12.278c.4,0,.795.014,1.19.043a17.539,17.539,0,0,0,0,35c-.4.025-.791.039-1.19.039a17.54,17.54,0,0,1,0-35.081Z" fill="#d1d1d6" fill-rule="evenodd"/>
            </g>
            <g id="Group_1204442" data-name="Group 1204442">
              <path id="Path_1276373" data-name="Path 1276373" d="M18.332,30.126a.54.54,0,0,1,0-.607,13.931,13.931,0,0,1,22.981,0,.54.54,0,0,1,0,.607,13.931,13.931,0,0,1-22.981,0Z" fill="#8ac9fe" fill-rule="evenodd"/>
              <path id="Path_1276374" data-name="Path 1276374" d="M29.456,23.469q.183,0,.367,0a13.923,13.923,0,0,1,11.491,6.055.54.54,0,0,1,0,.607,13.923,13.923,0,0,1-11.491,6.055q-.184,0-.367,0a13.924,13.924,0,0,0,11.124-6.05.54.54,0,0,0,0-.607,13.924,13.924,0,0,0-11.124-6.05Z" fill="#60b7ff" fill-rule="evenodd"/>
              <circle id="Ellipse_12771" data-name="Ellipse 12771" cx="4.234" cy="4.234" r="4.234" transform="translate(25.589 25.589)" fill="#eceff1"/>
              <path id="Path_1276375" data-name="Path 1276375" d="M30.132,34.045q-.153.011-.31.011a4.234,4.234,0,1,1,0-8.468q.156,0,.31.011a4.234,4.234,0,0,0,0,8.445Z" fill="#d1d1d6" fill-rule="evenodd"/>
            </g>
          </g>
          <path id="Path_1276376" data-name="Path 1276376" d="M36.107,5.621a24.809,24.809,0,0,1,6.379,2.643L46.6,6.436a.935.935,0,0,1,1.042.193L53.008,12a.935.935,0,0,1,.194,1.04L51.38,17.15a24.768,24.768,0,0,1,2.644,6.388l4.194,1.614a.936.936,0,0,1,.6.873v7.593a.935.935,0,0,1-.6.873l-4.195,1.615a25.023,25.023,0,0,1-2.644,6.379L53.2,46.6a.935.935,0,0,1-.194,1.04L47.64,53.008a.935.935,0,0,1-1.04.194l-4.112-1.821a24.731,24.731,0,0,1-6.381,2.644l-1.615,4.195a.935.935,0,0,1-.873.6H26.026a.936.936,0,0,1-.873-.6l-1.614-4.194a24.974,24.974,0,0,1-6.387-2.645L13.037,53.2A.935.935,0,0,1,12,53.008L6.629,47.64A.935.935,0,0,1,6.436,46.6l1.828-4.111a24.959,24.959,0,0,1-2.65-6.38l-4.2-1.615a.935.935,0,0,1-.6-.873V26.026a.936.936,0,0,1,.6-.873l4.2-1.615a24.989,24.989,0,0,1,2.65-6.387L6.436,13.039A.935.935,0,0,1,6.629,12L12,6.629a.935.935,0,0,1,1.042-.193l4.112,1.829a24.805,24.805,0,0,1,6.38-2.644l1.622-4.2a.936.936,0,0,1,.873-.6h7.593a.935.935,0,0,1,.873.6ZM34.535,6.747,32.976,2.69H26.667L25.1,6.748a.936.936,0,0,1-.656.573,22.94,22.94,0,0,0-6.738,2.792.936.936,0,0,1-.871.058L12.866,8.406,8.406,12.866l1.765,3.971a.936.936,0,0,1-.058.871,23.129,23.129,0,0,0-2.8,6.748.936.936,0,0,1-.574.655L2.69,26.668v6.309l4.05,1.559a.936.936,0,0,1,.573.654,23.084,23.084,0,0,0,2.8,6.739.935.935,0,0,1,.059.872L8.406,46.771l4.46,4.46,3.971-1.759a.936.936,0,0,1,.868.058,23.106,23.106,0,0,0,6.747,2.793.936.936,0,0,1,.657.574l1.559,4.05h6.309l1.559-4.05a.936.936,0,0,1,.657-.574,22.858,22.858,0,0,0,6.737-2.791.936.936,0,0,1,.871-.06l3.971,1.759,4.461-4.461L49.472,42.8a.936.936,0,0,1,.058-.868,23.153,23.153,0,0,0,2.793-6.74.936.936,0,0,1,.574-.657l4.05-1.559V26.668L52.9,25.109a.936.936,0,0,1-.574-.657,22.9,22.9,0,0,0-2.792-6.745.935.935,0,0,1-.059-.87l1.759-3.971-4.46-4.46L42.8,10.172a.936.936,0,0,1-.871-.058,22.94,22.94,0,0,0-6.738-2.792.936.936,0,0,1-.657-.575Zm-4.718,4.6A18.476,18.476,0,1,1,11.347,29.817,18.473,18.473,0,0,1,29.817,11.347Zm0,1.871a16.6,16.6,0,1,0,16.61,16.6,16.594,16.594,0,0,0-16.61-16.6Zm-8.9,27.536a.936.936,0,0,1-1.62-.935L21.215,36.5a.935.935,0,1,1,1.62.935Zm17.8-21.862a.935.935,0,0,1,1.62.935L38.43,23.143a.935.935,0,0,1-1.62-.935Zm1.62,20.927a.935.935,0,1,1-1.62.935L36.81,37.437a.935.935,0,1,1,1.62-.935Zm-23-10.505a14.867,14.867,0,0,1,24.956,0,.936.936,0,0,1,0,1.019,14.867,14.867,0,0,1-24.956,0,.935.935,0,0,1,0-1.019Zm1.917.51a12.994,12.994,0,0,0,21.121,0,12.994,12.994,0,0,0-21.121,0Zm10.561-5.169a5.169,5.169,0,1,1-5.169,5.169A5.172,5.172,0,0,1,29.822,24.653Zm0,1.871a3.3,3.3,0,1,0,3.3,3.3A3.3,3.3,0,0,0,29.822,26.524Zm-.935-9.767a.935.935,0,0,1,1.871,0v3.829a.935.935,0,0,1-1.871,0Zm1.871,26.131a.935.935,0,1,1-1.871,0V39.059a.935.935,0,0,1,1.871,0ZM19.3,19.827a.936.936,0,0,1,1.62-.935l1.914,3.316a.935.935,0,1,1-1.62.935Z" fill-rule="evenodd"/>
        </g>
      </g>
    </g>
  </g>
</svg>
