<svg xmlns="http://www.w3.org/2000/svg" xmlns:xlink="http://www.w3.org/1999/xlink" width="90" height="90" viewBox="0 0 90 90">
  <defs>
    <clipPath id="clip-path">
      <rect id="Rectangle_411866" data-name="Rectangle 411866" width="90" height="90" fill="#e8bad8" opacity="0.41"/>
    </clipPath>
    <clipPath id="clip-path-2">
      <rect id="Rectangle_412215" data-name="Rectangle 412215" width="62" height="67" transform="translate(8244.986 -9298.793)" fill="#fff" stroke="#707070" stroke-width="1" opacity="0"/>
    </clipPath>
  </defs>
  <g id="Group_1204716" data-name="Group 1204716" transform="translate(-8227.199 9421.265)">
    <g id="Group_1204716-2" data-name="Group 1204716" transform="translate(270.986 254.207)">
      <g id="Group_1204600" data-name="Group 1204600">
        <g id="Group_1204597" data-name="Group 1204597" transform="translate(14463.482 -641)">
          <g id="Group_1204132" data-name="Group 1204132" transform="translate(-6507.27 -9034.472)">
            <g id="Mask_Group_1099459" data-name="Mask Group 1099459" transform="translate(0)" clip-path="url(#clip-path)">
              <g id="Group_1204095" data-name="Group 1204095" transform="translate(0 4.909)">
                <g id="Group_1204093" data-name="Group 1204093" transform="translate(0)">
                  <ellipse id="Ellipse_12744" data-name="Ellipse 12744" cx="22.428" cy="22.428" rx="22.428" ry="22.428" transform="translate(44.238 34.661)" fill="#ffc94a"/>
                  <ellipse id="Ellipse_12745" data-name="Ellipse 12745" cx="16.311" cy="16.311" rx="16.311" ry="16.311" fill="#ffc94a"/>
                </g>
              </g>
            </g>
          </g>
        </g>
      </g>
    </g>
    <g id="Mask_Group_1099576" data-name="Mask Group 1099576" transform="translate(-3.787 -110.971)" clip-path="url(#clip-path-2)">
      <g id="acuerdo" transform="translate(8244.986 -9296.293)">
        <g id="Group_1204739" data-name="Group 1204739">
          <g id="Group_1204717" data-name="Group 1204717">
            <path id="Path_1285390" data-name="Path 1285390" d="M57,35v4H51a2.006,2.006,0,0,0-2,2l-2.31-1.16a8.216,8.216,0,0,0-3.12-.83L45,39V35a6,6,0,0,1,6-6,6.009,6.009,0,0,1,6,6Z" fill="#e6e9ed"/>
          </g>
          <g id="Group_1204718" data-name="Group 1204718">
            <path id="Path_1285391" data-name="Path 1285391" d="M17,35v2.96a8.469,8.469,0,0,0-1.19.79L13,41a2.006,2.006,0,0,0-2-2H5V35a6,6,0,0,1,6-6,6.009,6.009,0,0,1,6,6Z" fill="#e6e9ed"/>
          </g>
          <g id="Group_1204719" data-name="Group 1204719">
            <path id="Path_1285392" data-name="Path 1285392" d="M45,17v2H44a3,3,0,0,0-2.93,2.35c.23-1.41.93-1.73.93-3.69,0-1.78-.58-2.2-.86-3.34v-.01A6.672,6.672,0,0,1,47.67,9h6.66a6.661,6.661,0,0,1,5.41,10.56A2.985,2.985,0,0,0,58,19H56.99a3.875,3.875,0,0,0-.64-1.98l-.2-.29a3.885,3.885,0,0,0-4.97-1.32l-.5.25A12.718,12.718,0,0,1,45,17Z" fill="#b27946"/>
          </g>
          <g id="Group_1204720" data-name="Group 1204720">
            <path id="Path_1285393" data-name="Path 1285393" d="M32,21a5,5,0,0,0,5-5V10.46a3,3,0,0,0-2.41-2.94L32,6.99A4.976,4.976,0,0,1,28,9H27a2.006,2.006,0,0,0-2,2v5a5,5,0,0,0,5,5h1a6.065,6.065,0,0,0-2.26.44A6.028,6.028,0,0,0,25,27H22.28a2,2,0,0,1-1.74-3.02A2.965,2.965,0,0,0,21,22.33a1.927,1.927,0,0,0-.01-.24A.277.277,0,0,0,21,22a.22.22,0,0,0-.01-.08,1.542,1.542,0,0,0-.03-.37c-.01-.06-.02-.13-.03-.2-.23-1.41-.93-1.73-.93-3.69,0-1.79.59-2.2.86-3.35V14.3A5.155,5.155,0,0,0,21,13V11a10,10,0,0,1,20,0v2a5.241,5.241,0,0,0,.14,1.31v.01c.28,1.14.86,1.56.86,3.34,0,1.96-.7,2.28-.93,3.69-.01.07-.02.14-.03.2a1.542,1.542,0,0,0-.03.37A.22.22,0,0,0,41,22a.277.277,0,0,0,.01.09,1.927,1.927,0,0,0-.01.24,2.965,2.965,0,0,0,.46,1.65A2,2,0,0,1,39.72,27H37a5.994,5.994,0,0,0-6-6Z" fill="#fcd770"/>
          </g>
          <g id="Group_1204721" data-name="Group 1204721">
            <path id="Path_1285394" data-name="Path 1285394" d="M20,17.66c0,1.96.7,2.28.93,3.69A3,3,0,0,0,18,19H17V17a7.236,7.236,0,0,1-5.12-2.12L11,14l-.88.88A7.236,7.236,0,0,1,5,17v2H4a3.008,3.008,0,0,0-2.06.82l-.6-1.79A6.9,6.9,0,0,1,1,15.92v-.25A6.662,6.662,0,0,1,7.67,9h6.66a6.663,6.663,0,0,1,6.53,5.3v.01C20.59,15.46,20,15.87,20,17.66Z" fill="#b27946"/>
          </g>
          <g id="Group_1204722" data-name="Group 1204722">
            <path id="Path_1285395" data-name="Path 1285395" d="M37,27V37H25V27a6.028,6.028,0,0,1,3.74-5.56,2.532,2.532,0,0,0-.24,1.06,2.5,2.5,0,0,0,5,0,2.532,2.532,0,0,0-.24-1.06A6.009,6.009,0,0,1,37,27Z" fill="#ff826e"/>
          </g>
          <g id="Group_1204723" data-name="Group 1204723">
            <path id="Path_1285396" data-name="Path 1285396" d="M61,39V59H51a2.006,2.006,0,0,1-2-2V41a2.006,2.006,0,0,1,2-2H61Z" fill="#fcd770"/>
          </g>
          <g id="Group_1204724" data-name="Group 1204724">
            <path id="Path_1285397" data-name="Path 1285397" d="M13,41V57a2.006,2.006,0,0,1-2,2H1V39H11A2.006,2.006,0,0,1,13,41Z" fill="#4fc1e9"/>
          </g>
          <g id="Group_1204725" data-name="Group 1204725">
            <path id="Path_1285398" data-name="Path 1285398" d="M42,57v2a2,2,0,0,1-4,0V57a2.006,2.006,0,0,1,2-2,2.015,2.015,0,0,1,2,2Z" fill="#f0d0b4"/>
          </g>
          <g id="Group_1204726" data-name="Group 1204726">
            <path id="Path_1285399" data-name="Path 1285399" d="M38,57v2a2,2,0,0,1-4,0V57a2.006,2.006,0,0,1,2-2,2.015,2.015,0,0,1,2,2Z" fill="#f0d0b4"/>
          </g>
          <g id="Group_1204727" data-name="Group 1204727">
            <path id="Path_1285400" data-name="Path 1285400" d="M34,57v2a2,2,0,0,1-4,0V57a2.006,2.006,0,0,1,2-2,2.015,2.015,0,0,1,2,2Z" fill="#f0d0b4"/>
          </g>
          <g id="Group_1204728" data-name="Group 1204728">
            <path id="Path_1285401" data-name="Path 1285401" d="M30,57v2a2,2,0,0,1-4,0V56.94A2.007,2.007,0,0,1,28,55a2.015,2.015,0,0,1,2,2Z" fill="#f0d0b4"/>
          </g>
          <g id="Group_1204729" data-name="Group 1204729">
            <path id="Path_1285402" data-name="Path 1285402" d="M21.52,49A2.416,2.416,0,0,0,21,50.5v.07A2.433,2.433,0,0,0,23.43,53a.277.277,0,0,0,.09-.01V53A2.416,2.416,0,0,0,23,54.5v.07A2.433,2.433,0,0,0,25.43,57a2.505,2.505,0,0,0,.55-.06H26V59H19.54a7.925,7.925,0,0,1-2.97-.57L13,57V41l2.81-2.25A8.469,8.469,0,0,1,17,37.96,8.1,8.1,0,0,1,20.81,37H38a1,1,0,0,1,1,1,4.714,4.714,0,0,1-.11,1,4.641,4.641,0,0,1-4.53,3.63c-.11,0-.23,0-.35-.01L26,42l-5.54,2.37A2.414,2.414,0,0,0,19,46.59,2.424,2.424,0,0,0,21.41,49h.02a.277.277,0,0,0,.09-.01Z" fill="#f0d0b4"/>
          </g>
          <g id="Group_1204730" data-name="Group 1204730">
            <path id="Path_1285403" data-name="Path 1285403" d="M33.41,55.59A1.955,1.955,0,0,0,32,55a2.006,2.006,0,0,0-2,2,2.015,2.015,0,0,0-2-2,2.007,2.007,0,0,0-2,1.94h-.02a2.505,2.505,0,0,1-.55.06A2.433,2.433,0,0,1,23,54.57V54.5a2.416,2.416,0,0,1,.52-1.5v-.01a.277.277,0,0,1-.09.01A2.433,2.433,0,0,1,21,50.57V50.5a2.416,2.416,0,0,1,.52-1.5v-.01a.277.277,0,0,1-.09.01h-.02A2.424,2.424,0,0,1,19,46.59a2.415,2.415,0,0,1,1.46-2.22L26,42l8.01.62c.12.01.24.01.35.01A4.641,4.641,0,0,0,38.89,39h4.22c.15,0,.31,0,.46.01a8.215,8.215,0,0,1,3.12.83L49,41V57l-.98.66A8.066,8.066,0,0,1,43.58,59H42V57a2.015,2.015,0,0,0-2-2,2.006,2.006,0,0,0-2,2,2.015,2.015,0,0,0-2-2,2.006,2.006,0,0,0-2,2,1.955,1.955,0,0,0-.59-1.41Z" fill="#f0d0b4"/>
          </g>
          <g id="Group_1204731" data-name="Group 1204731">
            <path id="Path_1285404" data-name="Path 1285404" d="M58,19a3,3,0,0,1,0,6H56.9a4.712,4.712,0,0,0,.1-1V19.18a1.087,1.087,0,0,0-.01-.18H58Z" fill="#f0d0b4"/>
          </g>
          <g id="Group_1204732" data-name="Group 1204732">
            <path id="Path_1285405" data-name="Path 1285405" d="M57,19.18V24a4.712,4.712,0,0,1-.1,1A5,5,0,0,1,52,29H50a5,5,0,0,1-4.9-4,4.712,4.712,0,0,1-.1-1V17a12.718,12.718,0,0,0,5.68-1.34l.5-.25a3.885,3.885,0,0,1,4.97,1.32l.2.29A3.875,3.875,0,0,1,56.99,19,1.087,1.087,0,0,1,57,19.18Z" fill="#f0d0b4"/>
          </g>
          <g id="Group_1204733" data-name="Group 1204733">
            <path id="Path_1285406" data-name="Path 1285406" d="M45.1,25H44a2.993,2.993,0,0,1-2.12-.88,3.036,3.036,0,0,1-.87-2.03v-.17c.01-.13.02-.25.03-.37.01-.06.02-.13.03-.2A3,3,0,0,1,44,19h1v5a4.712,4.712,0,0,0,.1,1Z" fill="#f0d0b4"/>
          </g>
          <g id="Group_1204734" data-name="Group 1204734">
            <path id="Path_1285407" data-name="Path 1285407" d="M33.26,21.44a2.532,2.532,0,0,1,.24,1.06,2.5,2.5,0,0,1-5,0,2.532,2.532,0,0,1,.24-1.06,6.024,6.024,0,0,1,4.52,0Z" fill="#f0d0b4"/>
          </g>
          <g id="Group_1204735" data-name="Group 1204735">
            <path id="Path_1285408" data-name="Path 1285408" d="M37,10.46V16a5,5,0,0,1-5,5H30a5,5,0,0,1-5-5V11a2.006,2.006,0,0,1,2-2h1a4.976,4.976,0,0,0,4-2.01l2.59.53A3,3,0,0,1,37,10.46Z" fill="#f0d0b4"/>
          </g>
          <g id="Group_1204736" data-name="Group 1204736">
            <path id="Path_1285409" data-name="Path 1285409" d="M20.99,21.92v.17a3.036,3.036,0,0,1-.87,2.03A2.993,2.993,0,0,1,18,25H16.9a4.712,4.712,0,0,0,.1-1V19h1a3,3,0,0,1,2.93,2.35c.01.07.02.14.03.2.01.12.02.24.03.37Z" fill="#f0d0b4"/>
          </g>
          <g id="Group_1204737" data-name="Group 1204737">
            <path id="Path_1285410" data-name="Path 1285410" d="M17,19v5a4.712,4.712,0,0,1-.1,1A5,5,0,0,1,12,29H10a5,5,0,0,1-4.9-4A4.712,4.712,0,0,1,5,24V17a7.236,7.236,0,0,0,5.12-2.12L11,14l.88.88A7.236,7.236,0,0,0,17,17Z" fill="#f0d0b4"/>
          </g>
          <g id="Group_1204738" data-name="Group 1204738">
            <path id="Path_1285411" data-name="Path 1285411" d="M5.1,25H4a3,3,0,0,1,0-6H5v5A4.712,4.712,0,0,0,5.1,25Z" fill="#f0d0b4"/>
          </g>
        </g>
        <g id="Group_1204740" data-name="Group 1204740">
          <path id="Path_1285412" data-name="Path 1285412" d="M14,23H12a1,1,0,0,1-2,0H8a3,3,0,0,0,6,0Z"/>
          <path id="Path_1285413" data-name="Path 1285413" d="M34,15H32a1,1,0,0,1-2,0H28a3,3,0,0,0,6,0Z"/>
          <path id="Path_1285414" data-name="Path 1285414" d="M57.65,26H58a4,4,0,0,0,4-4,3.964,3.964,0,0,0-.989-2.6A7.637,7.637,0,0,0,54.333,8H47.666a7.679,7.679,0,0,0-5.69,2.541,10.985,10.985,0,0,0-21.953,0A7.68,7.68,0,0,0,14.333,8H7.667A7.675,7.675,0,0,0,0,15.667v.251a7.637,7.637,0,0,0,.394,2.425l.421,1.264A3.956,3.956,0,0,0,0,22a4,4,0,0,0,4,4h.35a6.024,6.024,0,0,0,2.706,3.222A7,7,0,0,0,4,35v3H0V60H11a2.991,2.991,0,0,0,2.667-1.656L16.2,59.356A8.971,8.971,0,0,0,19.541,60h5.644A2.972,2.972,0,0,0,30,61.22a2.954,2.954,0,0,0,4,0,2.954,2.954,0,0,0,4,0A2.972,2.972,0,0,0,42.817,60h.762a8.964,8.964,0,0,0,4.871-1.443A2.986,2.986,0,0,0,51,60H62V38H58V35a7,7,0,0,0-3.056-5.778A6.024,6.024,0,0,0,57.65,26ZM58,24V20a2,2,0,0,1,0,4ZM44,38.052c-.3-.029-.592-.052-.889-.052H40a2,2,0,0,0-2-2V28h1.724A3.049,3.049,0,0,0,42.4,26.4a3.007,3.007,0,0,0,.252-.652A3.948,3.948,0,0,0,44,26h.35a6.024,6.024,0,0,0,2.706,3.222A7,7,0,0,0,44,35ZM18,20a2,2,0,0,1,1.934,1.517,4.837,4.837,0,0,1,.054.595A2,2,0,0,1,18,24Zm-.35,6H18a3.971,3.971,0,0,0,1.348-.25A3,3,0,0,0,22.276,28H24v8H20.806A8.978,8.978,0,0,0,18,36.457V35a7,7,0,0,0-3.056-5.778A6.024,6.024,0,0,0,17.65,26ZM30,20a4,4,0,0,1-4-4V11a1,1,0,0,1,1-1h1a5.986,5.986,0,0,0,4.386-1.909l2.009.4a2,2,0,0,1,1.6,1.96V16a4,4,0,0,1-4,4Zm2.5,2.5a1.5,1.5,0,1,1-3,0,1.465,1.465,0,0,1,.029-.254,4.521,4.521,0,0,1,2.942,0A1.465,1.465,0,0,1,32.5,22.5Zm-4.885.844a3.485,3.485,0,0,0,6.77,0A4.969,4.969,0,0,1,36,27v9H26V27a4.969,4.969,0,0,1,1.615-3.656ZM44,24a2,2,0,0,1-1.989-1.888,4.819,4.819,0,0,1,.054-.595A2,2,0,0,1,44,20ZM22,11a9,9,0,0,1,18,0v2a6.061,6.061,0,0,0,.581,2.726A4.132,4.132,0,0,1,41,17.665a4.134,4.134,0,0,1-.419,1.94,6.354,6.354,0,0,0-.488,1.555c-.01.045-.013.091-.021.137-.025.177-.046.365-.058.574,0,.043-.014.085-.014.129,0,.025.007.048.007.073,0,.086-.007.167-.007.259a3.858,3.858,0,0,0,.624,2.189.891.891,0,0,1,.02.923,1.055,1.055,0,0,1-.92.556h-1.8a7,7,0,0,0-2.976-4.778A6,6,0,0,0,38,16V10.456a4.012,4.012,0,0,0-3.21-3.921l-1.242-.25A5.973,5.973,0,0,0,34,4H32a4,4,0,0,1-4,4H27a3,3,0,0,0-3,3v5a6,6,0,0,0,3.056,5.222A7.006,7.006,0,0,0,24.08,26h-1.8a1.054,1.054,0,0,1-.919-.555.889.889,0,0,1,.02-.923A3.876,3.876,0,0,0,22,22.332c0-.092,0-.173-.007-.259,0-.025.007-.048.007-.073,0-.044-.012-.086-.013-.13-.012-.208-.033-.4-.058-.574-.008-.045-.012-.092-.021-.137A6.369,6.369,0,0,0,21.42,19.6,4.119,4.119,0,0,1,21,17.665a4.125,4.125,0,0,1,.419-1.938A6.069,6.069,0,0,0,22,13ZM2,22a2,2,0,0,1,2-2v4A2,2,0,0,1,2,22Zm3-6H4v2a3.986,3.986,0,0,0-1.512.3l-.2-.591A5.657,5.657,0,0,1,2,15.918v-.251A5.673,5.673,0,0,1,7.667,10h6.667a5.677,5.677,0,0,1,5.487,4.306,6.642,6.642,0,0,1-.239.632A6.047,6.047,0,0,0,19,17.665c0,.17,0,.33.014.482A3.912,3.912,0,0,0,18,18V16H17a6.2,6.2,0,0,1-4.414-1.828L11,12.586,9.414,14.172A6.2,6.2,0,0,1,5,16Zm5,12a4,4,0,0,1-4-4V17.94a8.18,8.18,0,0,0,4.828-2.354L11,15.414l.172.172A8.18,8.18,0,0,0,16,17.94V24a4,4,0,0,1-4,4ZM6,35a5,5,0,0,1,10,0v2.4a8.8,8.8,0,0,0-.816.573l-1.695,1.356A3,3,0,0,0,11,38H6Zm6,22a1,1,0,0,1-1,1H2V40h9a1,1,0,0,1,1,1Zm4.941.5L14,56.323V41.48l2.433-1.947A7.032,7.032,0,0,1,20.806,38H38a3.631,3.631,0,0,1-3.909,3.62l-8.259-.636-5.765,2.471a3.407,3.407,0,0,0,.037,6.28,3.7,3.7,0,0,0-.1.838,3.433,3.433,0,0,0,2.1,3.161,3.756,3.756,0,0,0-.1.839,3.421,3.421,0,0,0,3,3.384V58H19.541a6.955,6.955,0,0,1-2.6-.5ZM28,60a1,1,0,0,1-1-1V57a1,1,0,0,1,2,0v2A1,1,0,0,1,28,60Zm4,0a1,1,0,0,1-1-1V57a1,1,0,0,1,2,0v2A1,1,0,0,1,32,60Zm4,0a1,1,0,0,1-1-1V57a1,1,0,0,1,2,0v2A1,1,0,0,1,36,60Zm5-1a1,1,0,0,1-2,0V57a1,1,0,0,1,2,0Zm2.578-1H43V57a2.987,2.987,0,0,0-5-2.22,2.954,2.954,0,0,0-4,0,2.954,2.954,0,0,0-4,0,2.974,2.974,0,0,0-4.806,1.188A1.475,1.475,0,0,1,24,54.5a1.416,1.416,0,0,1,.143-.584,3.456,3.456,0,0,0,.817-.278l5.487-2.744-.9-1.789-5.487,2.744a1.429,1.429,0,0,1-.638.151A1.446,1.446,0,0,1,22,50.5a1.416,1.416,0,0,1,.143-.584,3.427,3.427,0,0,0,.817-.278l5.487-2.744-.9-1.789-5.487,2.744a1.446,1.446,0,0,1-.654.151,1.41,1.41,0,0,1-.556-2.707l5.313-2.277,7.77.6A5.6,5.6,0,0,0,39.624,40h3.488a7.024,7.024,0,0,1,3.13.739L48,41.618V56.465l-.539.359A6.982,6.982,0,0,1,43.578,58ZM60,58H51a1,1,0,0,1-1-1V41a1,1,0,0,1,1-1h9ZM56,35v3H51a2.989,2.989,0,0,0-2.621,1.571l-1.242-.621A8.9,8.9,0,0,0,46,38.486V35a5,5,0,1,1,10,0Zm0-11a4,4,0,0,1-4,4H50a4,4,0,0,1-4-4V17.963a13.8,13.8,0,0,0,5.13-1.41l.5-.248a2.956,2.956,0,0,1,3.7.981l.192.288a2.888,2.888,0,0,1,.485,1.6ZM52.918,14a4.914,4.914,0,0,0-2.187.516l-.5.248A11.758,11.758,0,0,1,45,16H44v2a3.955,3.955,0,0,0-1.014.146c.009-.151.014-.311.014-.481a6.066,6.066,0,0,0-.581-2.727,6.641,6.641,0,0,1-.239-.632A5.675,5.675,0,0,1,47.667,10h6.667a5.662,5.662,0,0,1,5.036,8.258A3.927,3.927,0,0,0,58,18h-.156a4.867,4.867,0,0,0-.666-1.534l-.192-.289A4.878,4.878,0,0,0,52.918,14Z"/>
          <path id="Path_1285415" data-name="Path 1285415" d="M51,24a1,1,0,0,1-1-1H48a3,3,0,0,0,6,0H52A1,1,0,0,1,51,24Z"/>
        </g>
      </g>
    </g>
  </g>
</svg>
