<svg xmlns="http://www.w3.org/2000/svg" xmlns:xlink="http://www.w3.org/1999/xlink" width="90" height="90" viewBox="0 0 90 90">
  <defs>
    <clipPath id="clip-path">
      <rect id="Rectangle_411864" data-name="Rectangle 411864" width="90" height="90" fill="#e8bad8" opacity="0.41"/>
    </clipPath>
    <clipPath id="clip-path-2">
      <rect id="Rectangle_412288" data-name="Rectangle 412288" width="61" height="68" transform="translate(17048 -10197)" fill="#fff" stroke="#707070" stroke-width="1" opacity="0"/>
    </clipPath>
  </defs>
  <g id="Group_1204887" data-name="Group 1204887" transform="translate(-17033.188 10207.775)">
    <g id="Group_1204887-2" data-name="Group 1204887">
      <g id="Group_1204868" data-name="Group 1204868" transform="translate(9909.746 -309.79)">
        <g id="Group_1204572" data-name="Group 1204572">
          <g id="Group_1204571" data-name="Group 1204571" transform="translate(13933.711 -849.514)">
            <g id="Group_1204092" data-name="Group 1204092" transform="translate(-6810.27 -9048.472)">
              <g id="Mask_Group_1099458" data-name="Mask Group 1099458" transform="translate(0 0)" clip-path="url(#clip-path)">
                <g id="Group_1204091" data-name="Group 1204091" transform="translate(0 4.909)">
                  <g id="Group_1204089" data-name="Group 1204089">
                    <ellipse id="Ellipse_12742" data-name="Ellipse 12742" cx="22.428" cy="22.428" rx="22.428" ry="22.428" transform="translate(44.238 34.661)" fill="#ffc94a"/>
                    <ellipse id="Ellipse_12743" data-name="Ellipse 12743" cx="16.311" cy="16.311" rx="16.311" ry="16.311" fill="#ffc94a"/>
                  </g>
                </g>
              </g>
            </g>
          </g>
        </g>
      </g>
      <g id="Mask_Group_1099604" data-name="Mask Group 1099604" clip-path="url(#clip-path-2)">
        <g id="hacer-un-seguimiento" transform="translate(17045.967 -10195.533)">
          <path id="Path_1288850" data-name="Path 1288850" d="M46.767,27.45H56.933V37.617H46.767Z" fill="#efbd50"/>
          <path id="Path_1288851" data-name="Path 1288851" d="M62.017,53.883V49.817h-2.3a8.418,8.418,0,0,0-.864-2.094L60.482,46.1,57.6,43.219l-1.627,1.627a8.418,8.418,0,0,0-2.094-.864v-2.3H49.817v2.3a8.418,8.418,0,0,0-2.094.864L46.1,43.219,43.219,46.1l1.627,1.627a8.418,8.418,0,0,0-.864,2.094h-2.3v4.067h2.3a8.418,8.418,0,0,0,.864,2.094L43.219,57.6,46.1,60.482l1.627-1.627a8.418,8.418,0,0,0,2.094.864v2.3h4.067v-2.3a8.418,8.418,0,0,0,2.094-.864L57.6,60.482,60.482,57.6l-1.627-1.627a8.418,8.418,0,0,0,.864-2.094Z" fill="#f95f5f"/>
          <path id="Path_1288852" data-name="Path 1288852" d="M62.017,15.25V11.183h-2.3a8.418,8.418,0,0,0-.864-2.094l1.627-1.627L57.6,4.585,55.978,6.212a8.418,8.418,0,0,0-2.094-.864V3.05H49.817v2.3a8.418,8.418,0,0,0-2.094.864L46.1,4.585,43.219,7.462l1.627,1.627a8.418,8.418,0,0,0-.864,2.094h-2.3V15.25h2.3a8.418,8.418,0,0,0,.864,2.094l-1.627,1.627L46.1,21.848l1.627-1.627a8.418,8.418,0,0,0,2.094.864v2.3h4.067v-2.3a8.418,8.418,0,0,0,2.094-.864L57.6,21.848l2.877-2.877-1.627-1.627a8.418,8.418,0,0,0,.864-2.094Z" fill="#7fc675"/>
          <circle id="Ellipse_12792" data-name="Ellipse 12792" cx="4.067" cy="4.067" r="4.067" transform="translate(47.783 47.783)" fill="#f2f2f2"/>
          <circle id="Ellipse_12793" data-name="Ellipse 12793" cx="4.067" cy="4.067" r="4.067" transform="translate(47.783 9.15)" fill="#f2f2f2"/>
          <circle id="Ellipse_12794" data-name="Ellipse 12794" cx="6.1" cy="6.1" r="6.1" transform="translate(9.15 18.3)" fill="#cfd2d3"/>
          <path id="Path_1288853" data-name="Path 1288853" d="M7.117,32.533H23.383A4.067,4.067,0,0,1,27.45,36.6V46.767H3.05V36.6a4.067,4.067,0,0,1,4.067-4.067Z" fill="#99aece"/>
          <path id="Path_1288854" data-name="Path 1288854" d="M10.167,32.533l5.083,6.1,5.083-6.1" fill="#efbd50"/>
          <path id="Path_1288855" data-name="Path 1288855" d="M22.367,24.4a7.117,7.117,0,1,0-7.117,7.117A7.117,7.117,0,0,0,22.367,24.4ZM15.25,29.483A5.083,5.083,0,1,1,20.333,24.4,5.083,5.083,0,0,1,15.25,29.483Z"/>
          <path id="Path_1288856" data-name="Path 1288856" d="M23.383,31.517H7.117A5.083,5.083,0,0,0,2.033,36.6V46.767A1.017,1.017,0,0,0,3.05,47.783h24.4a1.017,1.017,0,0,0,1.017-1.017V36.6A5.083,5.083,0,0,0,23.383,31.517ZM18.178,33.55,15.25,37.057,12.322,33.55Zm8.255,12.2H22.367v-6.1H20.333v6.1H10.167v-6.1H8.133v6.1H4.067V36.6a3.05,3.05,0,0,1,3.05-3.05H9.679l4.788,5.744a1.017,1.017,0,0,0,1.566,0l4.788-5.744h2.562a3.05,3.05,0,0,1,3.05,3.05Z"/>
          <path id="Path_1288857" data-name="Path 1288857" d="M62.017,48.8H60.471a9.309,9.309,0,0,0-.366-.884l1.088-1.1a1.017,1.017,0,0,0,0-1.433l-2.877-2.877a1.017,1.017,0,0,0-1.433,0l-1.1,1.088a9.31,9.31,0,0,0-.884-.366V41.683a1.017,1.017,0,0,0-1.017-1.017H49.817A1.017,1.017,0,0,0,48.8,41.683v1.545a9.31,9.31,0,0,0-.884.366l-1.1-1.088a.995.995,0,0,0-1.433,0l-2.877,2.877a1.017,1.017,0,0,0,0,1.433l1.088,1.1a9.31,9.31,0,0,0-.366.884H41.683a1.017,1.017,0,0,0-1.017,1.017v4.067A1.017,1.017,0,0,0,41.683,54.9h1.545a9.31,9.31,0,0,0,.366.884l-1.088,1.149a1.017,1.017,0,0,0,0,1.433l2.877,2.877a1.017,1.017,0,0,0,1.433,0l1.1-1.088a9.309,9.309,0,0,0,.884.366v1.495a1.017,1.017,0,0,0,1.017,1.017h4.067A1.017,1.017,0,0,0,54.9,62.017V60.471a9.309,9.309,0,0,0,.884-.366l1.149,1.088a.995.995,0,0,0,1.433,0l2.877-2.877a1.017,1.017,0,0,0,0-1.433l-1.088-1.1a9.309,9.309,0,0,0,.366-.884h1.495a1.017,1.017,0,0,0,1.017-1.017V49.817A1.017,1.017,0,0,0,62.017,48.8ZM61,52.867H59.719a1.017,1.017,0,0,0-1.017.763,7.015,7.015,0,0,1-.752,1.83,1.017,1.017,0,0,0,.153,1.23l.9.915-1.433,1.433-.915-.9a1.017,1.017,0,0,0-1.2-.183,6.71,6.71,0,0,1-1.83.762,1.017,1.017,0,0,0-.763,1.017V61H50.833V59.719a1.017,1.017,0,0,0-.763-1.017,6.71,6.71,0,0,1-1.83-.763,1.017,1.017,0,0,0-1.23.163l-.915.9-1.433-1.433.9-.915a1.017,1.017,0,0,0,.183-1.2A7.015,7.015,0,0,1,45,53.629a1.017,1.017,0,0,0-1.017-.763H42.7V50.833h1.281A1.017,1.017,0,0,0,45,50.071a7.015,7.015,0,0,1,.752-1.83,1.017,1.017,0,0,0-.153-1.23l-.9-.915,1.433-1.433.915.9a1.017,1.017,0,0,0,1.23.163,6.71,6.71,0,0,1,1.83-.763,1.017,1.017,0,0,0,.763-1.017V42.7H52.9v1.281A1.017,1.017,0,0,0,53.66,45a6.71,6.71,0,0,1,1.83.762,1.017,1.017,0,0,0,1.23-.163l.915-.9,1.434,1.433-.9.915a1.017,1.017,0,0,0-.213,1.2,7.015,7.015,0,0,1,.752,1.83,1.017,1.017,0,0,0,1.017.763H61Z"/>
          <path id="Path_1288858" data-name="Path 1288858" d="M51.85,46.767a5.083,5.083,0,1,0,5.083,5.083A5.083,5.083,0,0,0,51.85,46.767Zm0,8.133a3.05,3.05,0,1,1,3.05-3.05A3.05,3.05,0,0,1,51.85,54.9Z"/>
          <path id="Path_1288859" data-name="Path 1288859" d="M62.017,10.167H60.471a9.31,9.31,0,0,0-.366-.884l1.088-1.1a1.017,1.017,0,0,0,0-1.434L58.316,3.874a1.017,1.017,0,0,0-1.433,0l-1.1,1.088q-.427-.193-.884-.366V3.05a1.017,1.017,0,0,0-1.017-1.017H49.817A1.017,1.017,0,0,0,48.8,3.05V4.6q-.458.173-.884.366l-1.1-1.088a.995.995,0,0,0-1.433,0L42.507,6.751a1.017,1.017,0,0,0,0,1.434l1.088,1.1a9.311,9.311,0,0,0-.366.884H41.683a1.017,1.017,0,0,0-1.017,1.017V15.25a1.017,1.017,0,0,0,1.017,1.017h1.545a9.311,9.311,0,0,0,.366.885L42.507,18.3a1.017,1.017,0,0,0,0,1.434l2.877,2.877a1.017,1.017,0,0,0,1.433,0l1.1-1.088q.427.193.884.366v1.494A1.017,1.017,0,0,0,49.817,24.4h4.067A1.017,1.017,0,0,0,54.9,23.383V21.838a9.31,9.31,0,0,0,.884-.366l1.149,1.088a.995.995,0,0,0,1.433,0l2.877-2.877a1.017,1.017,0,0,0,0-1.434l-1.088-1.1a9.31,9.31,0,0,0,.366-.885h1.495a1.017,1.017,0,0,0,1.017-1.017V11.183a1.017,1.017,0,0,0-1.017-1.017ZM61,14.233H59.719A1.017,1.017,0,0,0,58.7,15a7.015,7.015,0,0,1-.752,1.83,1.017,1.017,0,0,0,.153,1.23l.9.915L57.574,20.4l-.915-.9a1.017,1.017,0,0,0-1.2-.183,6.71,6.71,0,0,1-1.83.763,1.017,1.017,0,0,0-.763,1.017v1.271H50.833V21.086a1.017,1.017,0,0,0-.763-1.017,6.71,6.71,0,0,1-1.83-.763,1.017,1.017,0,0,0-1.23.163l-.915.9L44.662,18.94l.9-.915a1.017,1.017,0,0,0,.183-1.2A7.015,7.015,0,0,1,45,15a1.017,1.017,0,0,0-1.017-.763H42.7V12.2h1.281A1.017,1.017,0,0,0,45,11.437a7.015,7.015,0,0,1,.752-1.83,1.017,1.017,0,0,0-.153-1.23l-.9-.915,1.433-1.433.915.9a1.017,1.017,0,0,0,1.2.183,6.71,6.71,0,0,1,1.83-.762,1.017,1.017,0,0,0,.763-1.017V4.067h2.033V5.348a1.017,1.017,0,0,0,.763,1.017,6.71,6.71,0,0,1,1.83.763,1.017,1.017,0,0,0,1.23-.163l.915-.9,1.433,1.433-.9.915a1.017,1.017,0,0,0-.183,1.2,7.015,7.015,0,0,1,.752,1.83,1.017,1.017,0,0,0,1.017.762H61Z"/>
          <path id="Path_1288860" data-name="Path 1288860" d="M51.85,8.133a5.083,5.083,0,1,0,5.083,5.083A5.083,5.083,0,0,0,51.85,8.133Zm0,8.133a3.05,3.05,0,1,1,3.05-3.05A3.05,3.05,0,0,1,51.85,16.267Z"/>
          <path id="Path_1288861" data-name="Path 1288861" d="M35.583,33.55h8.133V31.517H35.583v-18.3h3.05V11.183H34.567A1.017,1.017,0,0,0,33.55,12.2V31.517H30.5V33.55h3.05v18.3a1.017,1.017,0,0,0,1.017,1.017h4.067V50.833h-3.05Z"/>
          <path id="Path_1288862" data-name="Path 1288862" d="M56.933,38.633a1.017,1.017,0,0,0,1.017-1.017V27.45a1.017,1.017,0,0,0-1.017-1.017H46.767A1.017,1.017,0,0,0,45.75,27.45V37.617a1.017,1.017,0,0,0,1.017,1.017Zm-9.15-10.167h7.178L51.718,33l-1.179-1.19-1.444,1.444,2.033,2.033a1.017,1.017,0,0,0,.722.295h.081a1.017,1.017,0,0,0,.742-.427l3.243-4.534V36.6H47.783Z"/>
          <path id="Path_1288863" data-name="Path 1288863" d="M14.233,41.693h2.033v2.033H14.233Z"/>
        </g>
      </g>
    </g>
  </g>
</svg>
