<svg xmlns="http://www.w3.org/2000/svg" xmlns:xlink="http://www.w3.org/1999/xlink" width="90" height="90" viewBox="0 0 90 90">
  <defs>
    <clipPath id="clip-path">
      <rect id="Rectangle_411864" data-name="Rectangle 411864" width="90" height="90" fill="#e8bad8" opacity="0.41"/>
    </clipPath>
    <clipPath id="clip-path-2">
      <rect id="Rectangle_412288" data-name="Rectangle 412288" width="61" height="68" transform="translate(17048 -10197)" fill="#fff" stroke="#707070" stroke-width="1" opacity="0"/>
    </clipPath>
  </defs>
  <g id="Group_1204888" data-name="Group 1204888" transform="translate(-17033.188 10207.775)">
    <g id="Group_1204891" data-name="Group 1204891">
      <g id="Group_1204868" data-name="Group 1204868" transform="translate(9909.746 -309.79)">
        <g id="Group_1204572" data-name="Group 1204572">
          <g id="Group_1204571" data-name="Group 1204571" transform="translate(13933.711 -849.514)">
            <g id="Group_1204092" data-name="Group 1204092" transform="translate(-6810.27 -9048.472)">
              <g id="Mask_Group_1099458" data-name="Mask Group 1099458" transform="translate(0 0)" clip-path="url(#clip-path)">
                <g id="Group_1204091" data-name="Group 1204091" transform="translate(0 4.909)">
                  <g id="Group_1204089" data-name="Group 1204089">
                    <ellipse id="Ellipse_12742" data-name="Ellipse 12742" cx="22.428" cy="22.428" rx="22.428" ry="22.428" transform="translate(44.238 34.661)" fill="#ffc94a"/>
                    <ellipse id="Ellipse_12743" data-name="Ellipse 12743" cx="16.311" cy="16.311" rx="16.311" ry="16.311" fill="#ffc94a"/>
                  </g>
                </g>
              </g>
            </g>
          </g>
        </g>
      </g>
      <g id="Mask_Group_1099605" data-name="Mask Group 1099605" clip-path="url(#clip-path-2)">
        <g id="servicio-de-calidad" transform="translate(17043.402 -10198.098)">
          <g id="Group_1204890" data-name="Group 1204890">
            <g id="Group_1204888-2" data-name="Group 1204888">
              <path id="Path_1288864" data-name="Path 1288864" d="M33.417,25.074,41.361,28.3,35.1,41.736a.3.3,0,0,1-.534.024l-2.331-4.012-4.571.8a.3.3,0,0,1-.325-.424Z" fill="#fe646f" fill-rule="evenodd"/>
              <path id="Path_1288865" data-name="Path 1288865" d="M40.521,27.955l.84.341L35.1,41.736a.3.3,0,0,1-.534.024l-.554-.954a.3.3,0,0,0,.534-.024Zm-8.283,9.793-4.571.8a.3.3,0,0,1-.325-.424l.289-.62,4.053-.708Z" fill="#fd4755" fill-rule="evenodd"/>
              <path id="Path_1288866" data-name="Path 1288866" d="M49.537,25.074,41.593,28.3l6.257,13.44a.3.3,0,0,0,.534.024l2.331-4.012,4.571.8a.3.3,0,0,0,.325-.424Z" fill="#fe646f" fill-rule="evenodd"/>
              <path id="Path_1288867" data-name="Path 1288867" d="M42.433,27.955l-.84.341,6.257,13.44a.3.3,0,0,0,.534.024l.554-.954a.3.3,0,0,1-.534-.024Zm8.283,9.793,4.571.8a.3.3,0,0,0,.325-.424l-.289-.62-4.053-.708Z" fill="#fd4755" fill-rule="evenodd"/>
              <path id="Path_1288868" data-name="Path 1288868" d="M43.507,2.879l2.04,1.527a3.248,3.248,0,0,0,1.841.67l2.545.141a3.345,3.345,0,0,1,3.109,2.609l.581,2.482a3.249,3.249,0,0,0,.98,1.7l1.858,1.744a3.346,3.346,0,0,1,.7,4l-1.15,2.275a3.249,3.249,0,0,0-.34,1.93l.3,2.531A3.345,3.345,0,0,1,53.95,28l-2.343,1a3.249,3.249,0,0,0-1.5,1.26l-1.4,2.133A3.345,3.345,0,0,1,44.9,33.782l-2.44-.737a3.249,3.249,0,0,0-1.96,0l-2.44.737a3.345,3.345,0,0,1-3.814-1.388l-1.4-2.133a3.249,3.249,0,0,0-1.5-1.26L29,28a3.346,3.346,0,0,1-2.03-3.515l.3-2.531a3.249,3.249,0,0,0-.34-1.93l-1.15-2.275a3.346,3.346,0,0,1,.7-4l1.858-1.744a3.249,3.249,0,0,0,.98-1.7l.581-2.482a3.346,3.346,0,0,1,3.109-2.609l2.545-.141a3.249,3.249,0,0,0,1.841-.67l2.04-1.527a3.346,3.346,0,0,1,4.059,0Z" fill="#ffe177" fill-rule="evenodd"/>
              <path id="Path_1288869" data-name="Path 1288869" d="M43.507,2.879l2.04,1.527a3.248,3.248,0,0,0,1.841.67l2.545.142a3.346,3.346,0,0,1,3.109,2.609l.581,2.481a3.25,3.25,0,0,0,.98,1.7l1.858,1.744a3.346,3.346,0,0,1,.7,4l-1.15,2.275a3.249,3.249,0,0,0-.34,1.93l.3,2.531A3.345,3.345,0,0,1,53.95,28l-2.343,1a3.249,3.249,0,0,0-1.5,1.26l-1.4,2.133A3.344,3.344,0,0,1,44.969,33.8a3.367,3.367,0,0,0,1.89-1.409l1.4-2.133a3.249,3.249,0,0,1,1.5-1.26L52.1,28a3.346,3.346,0,0,0,2.03-3.515l-.3-2.531a3.249,3.249,0,0,1,.34-1.93l1.15-2.275a3.345,3.345,0,0,0-.7-4l-1.858-1.744a3.248,3.248,0,0,1-.98-1.7L51.19,7.828a3.345,3.345,0,0,0-3.109-2.609l-2.545-.142a3.248,3.248,0,0,1-1.841-.67l-2.04-1.527a3.447,3.447,0,0,0-1.1-.554,3.345,3.345,0,0,1,2.955.554ZM40.551,33.029a3.243,3.243,0,0,0-1.906.016l-2.44.737-.072.021a3.391,3.391,0,0,0,1.924-.021l2.44-.737Z" fill="#ffd064" fill-rule="evenodd"/>
              <circle id="Ellipse_12795" data-name="Ellipse 12795" cx="9.759" cy="9.759" r="9.759" transform="translate(27.669 18.065) rotate(-45)" fill="#eceff1"/>
              <path id="Path_1288870" data-name="Path 1288870" d="M41.477,8.3q.273,0,.542.015a9.761,9.761,0,0,0,0,19.491q-.269.015-.542.015a9.761,9.761,0,0,1,0-19.522Z" fill="#d1d1d6" fill-rule="evenodd"/>
              <path id="Path_1288871" data-name="Path 1288871" d="M40.2,18.924l4.746-4.793a1.445,1.445,0,1,1,2.05,2.036c-1.925,1.942-3.836,3.9-5.77,5.831a1.448,1.448,0,0,1-2.047,0L35.967,18.79a1.448,1.448,0,1,1,2.047-2.047Z" fill="#8ac9fe" fill-rule="evenodd"/>
            </g>
            <g id="Group_1204889" data-name="Group 1204889">
              <path id="Path_1288872" data-name="Path 1288872" d="M10.569,51.02l11.5-6.662c2.158-1.25,4.352-2.137,6.724-1.367,2.645.858,6.963,2.7,11.367,3.493a3.194,3.194,0,0,1,2.209,3.826c-.445,1.66-1.847,2.516-3.826,2.21l1.54.246a7.168,7.168,0,0,0,4.928-.858l11.055-6.439c8.593-5,9.856,2.695,7,4.454L43,62.276a7.357,7.357,0,0,1-5.957.84l-14.552-3.9L17.1,62.328a2.177,2.177,0,0,1-2.967-.8L9.777,53.985a2.177,2.177,0,0,1,.793-2.966Z" fill="#f6dccd" fill-rule="evenodd"/>
              <path id="Path_1288873" data-name="Path 1288873" d="M42.105,51a3.155,3.155,0,0,1-3.564,1.521c-2.384-.63-4.765-1.277-7.146-1.915a1.2,1.2,0,0,1,.619-2.31Z" fill="#f1cbbc" fill-rule="evenodd"/>
              <path id="Path_1288874" data-name="Path 1288874" d="M10.569,51.019l11.5-6.662c2.158-1.25,4.352-2.137,6.724-1.367,1.415.459,3.309,1.2,5.439,1.91L11.956,57.761l-2.18-3.775a2.177,2.177,0,0,1,.792-2.966Z" fill="#f1cbbc" fill-rule="evenodd"/>
              <path id="Path_1288875" data-name="Path 1288875" d="M11.9,47.706l9.119,16.113a1.632,1.632,0,0,1-.615,2.218l-3.1,1.755a1.633,1.633,0,0,1-2.218-.615L5.97,51.065a1.633,1.633,0,0,1,.615-2.218l3.1-1.755a1.632,1.632,0,0,1,2.218.615Z" fill="#d1d1d6" fill-rule="evenodd"/>
              <path id="Path_1288876" data-name="Path 1288876" d="M16.7,58.776l1.614,2.852,1.6,2.82a1.632,1.632,0,0,1-.61,2.215l1.108-.627a1.632,1.632,0,0,0,.615-2.218l-1.6-2.83-3.216-5.682-3.219-5.688L11.9,47.706a1.634,1.634,0,0,0-1.9-.754l1.874,3.312L15.1,55.946l1.6,2.83Z" fill="#b1b1b5" fill-rule="evenodd"/>
            </g>
          </g>
          <path id="Path_1288877" data-name="Path 1288877" d="M10.889,50.733A1.107,1.107,0,1,1,9.633,49.8a1.106,1.106,0,0,1,1.256.935Zm51.6-1.745L42.426,61.341a6.278,6.278,0,0,1-5.1.714l-14.551-3.9a1.094,1.094,0,0,0-.832.11l-2.111,1.219-5.356-9.463,8.141-4.716c1.819-1.054,3.785-1.938,5.836-1.272.669.217,1.444.5,2.339.82a57.278,57.278,0,0,0,9.091,2.694,2.083,2.083,0,0,1,1.424,2.479,2,2,0,0,1-2.431,1.407c-1.714-.346-3.274-.787-4.9-1.251-.734-.208-1.494-.424-2.293-.638a1.1,1.1,0,1,0-.568,2.118c.785.211,1.536.424,2.262.629,1.686.478,3.3.937,5.1,1.3l.022,0c.457.092.925.177,1.413.255a8.222,8.222,0,0,0,5.652-.994l11.056-6.438c3.121-1.818,5.512-2.021,6.395-.546a2.46,2.46,0,0,1-.523,3.118ZM20.119,64.76a.529.529,0,0,0-.048-.4L10.952,48.245A.53.53,0,0,0,10.631,48a.56.56,0,0,0-.147-.021.52.52,0,0,0-.256.069L7.127,49.8a.539.539,0,0,0-.2.724l9.12,16.112a.534.534,0,0,0,.722.2l3.1-1.755A.529.529,0,0,0,20.119,64.76ZM64.894,44.743c-.592-.989-3.019-3.928-9.38-.224L44.458,50.958a6.1,6.1,0,0,1-1.411.607,4.553,4.553,0,0,0,.381-.972A4.3,4.3,0,0,0,40.5,45.44a1.413,1.413,0,0,0-.144-.037,55.254,55.254,0,0,1-8.814-2.612c-.876-.317-1.7-.617-2.409-.845-2.875-.934-5.461.215-7.612,1.461L13.4,48.113l-.538-.949a2.727,2.727,0,0,0-3.713-1.03l-3.1,1.756A2.725,2.725,0,0,0,5.017,51.6l9.118,16.112A2.707,2.707,0,0,0,15.779,69a2.766,2.766,0,0,0,.735.1,2.7,2.7,0,0,0,1.336-.352l3.1-1.756a2.728,2.728,0,0,0,1.03-3.713l-1.067-1.884,1.735-1L36.76,64.175a9.115,9.115,0,0,0,2.353.317,8.436,8.436,0,0,0,4.463-1.282L63.638,50.855a4.633,4.633,0,0,0,1.256-6.112ZM36.642,17.765a.346.346,0,0,1,.1-.247.352.352,0,0,1,.5,0L39.421,19.7a1.1,1.1,0,0,0,.776.322h0a1.093,1.093,0,0,0,.776-.326L45.722,14.9a.348.348,0,0,1,.491,0,.348.348,0,0,1,0,.494q-1.074,1.084-2.146,2.172c-1.183,1.2-2.408,2.443-3.621,3.655a.351.351,0,0,1-.5,0l-3.208-3.208a.347.347,0,0,1-.1-.248ZM40.2,23.516a2.541,2.541,0,0,0,1.8-.743c1.218-1.217,2.445-2.464,3.632-3.667q1.07-1.084,2.141-2.168a2.541,2.541,0,0,0-1.8-4.332h-.01a2.528,2.528,0,0,0-1.795.751l-3.971,4.01-1.4-1.4a2.545,2.545,0,0,0-3.6,3.6L38.4,22.773a2.541,2.541,0,0,0,1.8.743ZM41.479,9.4a8.664,8.664,0,1,0,8.663,8.665A8.674,8.674,0,0,0,41.479,9.4Zm0,19.522A10.858,10.858,0,1,0,30.622,18.062,10.869,10.869,0,0,0,41.479,28.919ZM27.245,14.548a2.245,2.245,0,0,0-.477,2.7l1.15,2.275a4.345,4.345,0,0,1,.45,2.554l-.3,2.531a2.245,2.245,0,0,0,1.372,2.377l2.342,1a4.353,4.353,0,0,1,1.988,1.669l1.394,2.132a2.245,2.245,0,0,0,2.579.939l2.44-.738a4.36,4.36,0,0,1,2.594,0l2.44.738a2.246,2.246,0,0,0,2.579-.939l1.395-2.132a4.351,4.351,0,0,1,1.986-1.669l2.343-1a2.245,2.245,0,0,0,1.372-2.377l-.3-2.531a4.348,4.348,0,0,1,.45-2.554l1.151-2.275a2.248,2.248,0,0,0-.478-2.7L53.856,12.8a4.347,4.347,0,0,1-1.3-2.246l-.581-2.483a2.247,2.247,0,0,0-2.1-1.763L47.33,6.171a4.358,4.358,0,0,1-2.438-.887l-2.04-1.529a2.246,2.246,0,0,0-2.744,0l-2.04,1.529a4.357,4.357,0,0,1-2.437.887l-2.545.141a2.246,2.246,0,0,0-2.1,1.764L30.4,10.558A4.346,4.346,0,0,1,29.1,12.8ZM50.906,36.667a1.1,1.1,0,0,0-1.137.529l-1.566,2.7-2.266-4.867a4.451,4.451,0,0,0,3.694-2.032l1.393-2.131L53.977,37.2ZM34.754,39.891l-1.566-2.7a1.1,1.1,0,0,0-1.136-.529l-3.071.536,2.953-6.341,1.393,2.131a4.448,4.448,0,0,0,3.692,2.033ZM25.96,20.516,24.81,18.24a4.451,4.451,0,0,1,.934-5.291L27.6,11.2a2.147,2.147,0,0,0,.663-1.146l.581-2.481a4.455,4.455,0,0,1,4.117-3.455l2.545-.141a2.154,2.154,0,0,0,1.245-.454L38.792,2a4.451,4.451,0,0,1,5.374,0l2.04,1.527a2.158,2.158,0,0,0,1.245.452L50,4.122a4.451,4.451,0,0,1,4.116,3.455l.583,2.481a2.146,2.146,0,0,0,.662,1.146l1.858,1.745a4.453,4.453,0,0,1,.934,5.291L57,20.515a2.18,2.18,0,0,0-.23,1.305l.3,2.531A4.452,4.452,0,0,1,54.383,29l-1.5.644,3.729,8.01A1.4,1.4,0,0,1,55.1,39.627l-3.818-.668L49.335,42.31a1.392,1.392,0,0,1-1.208.7h-.065a1.394,1.394,0,0,1-1.2-.807l-3.62-7.772-1.1-.332a2.159,2.159,0,0,0-1.324,0l-1.1.332L36.1,42.2A1.392,1.392,0,0,1,34.9,43h-.065a1.391,1.391,0,0,1-1.207-.7l-1.948-3.351-3.818.668a1.4,1.4,0,0,1-1.508-1.968l3.729-8.011L28.575,29a4.45,4.45,0,0,1-2.687-4.653l.3-2.531a2.163,2.163,0,0,0-.23-1.3Z" fill-rule="evenodd"/>
        </g>
      </g>
    </g>
  </g>
</svg>
