<svg xmlns="http://www.w3.org/2000/svg" xmlns:xlink="http://www.w3.org/1999/xlink" width="90" height="90" viewBox="0 0 90 90">
  <defs>
    <clipPath id="clip-path">
      <rect id="Rectangle_411864" data-name="Rectangle 411864" width="90" height="90" fill="#e8bad8" opacity="0.41"/>
    </clipPath>
    <clipPath id="clip-path-2">
      <rect id="Rectangle_412117" data-name="Rectangle 412117" width="61" height="68" transform="translate(7138 -9887)" fill="#fff" stroke="#707070" stroke-width="1" opacity="0"/>
    </clipPath>
  </defs>
  <g id="Group_1204571" data-name="Group 1204571" transform="translate(-7123.441 9897.985)">
    <g id="Group_1204572" data-name="Group 1204572">
      <g id="Group_1204571-2" data-name="Group 1204571" transform="translate(13933.711 -849.514)">
        <g id="Group_1204092" data-name="Group 1204092" transform="translate(-6810.27 -9048.472)">
          <g id="Mask_Group_1099458" data-name="Mask Group 1099458" transform="translate(0 0)" clip-path="url(#clip-path)">
            <g id="Group_1204091" data-name="Group 1204091" transform="translate(0 4.909)">
              <g id="Group_1204089" data-name="Group 1204089">
                <ellipse id="Ellipse_12742" data-name="Ellipse 12742" cx="22.428" cy="22.428" rx="22.428" ry="22.428" transform="translate(44.238 34.661)" fill="#ffc94a"/>
                <ellipse id="Ellipse_12743" data-name="Ellipse 12743" cx="16.311" cy="16.311" rx="16.311" ry="16.311" fill="#ffc94a"/>
              </g>
            </g>
          </g>
        </g>
      </g>
      <g id="Mask_Group_1099542" data-name="Mask Group 1099542" clip-path="url(#clip-path-2)">
        <g id="claridad" transform="translate(7137.017 -9884.483)">
          <g id="Group_1204575" data-name="Group 1204575">
            <g id="Group_1204573" data-name="Group 1204573">
              <path id="Path_1280868" data-name="Path 1280868" d="M16.566,45.672h6.3v3.2a1.915,1.915,0,0,1-1.909,1.909H18.475a1.915,1.915,0,0,1-1.909-1.909v-3.2Z" fill="#b1b1b5" fill-rule="evenodd"/>
              <path id="Path_1280869" data-name="Path 1280869" d="M14.608,41.061H24.821v3.994a1.915,1.915,0,0,1-1.909,1.909H16.517a1.915,1.915,0,0,1-1.909-1.909Z" fill="#d1d1d6" fill-rule="evenodd"/>
              <path id="Path_1280870" data-name="Path 1280870" d="M22.6,40.481v4.574a1.915,1.915,0,0,1-1.909,1.909h2.224a1.915,1.915,0,0,0,1.909-1.909V40.48C24.094,40.5,23.328,40.481,22.6,40.481Z" fill="#b1b1b5" fill-rule="evenodd"/>
              <path id="Path_1280871" data-name="Path 1280871" d="M12.7,37.42H26.73v3.817a1.915,1.915,0,0,1-1.909,1.909H14.608A1.915,1.915,0,0,1,12.7,41.236Z" fill="#eceff1" fill-rule="evenodd"/>
              <path id="Path_1280872" data-name="Path 1280872" d="M24.506,39.327v1.91A1.915,1.915,0,0,1,22.6,43.146h2.288a1.915,1.915,0,0,0,1.846-1.908v-1.91Z" fill="#d1d1d6" fill-rule="evenodd"/>
              <path id="Path_1280873" data-name="Path 1280873" d="M19.714,11.823a11.75,11.75,0,0,1,11.75,11.75c0,6.526-4.169,6.136-4.734,15.754H12.7c-.565-9.619-4.734-9.229-4.734-15.754a11.75,11.75,0,0,1,11.75-11.75Z" fill="#ffe177" fill-rule="evenodd"/>
              <path id="Path_1280874" data-name="Path 1280874" d="M18.6,11.875a11.751,11.751,0,0,1,10.638,11.7c0,6.061-3.6,6.156-4.561,13.848-.074.589-.132,1.223-.173,1.907H26.73c.565-9.619,4.734-9.229,4.734-15.754a11.75,11.75,0,0,0-11.75-11.75q-.563,0-1.112.052Z" fill="#ffd064" fill-rule="evenodd"/>
            </g>
            <g id="Group_1204574" data-name="Group 1204574">
              <path id="Path_1280875" data-name="Path 1280875" d="M47.171,42.12a12.643,12.643,0,0,1-2.134,2.349l5.8,5.687,2.209-2.276Z" fill="#a79ba7" fill-rule="evenodd"/>
              <path id="Path_1280876" data-name="Path 1280876" d="M47.211,42.081a1.458,1.458,0,0,1-.632.847l5.763,5.725.706-.773Z" fill="#837683" fill-rule="evenodd"/>
              <path id="Path_1280877" data-name="Path 1280877" d="M58.186,57.537l2.493-2.569a1.146,1.146,0,0,0-.024-1.616l-6.9-6.7a1.146,1.146,0,0,0-1.616.024l-2.493,2.569a1.146,1.146,0,0,0,.024,1.616l6.9,6.7a1.146,1.146,0,0,0,1.616-.024Z" fill="#f1ba84" fill-rule="evenodd"/>
              <path id="Path_1280878" data-name="Path 1280878" d="M52.729,46.653l6.9,6.7a1.146,1.146,0,0,1,.024,1.616l-2.493,2.569a1.134,1.134,0,0,1-.31.226,1.147,1.147,0,0,0,1.331-.226l2.493-2.569a1.146,1.146,0,0,0-.024-1.616l-6.9-6.7a1.147,1.147,0,0,0-1.307-.2A1.13,1.13,0,0,1,52.729,46.653Z" fill="#e3a76f" fill-rule="evenodd"/>
              <circle id="Ellipse_12778" data-name="Ellipse 12778" cx="12.57" cy="12.57" r="12.57" transform="translate(19.966 35.791) rotate(-45)" fill="#8ac9fe"/>
              <path id="Path_1280879" data-name="Path 1280879" d="M37.75,23.219a12.572,12.572,0,0,1,0,25.144q-.307,0-.61-.015a12.572,12.572,0,0,0,0-25.114q.3-.015.61-.015Z" fill="#60b7ff" fill-rule="evenodd"/>
              <circle id="Ellipse_12779" data-name="Ellipse 12779" cx="9.028" cy="9.028" r="9.028" transform="translate(26.156 41.124) rotate(-69.699)" fill="#eceff1"/>
              <path id="Path_1280880" data-name="Path 1280880" d="M37.75,26.764c.205,0,.409.008.61.021a9.027,9.027,0,0,0,0,18.013c-.2.013-.405.021-.61.021a9.027,9.027,0,0,1,0-18.055Z" fill="#d1d1d6" fill-rule="evenodd"/>
            </g>
            <path id="Path_1280881" data-name="Path 1280881" d="M36.564,36.587l4.39-4.433a1.336,1.336,0,1,1,1.9,1.883c-1.78,1.8-3.548,3.6-5.336,5.393a1.339,1.339,0,0,1-1.894,0l-2.967-2.967a1.339,1.339,0,0,1,1.894-1.894Z" fill="#8ac9fe" fill-rule="evenodd"/>
          </g>
          <path id="Path_1280882" data-name="Path 1280882" d="M42.151,32.846a.343.343,0,0,0-.251-.1.35.35,0,0,0-.247.1l-4.39,4.434a.981.981,0,0,1-.7.291h0a.982.982,0,0,1-.7-.288l-2.017-2.017a.355.355,0,1,0-.5.5l2.967,2.968a.358.358,0,0,0,.5,0c1.12-1.122,2.253-2.27,3.349-3.381q.991-1.005,1.984-2.01a.354.354,0,0,0,0-.5Zm1.4,1.884q-.992,1-1.981,2.006c-1.1,1.113-2.232,2.265-3.359,3.39a2.323,2.323,0,0,1-3.285,0L31.958,37.16a2.323,2.323,0,1,1,3.285-3.285l1.319,1.317,3.693-3.73a2.321,2.321,0,0,1,3.283-.011,2.324,2.324,0,0,1,.011,3.279Zm2.245,1.062a8.044,8.044,0,1,1-8.043-8.043A8.053,8.053,0,0,1,45.794,35.792Zm1.968,0A10.011,10.011,0,1,1,37.75,25.781,10.022,10.022,0,0,1,47.761,35.792ZM59.968,54.06l-6.9-6.7a.156.156,0,0,0-.109-.043h0a.154.154,0,0,0-.112.047l-2.491,2.569a.159.159,0,0,0-.045.113.169.169,0,0,0,.047.112l6.9,6.7a.162.162,0,0,0,.225,0l2.493-2.568A.162.162,0,0,0,59.968,54.06ZM37.75,47.381A11.589,11.589,0,1,1,49.338,35.792,11.6,11.6,0,0,1,37.75,47.381ZM25.581,41.762a13.432,13.432,0,0,1-.611-1.451H13.682v.926a.927.927,0,0,0,.926.926H24.821a.926.926,0,0,0,.76-.4Zm-3.7,7.113V47.95H17.55v.925a.927.927,0,0,0,.926.926h2.478a.927.927,0,0,0,.926-.926Zm1.958-3.819v-.925H15.592v.925a.927.927,0,0,0,.926.926h6.394A.927.927,0,0,0,23.837,45.056Zm.637-19.65a1.746,1.746,0,1,0-1.747-1.746v1.746Zm-3.715,1.968h-2.09v10.97h2.09ZM16.7,23.659a1.747,1.747,0,1,0-1.746,1.746H16.7Zm-5.967,5.734a18.585,18.585,0,0,1,2.879,8.95H16.7V27.373H14.955a3.714,3.714,0,1,1,3.714-3.714v1.746h2.09V23.659a3.714,3.714,0,1,1,3.715,3.714H22.727v10.97h1.709A13.552,13.552,0,0,1,30.455,24.37q.025-.387.025-.8a10.766,10.766,0,1,0-21.532,0,9.928,9.928,0,0,0,1.786,5.819Zm37.5,14.978q-.382.466-.8.9l2.42,2.348.838-.864ZM61.384,55.654l-2.493,2.57a2.128,2.128,0,0,1-3.007.044l-6.9-6.7a2.112,2.112,0,0,1-.644-1.494,2.135,2.135,0,0,1,.221-.975l-2.6-2.524A13.535,13.535,0,0,1,26.61,43.508a2.913,2.913,0,0,1-.806.449v1.1a2.9,2.9,0,0,1-1.958,2.737v1.081a2.9,2.9,0,0,1-2.893,2.894H18.475a2.9,2.9,0,0,1-2.893-2.894V47.793a2.9,2.9,0,0,1-1.958-2.737v-1.1a2.9,2.9,0,0,1-1.91-2.721V39.361a17.315,17.315,0,0,0-2.678-8.974A11.813,11.813,0,0,1,6.98,23.574a12.733,12.733,0,0,1,25.464-.256A13.55,13.55,0,0,1,49.383,42.741l2.827,2.743a2.127,2.127,0,0,1,2.226.464l6.9,6.7a2.128,2.128,0,0,1,.046,3.007ZM35.065,17.7a.976.976,0,0,0,.491-.131l2.4-1.384a.984.984,0,0,0-.984-1.7l-2.4,1.384a.984.984,0,0,0,.493,1.836Zm-6.981-6.619a.985.985,0,0,0,1.344-.361l1.384-2.4a.984.984,0,1,0-1.7-.984l-1.384,2.4a.985.985,0,0,0,.36,1.344ZM4.857,15.861l-2.4-1.384a.984.984,0,0,0-.984,1.7l2.4,1.384a.984.984,0,0,0,.984-1.7ZM10,10.718a.984.984,0,1,0,1.7-.983l-1.384-2.4a.984.984,0,1,0-1.7.984Zm8.73-2.867V5.083a.984.984,0,1,1,1.968,0V7.851a.984.984,0,1,1-1.968,0Z" fill-rule="evenodd"/>
        </g>
      </g>
    </g>
  </g>
</svg>
