<svg xmlns="http://www.w3.org/2000/svg" xmlns:xlink="http://www.w3.org/1999/xlink" width="90" height="90" viewBox="0 0 90 90">
  <defs>
    <clipPath id="clip-path">
      <rect id="Rectangle_411866" data-name="Rectangle 411866" width="90" height="90" fill="#e8bad8" opacity="0.41"/>
    </clipPath>
    <clipPath id="clip-path-2">
      <rect id="Rectangle_412217" data-name="Rectangle 412217" width="62" height="67" transform="translate(8096.199 -9473.971)" fill="#fff" stroke="#707070" stroke-width="1" opacity="0"/>
    </clipPath>
  </defs>
  <g id="Group_1204749" data-name="Group 1204749" transform="translate(-8082.199 9485.472)">
    <g id="Group_1204752" data-name="Group 1204752">
      <g id="Group_1204749-2" data-name="Group 1204749" transform="translate(125.986 190)">
        <g id="Group_1204600" data-name="Group 1204600">
          <g id="Group_1204597" data-name="Group 1204597" transform="translate(14463.482 -641)">
            <g id="Group_1204132" data-name="Group 1204132" transform="translate(-6507.27 -9034.472)">
              <g id="Mask_Group_1099459" data-name="Mask Group 1099459" transform="translate(0)" clip-path="url(#clip-path)">
                <g id="Group_1204095" data-name="Group 1204095" transform="translate(0 4.909)">
                  <g id="Group_1204093" data-name="Group 1204093" transform="translate(0)">
                    <ellipse id="Ellipse_12744" data-name="Ellipse 12744" cx="22.428" cy="22.428" rx="22.428" ry="22.428" transform="translate(44.238 34.661)" fill="#ffc94a"/>
                    <ellipse id="Ellipse_12745" data-name="Ellipse 12745" cx="16.311" cy="16.311" rx="16.311" ry="16.311" fill="#ffc94a"/>
                  </g>
                </g>
              </g>
            </g>
          </g>
        </g>
      </g>
      <g id="Mask_Group_1099578" data-name="Mask Group 1099578" clip-path="url(#clip-path-2)">
        <g id="objetivo_2_" data-name="objetivo (2)" transform="translate(8097.051 -9473.971)">
          <path id="Path_1285433" data-name="Path 1285433" d="M17.077,66.018H4.321v-4.5a2.37,2.37,0,0,1,2.37-2.37h8.015a2.37,2.37,0,0,1,2.37,2.37Zm0,0" fill="#a7c7d3"/>
          <path id="Path_1285434" data-name="Path 1285434" d="M29.832,66.018H17.077V55.635a2.37,2.37,0,0,1,2.37-2.37h8.015a2.37,2.37,0,0,1,2.37,2.37Zm0,0" fill="#89b4c9"/>
          <path id="Path_1285435" data-name="Path 1285435" d="M42.588,66.018H29.832v-16.7a2.37,2.37,0,0,1,2.37-2.37h8.015a2.371,2.371,0,0,1,2.37,2.37Zm0,0" fill="#6c96b3"/>
          <path id="Path_1285436" data-name="Path 1285436" d="M55.343,66.018H42.588V39.726a2.37,2.37,0,0,1,2.37-2.37h8.015a2.37,2.37,0,0,1,2.37,2.37Zm0,0" fill="#618aaa"/>
          <path id="Path_1285437" data-name="Path 1285437" d="M46.05,10.5H58.88a.431.431,0,0,0,.285-.755L55.832,6.81a.431.431,0,0,1,0-.647l3.333-2.935a.431.431,0,0,0-.285-.754H46.05Zm0,0" fill="#fdb659"/>
          <path id="Path_1285438" data-name="Path 1285438" d="M47.072,14.255,33.174,21.8c-1.24.673-1.579,1.857-2.012,3.382L28.4,34.957l6.773-2.775L37.8,24.235l6.994-4.249a5.118,5.118,0,0,0,2.278-5.731Zm0,0" fill="#83d9ff"/>
          <path id="Path_1285439" data-name="Path 1285439" d="M47.072,14.255l-1.6.871A5.117,5.117,0,0,1,43.1,18.518l-6.373,3.872a1.978,1.978,0,0,0-.85,1.068l-.91,2.751a10.314,10.314,0,0,1-5.882,6.3L28.4,34.957l6.773-2.776L37.8,24.236l6.994-4.249a5.119,5.119,0,0,0,2.278-5.732Zm0,0" fill="#5fc9ed"/>
          <path id="Path_1285440" data-name="Path 1285440" d="M35.171,32.182l4,4.73c.663.878,1.24,1.5,1.12,2.462l-.936,7.566H36.916l-.638-6.5a1.087,1.087,0,0,0-.651-.891L28.4,34.957Zm0,0" fill="#38627c"/>
          <path id="Path_1285441" data-name="Path 1285441" d="M28.4,34.957l-.391,7.171a3.151,3.151,0,0,1-.174,1.439l-4.609,9.7h2.591l6.93-9.205a3.747,3.747,0,0,0,.588-1.7l1.838-10.176Zm0,0" fill="#4f7693"/>
          <path id="Path_1285442" data-name="Path 1285442" d="M34.674,15.8l1.137,2.218a2.122,2.122,0,0,1-.921,2.855l-.879.45a2.121,2.121,0,0,1-2.855-.921L30.02,18.186a2.122,2.122,0,0,1,.921-2.855l.879-.45a2.121,2.121,0,0,1,2.855.921Zm0,0" fill="#fecbaa"/>
          <path id="Path_1285443" data-name="Path 1285443" d="M59.814,9.007,56.951,6.486l2.863-2.521a1.413,1.413,0,0,0-.934-2.474H47.032V.982a.982.982,0,0,0-1.964,0V14.225L37,18.6a3.107,3.107,0,0,0-.319-1.032l-1.136-2.218a3.107,3.107,0,0,0-4.176-1.347l-.879.45a3.1,3.1,0,0,0-1.347,4.177l1.136,2.219A3.084,3.084,0,0,0,31.4,22.068a8.6,8.6,0,0,0-1.184,2.849l-.212.749a.982.982,0,0,0,.678,1.212.967.967,0,0,0,.267.037.983.983,0,0,0,.945-.715l.212-.748c.43-1.518.695-2.33,1.536-2.787l1.508-.819.186-.1c.062-.032.12-.067.178-.1l10.751-5.838a4.156,4.156,0,0,1-1.982,3.337l-6.991,4.248-.024.014L35.093,24.73a.982.982,0,0,0,.939,1.723L34.38,31.444l-1.207.495-3.282,1.345.946-3.343a.982.982,0,0,0-1.89-.535L27.453,34.69a.943.943,0,0,0-.035.214l-.391,7.183a3.287,3.287,0,0,1-.08,1.059L22.6,52.282H19.447a3.356,3.356,0,0,0-3.353,3.352v2.834a3.326,3.326,0,0,0-1.388-.3H6.692a3.356,3.356,0,0,0-3.352,3.352v3.517H.982A.982.982,0,1,0,.982,67h57.9a.982.982,0,0,0,0-1.964H56.325V39.726a3.356,3.356,0,0,0-3.352-3.352H47.032V19.242a6.124,6.124,0,0,0,.987-5.248.982.982,0,0,0-.987-.721V11.481H58.88a1.413,1.413,0,0,0,.934-2.474ZM30.824,16.87a1.131,1.131,0,0,1,.565-.665l.879-.45a1.139,1.139,0,0,1,1.533.494l1.137,2.219a1.141,1.141,0,0,1-.378,1.464l-.32.173-.675.346a1.14,1.14,0,0,1-1.533-.495l-1.137-2.218a1.132,1.132,0,0,1-.07-.869ZM28.85,52.585a3.333,3.333,0,0,0-1.078-.287l1.078-1.432Zm4.662-7.912a3.7,3.7,0,0,0,.708-1.759c.027-.127.511-2.774.511-2.774s.459.286.507.306a.1.1,0,0,1,.06.086l.534,5.43H32.542Zm5.807-5.42-.829,6.7h-.684l-.553-5.618a2.069,2.069,0,0,0-1.157-1.66l-.988-.626.658-3.646S38.539,37.7,38.6,37.783c.574.746.77,1.044.717,1.47ZM28.713,44a5.323,5.323,0,0,0,.275-1.823l.357-6.551,4.542-1.861-.826,4.573c0,.012-.005.025-.007.037l-.683,3.781a3.741,3.741,0,0,1-.411,1.308l-6.635,8.814h-.547ZM5.3,61.519a1.39,1.39,0,0,1,1.388-1.388h8.015A1.39,1.39,0,0,1,16.1,61.519v3.517H5.3Zm12.755,0V55.635a1.39,1.39,0,0,1,1.389-1.388h8.015a1.39,1.39,0,0,1,1.388,1.388v9.4H18.059V61.519Zm36.3-21.793V65.036H43.57V59.149a.982.982,0,0,0-1.964,0v5.888H30.814V49.313A1.39,1.39,0,0,1,32.2,47.925h8.015a1.39,1.39,0,0,1,1.388,1.388v4.923a.982.982,0,1,0,1.964,0V39.726a1.39,1.39,0,0,1,1.389-1.388h8.014a1.39,1.39,0,0,1,1.389,1.388Zm-9.4-3.352a3.356,3.356,0,0,0-3.352,3.352v6.538a3.324,3.324,0,0,0-1.138-.292l.8-6.478a3.792,3.792,0,0,0-1.109-2.909c-.066-.086-3.883-4.618-3.883-4.618l2.342-7.08,6.45-3.919v15.4ZM47.032,9.517V3.456H57.421l-2.237,1.97a1.413,1.413,0,0,0,0,2.121l2.237,1.97H47.032Zm0,0"/>
        </g>
      </g>
    </g>
  </g>
</svg>
