<svg xmlns="http://www.w3.org/2000/svg" xmlns:xlink="http://www.w3.org/1999/xlink" width="90" height="90" viewBox="0 0 90 90">
  <defs>
    <clipPath id="clip-path">
      <rect id="Rectangle_411866" data-name="Rectangle 411866" width="90" height="90" fill="#e8bad8" opacity="0.41"/>
    </clipPath>
    <clipPath id="clip-path-2">
      <rect id="Rectangle_412119" data-name="Rectangle 412119" width="61" height="68" transform="translate(7018 -9756)" fill="#fff" stroke="#707070" stroke-width="1" opacity="0"/>
    </clipPath>
  </defs>
  <g id="Group_1204576" data-name="Group 1204576" transform="translate(-7003.949 9767.5)">
    <g id="Group_1204578" data-name="Group 1204578">
      <g id="Group_1204576-2" data-name="Group 1204576" transform="translate(13820.219 -707.028)">
        <g id="Group_1204096" data-name="Group 1204096" transform="translate(-6816.27 -9060.472)">
          <g id="Mask_Group_1099459" data-name="Mask Group 1099459" transform="translate(0 0)" clip-path="url(#clip-path)">
            <g id="Group_1204095" data-name="Group 1204095" transform="translate(0 4.909)">
              <g id="Group_1204093" data-name="Group 1204093" transform="translate(0)">
                <ellipse id="Ellipse_12744" data-name="Ellipse 12744" cx="22.428" cy="22.428" rx="22.428" ry="22.428" transform="translate(44.238 34.661)" fill="#ffc94a"/>
                <ellipse id="Ellipse_12745" data-name="Ellipse 12745" cx="16.311" cy="16.311" rx="16.311" ry="16.311" fill="#ffc94a"/>
              </g>
            </g>
          </g>
        </g>
      </g>
      <g id="Mask_Group_1099543" data-name="Mask Group 1099543" clip-path="url(#clip-path-2)">
        <g id="puzzle" transform="translate(7016.758 -9753.739)">
          <path id="Path_1280883" data-name="Path 1280883" d="M28.765,5.436a4.315,4.315,0,0,1-1.825,7.142l5.138,5.128-5.227,5.227a4.275,4.275,0,1,0-5.128,5.118L16.5,33.278,2.7,19.441a2.47,2.47,0,0,1,0-3.472L16.585,2.133l5.138,5.128a4.315,4.315,0,0,1,7.043-1.825Z" fill="#e53950"/>
          <path id="Path_1280884" data-name="Path 1280884" d="M61.5,39.329h-7.39a4.275,4.275,0,1,1-7.251,0h-7.39V32.068a4.285,4.285,0,1,0,0-7.519V17.3h19.57a2.47,2.47,0,0,1,2.46,2.46Z" fill="#0078c8"/>
          <path id="Path_1280885" data-name="Path 1280885" d="M32.733,50.339a4.3,4.3,0,0,0,6.745,3.5v7.509H19.9a2.47,2.47,0,0,1-2.46-2.46V39.329H24.8a4.275,4.275,0,1,1,7.241,0h7.39v7.519a4.295,4.295,0,0,0-6.7,3.491Z" fill="#2abcc8"/>
          <path id="Path_1280886" data-name="Path 1280886" d="M61.5,39.329v19.56a2.47,2.47,0,0,1-2.46,2.46H39.468V53.84a4.275,4.275,0,1,1,0-6.993V39.329h7.39a4.275,4.275,0,1,0,7.251,0Z" fill="#ffc344"/>
          <path id="Path_1280887" data-name="Path 1280887" d="M16.535,34.022a.734.734,0,0,1-.526-.218L2.172,19.967a3.214,3.214,0,0,1,0-4.523L16.059,1.607a.734.734,0,0,1,1.051,0l4.315,4.345a5.036,5.036,0,1,1,6.884,6.884l4.364,4.354a.744.744,0,0,1,0,1.051l-5.227,5.227A.744.744,0,0,1,26.2,23.1a3.531,3.531,0,1,0-4.235,4.235.744.744,0,0,1,.357,1.25L17.061,33.8a.7.7,0,0,1-.526.218Zm0-30.838L3.224,16.5a1.716,1.716,0,0,0,0,2.42L16.535,32.227l3.878-3.878a5.019,5.019,0,1,1,6.775-6.765l3.878-3.878-4.612-4.6a.754.754,0,0,1-.188-.714.734.734,0,0,1,.516-.486,3.6,3.6,0,0,0,1.5-.893,3.519,3.519,0,1,0-5.892-3.472.744.744,0,0,1-1.24.327Z"/>
          <path id="Path_1280888" data-name="Path 1280888" d="M50.488,46.619A5.039,5.039,0,0,1,45.7,40.093H39.468a.754.754,0,0,1-.744-.744V32.068a.734.734,0,0,1,.367-.635.724.724,0,0,1,.734,0,3.492,3.492,0,0,0,1.686.427,3.531,3.531,0,0,0,0-7.062,3.343,3.343,0,0,0-1.676.427.764.764,0,0,1-.744,0,.734.734,0,0,1-.367-.645V17.3a.744.744,0,0,1,.744-.744h19.57a3.2,3.2,0,0,1,3.2,3.2v19.57a.754.754,0,0,1-.744.744H55.269a5.039,5.039,0,0,1-4.781,6.547ZM40.212,38.585h6.646a.744.744,0,0,1,.655.387.754.754,0,0,1,0,.754,3.382,3.382,0,0,0-.546,1.855,3.541,3.541,0,0,0,7.072,0,3.481,3.481,0,0,0-.535-1.854.734.734,0,0,1,.625-1.141h6.646V19.739a1.716,1.716,0,0,0-1.716-1.716H40.212v5.416a5.019,5.019,0,1,1,0,9.7Z"/>
          <path id="Path_1280889" data-name="Path 1280889" d="M39.468,62.093H19.9a3.2,3.2,0,0,1-3.2-3.2V39.329a.744.744,0,0,1,.744-.744h6.229a5.019,5.019,0,1,1,9.572,0h6.229a.734.734,0,0,1,.744.744v7.519a.754.754,0,0,1-1.17.615,3.531,3.531,0,1,0,0,5.763.754.754,0,0,1,1.17.615v7.509a.734.734,0,0,1-.744.744ZM18.182,40.073V58.919A1.716,1.716,0,0,0,19.9,60.635H38.684V55.06a5.019,5.019,0,1,1,0-9.433V40.073H32.038a.744.744,0,0,1-.625-1.151,3.462,3.462,0,0,0,.536-1.855,3.531,3.531,0,0,0-7.062,0,3.372,3.372,0,0,0,.536,1.855.754.754,0,0,1,0,.764.734.734,0,0,1-.645.387Z"/>
          <path id="Path_1280890" data-name="Path 1280890" d="M59.038,62.093H39.468a.744.744,0,0,1-.744-.744V55.06a5.019,5.019,0,1,1-.04-9.433v-6.3a.744.744,0,0,1,.744-.744h7.39a.744.744,0,0,1,.655.387.754.754,0,0,1,0,.754,3.382,3.382,0,0,0-.546,1.855,3.541,3.541,0,0,0,7.072,0,3.481,3.481,0,0,0-.535-1.854.734.734,0,0,1,.625-1.141H61.5a.744.744,0,0,1,.744.744v19.56a3.2,3.2,0,0,1-3.2,3.2ZM40.192,60.605H59.038a1.716,1.716,0,0,0,1.716-1.716V40.043H55.269a5.019,5.019,0,1,1-9.572,0H40.212v6.775a.744.744,0,0,1-1.17.615,3.521,3.521,0,1,0,0,5.773.724.724,0,0,1,.774-.06.744.744,0,0,1,.4.665Z"/>
        </g>
      </g>
    </g>
  </g>
</svg>
